<svg id="Layer_1" data-name="Layer 1" xmlns="http://www.w3.org/2000/svg" xmlns:xlink="http://www.w3.org/1999/xlink" viewBox="0 0 229.78 185.92"><defs><style>.cls-1,.cls-4{fill:none;}.cls-2{opacity:0.26;}.cls-3{clip-path:url(#clip-path);}.cls-4{stroke:#231f20;stroke-miterlimit:10;stroke-width:3.13px;}.cls-5{fill:#231f20;}</style><clipPath id="clip-path"><rect class="cls-1" width="229.78" height="185.92"/></clipPath></defs><title>CA_Logo</title><g class="cls-2"><g class="cls-3"><path class="cls-4" d="M117.53,102.42V37.5s0-35.94,35.93-35.94H193V37.35m-80.72,65.07V37.5s0-35.94-35.93-35.94H36.81V37.35M77.6,102.42V73.31s0-35.94-35.94-35.94H1.56v89.21s0,35.94,35.94,35.94l2.11-.05c3.75,10.08,12.54,21.89,33.14,21.89h39.5V167.92"/></g><path class="cls-5" d="M18,123.79v-.08c0-8.93,6.67-16.33,16-16.33a16.42,16.42,0,0,1,12.31,5L43.88,115c-2.66-2.52-5.64-4.32-9.92-4.32-7,0-12.22,5.67-12.22,12.93v.1c0,7.3,5.27,13,12.22,13,4.32,0,7.16-1.67,10.19-4.55l2.34,2.3c-3.29,3.34-6.9,5.54-12.62,5.54C24.76,140,18,132.86,18,123.79Z"/><path class="cls-5" d="M73.08,127.94l-7.16-16.09L58.7,127.94ZM64.29,107.7h3.34L82,139.48H78.18l-3.7-8.34H57.3l-3.74,8.34H49.91L64.29,107.7Z"/><polygon class="cls-5" points="87.48 107.92 90.81 107.92 110.7 133.22 110.7 107.92 114.17 107.92 114.17 139.48 111.33 139.48 90.95 113.61 90.95 139.48 87.48 139.48 87.48 107.92 87.48 107.92"/><path class="cls-5" d="M149.55,123.79v-.08c0-7.17-5.23-13-12.44-13s-12.35,5.76-12.35,12.93v.1c0,7.16,5.23,13,12.44,13s12.35-5.77,12.35-12.94Zm-28.49,0v-.08c0-8.71,6.54-16.33,16.14-16.33s16.05,7.53,16.05,16.23c.05,0,.05,0,0,.1A16,16,0,0,1,137.11,140c-9.6,0-16.05-7.52-16.05-16.23Z"/><path class="cls-5" d="M172.06,125.1c5.23,0,8.65-2.79,8.65-6.94v-.09c0-4.51-3.38-6.85-8.47-6.85h-8V125.1ZM160.7,107.92h11.81c7.12,0,11.81,3.79,11.81,10V118c0,6.81-5.68,10.33-12.4,10.33h-7.66v11.13H160.7V107.92Z"/><polygon class="cls-5" points="199.79 127 186.67 107.92 191 107.92 201.64 123.7 212.37 107.92 216.52 107.92 203.4 126.95 203.4 139.48 199.79 139.48 199.79 127 199.79 127"/><path class="cls-5" d="M63.15,155.09l-4.86-10.91L53.4,155.09Zm-6-13.72h2.26l9.75,21.55H66.6l-2.51-5.66H52.45l-2.54,5.66H47.44l9.75-21.55Z"/><polygon class="cls-5" points="68.19 141.52 70.82 141.52 76.93 159.34 82.8 141.46 84.79 141.46 90.66 159.34 96.77 141.52 99.31 141.52 91.67 163.07 89.62 163.07 83.75 145.71 77.85 163.07 75.83 163.07 68.19 141.52 68.19 141.52"/><path class="cls-5" d="M114.05,155.09l-4.87-10.91-4.89,10.91Zm-6-13.72h2.27l9.76,21.55h-2.6L115,157.26H103.35l-2.54,5.66H98.33l9.75-21.55Z"/><path class="cls-5" d="M133.2,152.43c3.21,0,5.51-1.65,5.51-4.4V148c0-2.63-2-4.22-5.47-4.22h-6.61v8.68Zm-9-10.91h9.2a8.46,8.46,0,0,1,6.08,2.14,5.91,5.91,0,0,1,1.65,4.22v.06c0,3.54-2.44,5.62-5.8,6.24l6.56,8.74h-3l-6.2-8.32h-6.12v8.32h-2.41v-21.4Z"/><path class="cls-5" d="M154,160.69c5.41,0,8.87-3.67,8.87-8.41v-.06c0-4.74-3.46-8.47-8.87-8.47h-5v16.94Zm-7.42-19.17H154c6.73,0,11.37,4.62,11.37,10.64v.06c0,6-4.64,10.7-11.37,10.7h-7.42v-21.4Z"/><path class="cls-5" d="M168.11,159.8l1.5-1.78a10.17,10.17,0,0,0,7.33,3c2.88,0,4.77-1.53,4.77-3.64v-.06c0-2-1.07-3.11-5.56-4.06-4.92-1.07-7.18-2.66-7.18-6.18v-.06c0-3.36,3-5.83,7-5.83a11.12,11.12,0,0,1,7.52,2.63l-1.41,1.86a9.39,9.39,0,0,0-6.17-2.32c-2.79,0-4.56,1.52-4.56,3.45v.06c0,2,1.1,3.15,5.81,4.16s7,2.78,7,6.05v.06c0,3.67-3.06,6.05-7.31,6.05a12.53,12.53,0,0,1-8.74-3.42Z"/><g class="cls-3"><path class="cls-4" d="M152.18,102.42V73.31s0-35.94,35.94-35.94h40.1v89.21s0,35.94-35.94,35.94l-2.13,0c-3.77,10.07-12.57,21.82-33.12,21.82h-39.5V167.92m0-65.63V95.14s0-35.93,35.93-35.93H193v43.21m-80.72-.13V95.14s0-35.93-35.93-35.93H36.81v43.21"/></g></g></svg>