<svg xmlns="http://www.w3.org/2000/svg" viewBox="0 0 223 257"><defs><style>.cls-1{fill:#ebed7a;}.cls-2{fill:#dee122;}.cls-3,.cls-6,.cls-7{fill:none;}.cls-4{opacity:0.18;}.cls-5{fill:#686811;}.cls-6,.cls-7{stroke:#2f459b;stroke-linecap:round;stroke-miterlimit:10;}.cls-6{stroke-width:2.21px;}.cls-7{stroke-width:1.75px;}.cls-8{fill:#2f459b;}.cls-9{opacity:0.24;}.cls-10{fill:#e6e6e6;}</style></defs><title>Elm</title><g id="Layer_10" data-name="Layer 10"><polygon class="cls-1" points="4.25 190.19 4.25 66.37 111.49 4.46 218.72 66.37 218.72 190.19 111.49 252.1 4.25 190.19"/><path class="cls-2" d="M111.49,7.35,216.22,67.82V188.75L111.49,249.22,6.75,188.75V67.82L111.49,7.35m0-5.77L109,3,4.25,63.49l-2.5,1.44V191.64l2.5,1.44L109,253.55l2.5,1.44,2.5-1.44,104.73-60.47,2.5-1.44V64.93l-2.5-1.44L114,3l-2.5-1.44Z"/><polygon class="cls-3" points="216.22 188.75 216.22 67.82 111.49 7.35 6.75 67.82 6.75 188.75 111.49 249.22 216.22 188.75"/><g class="cls-4"><polygon class="cls-5" points="111.49 128.28 111.49 249.22 216.22 188.75 216.22 188.75 216.22 67.82 111.49 128.28"/></g><path class="cls-6" d="M116.2,113.1s-45.91,33.5-77.56,87.57"/><path class="cls-7" d="M104.78,113.9s-4.87,8.85-4.23,11.61"/><path class="cls-7" d="M84.5,141.81s7.69-4.39,19.53.22"/><path class="cls-7" d="M62.23,166.87s10.64,0,14.26-1"/><path class="cls-7" d="M44.45,191.6s9.12,1.16,11.33.29"/><path class="cls-7" d="M52,179.81s-1.76-12.78-.23-14.7"/><path class="cls-7" d="M75,151.52s-1.48-13.28.36-15"/><path class="cls-8" d="M48.09,165.65s-8.86-9.34-9.48-10.68c-.47-1,.53-1,.53-1s-2.35-.84-2.18-4.4-1.68-4.21-1.81-5.59c-.19-2-2.71-3-1.35-4.9.44-.62,1.06.27,1.06.27s-3.8-5.95-2.25-7.5c.58-.58,1,.2,1,.2s-2.15-4.92-.74-7c.5-.72,1.21.37,1.21.37s-.94-4.28.27-6.58c.69-1.32,1.54.23,1.54.23s-.2-4,.84-5.18,1.81.41,1.81.41-.31-4.66,0-5.67,1.51.27,1.51.27-.34-3.22,0-3.86,1-.12,1-.12-1-4,.42-4.49c.57-1.73.64-3,1.91-3.8,1.13.74.88,2,1.25,2.51s1.49.81,1.6,2.42c0,.54-.39.94-.18,1.17s1-.75,1-.75,1.73,2.72,1,4.44c-.39,1,1.19-1.28,1.19-1.28S52,107.7,51,109.28c-.69,1.07,1.39-.62,1.39-.62s1.13,1.54-.32,3.84c-.58.93,1.42-1.2,1.42-1.2s2.34,3.76,2.11,5.08c-.08.5,1.49-1.27,1.49-1.27s3,4.46,2.24,5.94c-.54,1,1.1-.48,1.1-.48s2.37,3,.36,5.46c.42,2.58,2.3,1.08,2.3,1.08a11.52,11.52,0,0,1,.44,8.08c-.25.73,1-.4,1-.4s2.71,4.35.68,7.71c-.34.55.56.59.56.59a5.55,5.55,0,0,1-.51,5.59c-1.06,1.38,1.09-.33,1.09-.33s-.12,4.93-1.84,6.56c-.95.89.93.39.93.39a13.43,13.43,0,0,1-2.15,4.59c-.79,1.18.42.3.42.3S63.28,163,61.54,164c-1.32.79-.38.5-.38.5s-1.64,2.1-2.5,2.14c-1.16.06-.9,1-.9,1s-5.15,2.79-6.89,1C48.52,166.09,48.09,165.65,48.09,165.65Z"/><path class="cls-8" d="M55.83,195.8s5.26,4.83,6.35,5.09a15.15,15.15,0,0,0,3.13,0s1,1.61,3.63,1,3.4.62,4.45.51c1.49-.15,2.67,1.55,3.86.27.39-.42-.37-.74-.37-.74s5,1.92,5.94.54c.33-.51-.31-.7-.31-.7s4,.86,5.28-.49c.45-.47-.47-.83-.47-.83s3.33.06,4.85-1.18c.86-.7-.43-1.1-.43-1.1s3-.45,3.71-1.39-.59-1.28-.59-1.28a25.37,25.37,0,0,0,4.2-.84c.7-.39-.44-1.08-.44-1.08a10.21,10.21,0,0,0,2.86-.6c.42-.38-.08-.77-.08-.77s3.14.14,3.27-1c1.19-.69,2.16-.94,2.51-2-.73-.72-1.65-.34-2.06-.55s-.85-1-2.07-.82c-.4.05-.63.43-.84.31s.39-.88.39-.88-2.3-.88-3.47-.12c-.66.44.75-1.07.75-1.07s-2.31-1.58-3.32-.6c-.68.67.23-1.12.23-1.12a2.62,2.62,0,0,0-2.8.81c-.6.56.66-1.22.66-1.22s-3.17-1.18-4.12-.82c-.36.14.7-1.28.7-1.28s-3.81-1.6-4.78-.78c-.64.54.18-.88.18-.88s-2.58-1.32-4.12.54c-2,.08-1.18-1.54-1.18-1.54a8.78,8.78,0,0,0-6.07.88c-.5.29.13-.81.13-.81s-3.67-1.36-5.84.64c-.35.33-.53-.33-.53-.33A4.2,4.2,0,0,0,65,180.75c-.85,1,.07-.86.07-.86s-3.64.82-4.58,2.34c-.51.83-.44-.64-.44-.64a9.93,9.93,0,0,0-3.06,2.28c-.74.76-.29-.27-.29-.27s-2,.76-2.46,2.19c-.37,1.1-.3.36-.3.36s-1.29,1.53-1.19,2.16c.15.87-.6.82-.6.82s-1.36,2.67.29,3.68A13.35,13.35,0,0,1,55.83,195.8Z"/><path class="cls-8" d="M79.83,175.5a24.82,24.82,0,0,0,4.37,2.89c1,.33,5.31,2.47,5.31,2.47s1.07,2.14,4.41,1.62,4.19,1.15,5.51,1.14c1.88,0,3.17,2.24,4.8.77.54-.48-.38-1-.38-1s6.08,3,7.36,1.36c.48-.61-.3-.91-.3-.91s4.91,1.52,6.65,0c.62-.55-.49-1.1-.49-1.1s4.16.45,6.19-.92c1.16-.78-.41-1.43-.41-1.43s3.86-.22,4.8-1.32-.6-1.66-.6-1.66a31.92,31.92,0,0,0,5.36-.58c.91-.4-.44-1.39-.44-1.39s3.08,0,3.65-.43,0-1,0-1,3.91.53,4.21-.85c1.56-.72,2.8-.91,3.36-2.19-.84-1-2-.62-2.52-.92s-1-1.32-2.49-1.26c-.51,0-.84.46-1.08.28s.58-1.05.58-1.05-2.78-1.35-4.32-.54c-.89.47,1.06-1.25,1.06-1.25s-2.71-2.24-4.09-1.13c-.93.76.42-1.38.42-1.38s-1.59-.9-3.6.7c-.8.64,1-1.46,1-1.46s-3.83-1.82-5-1.48c-.47.13,1-1.53,1-1.53s-4.59-2.42-5.89-1.51c-.87.61.32-1.08.32-1.08s-3.07-1.94-5.21.21c-2.49-.13-1.3-2.06-1.3-2.06a11,11,0,0,0-7.69.41c-.66.3.26-1,.26-1s-4.44-2.12-7.37.13c-.48.37-.63-.47-.63-.47a5.28,5.28,0,0,0-5.22,1.05c-1.18,1.14.18-1.07.18-1.07s-4.65.62-6,2.41c-.74,1-.48-.84-.48-.84a12.44,12.44,0,0,0-4.09,2.5c-1,.86-.34-.38-.34-.38s-2.55.73-3.32,2.47c-.58,1.33-.42.41-.42.41s-1.78,1.76-1.72,2.57a6.7,6.7,0,0,1-.24,2.15s.45,5.5,2.4,6.95C80,174.81,79.83,175.5,79.83,175.5Z"/><path class="cls-8" d="M103.8,143.86a21,21,0,0,0,3.92,3.47c1.17.64,11.16,7.73,11.16,7.73s.89,2.92,5.21,3,5,2.36,6.68,2.62c2.37.38,3.49,3.51,5.86,2,.78-.49-.27-1.3-.27-1.3s7,5.06,9,3.29c.73-.65-.19-1.21-.19-1.21s5.85,3,8.38,1.43c.89-.55-.39-1.48-.39-1.48s5.13,1.46,8,.17c1.63-.73-.2-1.88-.2-1.88s4.89.56,6.32-.62-.4-2.23-.4-2.23,5.62.75,6.86.44-.25-1.85-.25-1.85,3.88.66,4.68.25.19-1.23.19-1.23,4.79,1.52,5.47-.15c2.12-.56,3.72-.54,4.7-2-.84-1.42-2.42-1.21-3-1.7s-.91-1.86-2.85-2.13c-.65-.08-1.16.41-1.43.13s1-1.2,1-1.2-3.2-2.3-5.32-1.6c-1.21.39,1.61-1.35,1.61-1.35s-2.93-3.4-4.89-2.3c-1.34.74.82-1.64.82-1.64s-1.81-1.48-4.67.09c-1.16.63,1.52-1.62,1.52-1.62s-4.42-3.12-6-3c-.61.06,1.62-1.71,1.62-1.71s-5.24-4-7.08-3.17c-1.22.58.63-1.29.63-1.29s-3.44-3.1-6.59-.86c-3.1-.7-1.18-2.87-1.18-2.87a14.13,14.13,0,0,0-9.76-1.15c-.89.24.53-1.2.53-1.2s-5.12-3.62-9.29-1.42c-.68.36-.69-.73-.69-.73a6.72,6.72,0,0,0-6.79.2c-1.72,1.17.46-1.31.46-1.31s-6-.23-8,1.73c-1.13,1.08-.42-1.16-.42-1.16a15.73,15.73,0,0,0-5.67,2.26c-1.47.86-.35-.54-.35-.54s-3.37.36-4.7,2.38c-1,1.55-.62.42-.62.42s-2.63,1.83-2.73,2.86c-.13,1.41-1.27,1-1.27,1s-4.51,7.12-2.37,9.37Z"/><path class="cls-8" d="M118.43,120.42s20,5.11,22.36,5c1.74-.11,1-1.52,1-1.52s3,2.61,7.85-.32,7.19-.88,9.23-1.75c2.89-1.23,6.32,1.45,7.9-1.87.52-1.08-1.21-1.25-1.21-1.25s11.28.72,12.23-2.6c.35-1.23-1.05-1.21-1.05-1.21s8.55-.78,10.27-4.26c.6-1.23-1.47-1.37-1.47-1.37s6.71-2,9-5.37c1.29-2-1.54-2-1.54-2s5.81-2.79,6.57-5.1-2-2.18-2-2.18,6.74-3.1,7.9-4.3-1.56-1.87-1.56-1.87,4.75-2,5.35-3-.64-1.5-.64-1.5,6.37-1.65,5.95-4c2-2.11,3.75-3.21,3.79-5.53-1.92-1-3.53.34-4.47.18s-2.31-1.43-4.64-.37c-.78.36-1,1.27-1.5,1.14-.69-.18.23-2,.23-2s-5.15-.32-7,1.93c-1.07,1.28.84-2.62.84-2.62s-5.61-1.71-7,.87c-1,1.76-.23-2.39-.23-2.39s-3-.38-5.11,3.36c-.84,1.51.56-2.86.56-2.86s-7.08-.38-8.74.93c-.64.51.6-3,.6-3s-8.62-.82-10.06,1.43c-.94,1.48-.2-1.88-.2-1.88s-6-1-7.9,3.64c-3.92,1.38-3.31-2.35-3.31-2.35A18.45,18.45,0,0,0,148.77,76c-.83.89-.25-1.7-.25-1.7s-8.2-.44-11.28,4.91c-.51.88-1.28-.33-1.28-.33s-5.3.18-7.39,5c-1.09,2.5-.39-1.77-.39-1.77s-6.78,3.92-7.71,7.53c-.5,2-1.27-1-1.27-1a20.63,20.63,0,0,0-4.72,6.46c-1,2-.75-.36-.75-.36s-3.49,2.74-3.56,5.92c0,2.43-.38.9-.38.9s-1.64,3.86-1,5.07c.83,1.64-.7,2-.7,2s.15,9.22,4.09,10.22Z"/><path class="cls-8" d="M102.7,107.94s-5.63-15-5.71-16.86c-.06-1.35,1.09-.91,1.09-.91s-2.26-2.11-.4-6.09.07-5.63.57-7.27c.71-2.34-1.64-4.76.78-6.26.79-.49,1.07.83,1.07.83s-1.5-8.66,1-9.66c.93-.38,1,.71,1,.71s-.12-6.67,2.43-8.29c.9-.58,1.18,1,1.18,1s1-5.34,3.4-7.38c1.39-1.16,1.63,1,1.63,1s1.67-4.72,3.39-5.5S116,44.65,116,44.65s1.83-5.46,2.66-6.46,1.58,1.05,1.58,1.05,1.13-3.84,1.86-4.39,1.21.37,1.21.37.74-5.06,2.57-4.93c1.47-1.68,2.16-3.16,3.95-3.39.93,1.4,0,2.76.23,3.47s1.31,1.67.68,3.56c-.21.63-.89.88-.75,1.25.19.52,1.52-.34,1.52-.34s.68,3.94-.9,5.57c-.9.93,2-.86,2-.86s1.8,4.18-.08,5.49c-1.28.89,1.87,0,1.87,0s.54,2.3-2.17,4.22c-1.09.78,2.16-.67,2.16-.67s.88,5.43,0,6.83c-.33.54,2.28-.72,2.28-.72s1.35,6.59-.26,7.89c-1.07.86,1.47,0,1.47,0s1.29,4.52-2.15,6.41c-.74,3.14,2.09,2.36,2.09,2.36a14.33,14.33,0,0,1-3.3,9.43c-.62.71,1.33,0,1.33,0s1,6.29-2.84,9.13c-.64.46.36,1,.36,1A6.85,6.85,0,0,1,130.11,97c-1.84,1,1.4.16,1.4.16s-2.46,5.56-5.17,6.58c-1.48.55.88.9.88.9a16.06,16.06,0,0,1-4.6,4.18c-1.44,1,.34.56.34.56s-1.83,2.92-4.27,3.24c-1.87.24-.67.37-.67.37s-2.84,1.59-3.82,1.22c-1.35-.5-1.5.71-1.5.71s-7.13.65-8.24-2.31C103,108.66,102.7,107.94,102.7,107.94Z"/><path class="cls-8" d="M74.41,139.28s-6.55-13-7.25-14.47c-.52-1.08.57-1.12.57-1.12s-2.57-.92-2.44-4.79-1.89-4.59-2.06-6.1c-.23-2.14-3-3.29-1.54-5.35.47-.67,1.16.3,1.16.3s-4.23-6.49-2.56-8.17c.62-.62,1.07.22,1.07.22s-2.4-5.37-.9-7.56c.53-.78,1.31.41,1.31.41S60.69,88,62,85.49c.73-1.43,1.69.27,1.69.27s-.29-4.41.83-5.64,2,.45,2,.45-.41-5.06-.08-6.16,1.64.3,1.64.3-.42-3.5,0-4.2,1.1-.12,1.1-.12S68,66,69.48,65.5c.6-1.87.66-3.31,2-4.12,1.23.82,1,2.22,1.39,2.74s1.63.89,1.78,2.64c0,.59-.42,1-.17,1.28s1.11-.81,1.11-.81,1.92,3,1.2,4.84c-.4,1.06,1.29-1.38,1.29-1.38S81,73.46,80,75.17c-.73,1.16,1.51-.66,1.51-.66s1.24,1.68-.29,4.18c-.62,1,1.51-1.29,1.51-1.29s2.61,4.09,2.38,5.53c-.08.55,1.6-1.37,1.6-1.37s3.39,4.87,2.53,6.48c-.57,1.06,1.19-.51,1.19-.51s2.62,3.22.48,5.94c.49,2.81,2.51,1.19,2.51,1.19a12.62,12.62,0,0,1,.6,8.79c-.25.79,1.1-.42,1.1-.42s3,4.75.86,8.39c-.35.59.63.65.63.65a6,6,0,0,1-.48,6.07c-1.12,1.49,1.19-.35,1.19-.35s-.06,5.36-1.91,7.13c-1,1,1,.43,1,.43a14.24,14.24,0,0,1-2.28,5c-.84,1.28.47.33.47.33s-.47,3-2.34,4.11c-1.43.85-.41.54-.41.54s-1.75,2.27-2.68,2.31c-1.27.06-1,1.1-1,1.1s-4.73,1.39-7.48,1A48.34,48.34,0,0,0,74.41,139.28Z"/><g class="cls-9"><polygon class="cls-10" points="111.49 7.35 6.75 67.82 6.75 67.82 111.49 128.28 216.22 67.82 216.22 67.82 111.49 7.35"/></g></g></svg>