<svg id="Layer_1" data-name="Layer 1" xmlns="http://www.w3.org/2000/svg" xmlns:xlink="http://www.w3.org/1999/xlink" viewBox="0 0 218.64 251.72"><defs><style>.cls-1{fill:none;}.cls-2{fill:#049948;}.cls-3{fill:#08aa4c;}.cls-4{clip-path:url(#clip-path);}.cls-5{fill:url(#linear-gradient);}.cls-6{opacity:0.18;}.cls-7{fill:#696a2c;}.cls-8{opacity:0.24;}.cls-9{fill:#e6e6e5;}.cls-10{clip-path:url(#clip-path-2);}.cls-11{fill:url(#linear-gradient-2);}</style><clipPath id="clip-path"><polygon class="cls-1" points="212.91 186.72 212.91 66.36 108.68 6.19 4.45 66.36 4.45 186.72 108.68 246.9 212.91 186.72"/></clipPath><linearGradient id="linear-gradient" x1="-126.15" y1="125.87" x2="255.49" y2="125.87" gradientUnits="userSpaceOnUse"><stop offset="0" stop-color="#009444"/><stop offset="0.32" stop-color="#009444"/><stop offset="0.38" stop-color="#069644"/><stop offset="0.46" stop-color="#179c43"/><stop offset="0.56" stop-color="#33a642"/><stop offset="0.66" stop-color="#5ab441"/><stop offset="0.77" stop-color="#8bc53f"/><stop offset="0.78" stop-color="#8dc63f"/></linearGradient><clipPath id="clip-path-2"><polygon class="cls-1" points="453.06 193.82 453.06 72.89 348.33 12.42 243.6 72.89 243.6 193.82 348.33 254.29 453.06 193.82"/></clipPath><linearGradient id="linear-gradient-2" x1="69.65" y1="119.96" x2="465.08" y2="119.96" xlink:href="#linear-gradient"/></defs><title>gcs-oak</title><polygon class="cls-2" points="1.45 188.45 1.45 64.63 108.68 2.72 215.91 64.63 215.91 188.45 108.68 250.36 1.45 188.45"/><path class="cls-3" d="M108.68,5.61,213.41,66.08V187L108.68,247.48,4,187V66.08L108.68,5.61m0-5.77-2.5,1.44L1.45,61.75-1,63.19V189.9l2.5,1.44,104.73,60.47,2.5,1.44,2.5-1.44,104.73-60.47,2.5-1.44V63.19l-2.5-1.44L111.18,1.28l-2.5-1.44Z"/><g class="cls-4"><rect class="cls-5" x="-126.15" y="3.53" width="381.63" height="244.68"/><path d="M-86.26,3.53V248.21H295.38V3.53ZM151.26,87c5.16,3,24.6.6,24.82,6.33s-10.47,2.43-8.68,6.22,5.25,4.19,5.26,6.2-13.54-1.62-21,.49-22.11,9.83-20.17,14.07c3,6.5,19.53,3.36,22.83,4.87,6.59,3,7.72,5.85,16.42,6.68-2.18,7.33-23.69,6.71-24.27,10.37s9.34,10.88,6.1,9.53a152.58,152.58,0,0,0-32.39-9.71c-13.07-2.75-25.86,4.53-24.46,9.66,1.88,6.93,9.75,8.24,15.73,11.89.16,2.09,2.42,4.79,9.25,9.74a73,73,0,0,0-21.77.4c-6.14,1.08-15.06-8.5-20.82-7.8-3.88.48-1.85,8.13-4.66,7.71-15.82-2.39-24.19-5.41-31-4.62-2.64,1.68-5,3.19-7.33,4.91a181.59,181.59,0,0,1-21.71,13.36,1.66,1.66,0,0,1-.8.2,1.76,1.76,0,0,1-.8-3.33,181.41,181.41,0,0,0,21.23-13.07c1-.77,2.09-1.48,3.15-2.19,8.47-15.09,7.38-21.57,5.51-39.57,7.08,2.08,11.46,6.8,14.07,7.32,4.16.82,8.67-3.65,7.58-7.94s-6.11-16.41-7.05-18.14,2.83,1.23,4.05-4.07.07-10.35,0-13.19,7.28,3.81,9.72,5.61,6.62,17.5,12.81,17.8C90.51,117.1,93,113,95.5,104.79S94,66,103.62,62.94s8.44,18.9,14.27,20c9.22,1.73,16.38-41.57,26.23-40.27-2.55,5.56-3.9,22.71.36,22.43,7.09-.46,13.09-14.23,13.63-17.82,1.83,2.46,2.73,6.09,4.51,6.07s4-3.53,6-5.4c.79-1.16,1.2-1.81,1.22-1.85a1.76,1.76,0,1,1,3,1.87c0,.06-.69,1.08-2,2.92-2,3.85-6.29,9.39-3.7,12.52,3.77,4.59,7.3,2.13,9.55,2.48S146.11,84,151.26,87Z"/></g><g class="cls-6"><polygon class="cls-7" points="108.68 126.81 108.68 247.74 213.41 187.28 213.41 187.28 213.41 66.34 108.68 126.81"/></g><g class="cls-8"><polygon class="cls-9" points="108.68 5.88 3.95 66.34 3.95 66.34 108.68 126.81 213.41 66.34 213.41 66.34 108.68 5.88"/></g><g class="cls-10"><rect class="cls-11" x="69.65" y="-3.32" width="395.43" height="246.57"/><path d="M69.65-3.32V243.25H465.08V-3.32ZM445.6,85c.42,2.32-6,4-6,4s1.24.49.64,1.5-5.36,3-5.36,3,2.72.67,1.57,1.87-7.9,4.3-7.9,4.3,2.75-.12,2,2.18-6.57,5.1-6.57,5.1,2.83,0,1.54,2c-2.26,3.41-9,5.37-9,5.37s2.07.14,1.46,1.37c-1.72,3.48-10.27,4.26-10.27,4.26s1.4,0,1.05,1.21c-.94,3.32-12.22,2.6-12.22,2.6s1.72.17,1.21,1.25c-1.59,3.32-5,.64-7.9,1.87-2,.87-4.4-1.18-9.23,1.75s-7.85.32-7.85.32a1.24,1.24,0,0,1,.06,1,13.6,13.6,0,0,1,1.53.88s-1.43,1.44-.53,1.2a14.09,14.09,0,0,1,9.75,1.15s-1.91,2.17,1.19,2.87c3.15-2.24,6.59.86,6.59.86s-1.85,1.87-.64,1.3c1.84-.87,7.08,3.16,7.08,3.16s-2.23,1.77-1.61,1.71c1.61-.17,6,3,6,3s-2.68,2.25-1.53,1.62c2.87-1.57,4.67-.09,4.67-.09s-2.15,2.38-.82,1.64c2-1.1,4.9,2.3,4.9,2.3s-2.82,1.74-1.61,1.35c2.12-.7,5.31,1.6,5.31,1.6s-1.33.8-.95,1.2.77-.21,1.42-.12c1.94.26,2.28,1.61,2.85,2.12s2.13.28,3,1.7c-1,1.49-2.57,1.47-4.7,2-.67,1.68-5.46.15-5.46.15s.6.82-.2,1.23-4.67-.25-4.67-.25,1.48,1.54.24,1.85-6.85-.44-6.85-.44,1.82,1.05.4,2.23-6.33.62-6.33.62,1.83,1.15.21,1.88c-2.85,1.29-8-.17-8-.17s1.28.93.38,1.48c-2.52,1.55-8.37-1.43-8.37-1.43s.92.56.19,1.22c-2,1.76-9-3.3-9-3.3s1,.81.27,1.3c-2.37,1.5-3.5-1.63-5.87-2-1.66-.26-2.36-2.55-6.67-2.62s-5.21-3-5.21-3-10-7.1-11.17-7.74a21,21,0,0,1-3.92-3.47l-1.4-1.48c-10.25-3.49-17,0-17.42.18-6.61,6.75-13.73,14.6-20.86,23.41a92.39,92.39,0,0,0,11-.71,5.89,5.89,0,0,0,.09-1.51c-.06-.81,1.73-2.57,1.73-2.57s-.16.92.42-.41c.77-1.74,3.32-2.47,3.32-2.47s-.68,1.24.34.38a12.47,12.47,0,0,1,4.08-2.5s-.25,1.82.48.84c1.34-1.79,6-2.4,6-2.4s-1.36,2.2-.19,1.06a5.28,5.28,0,0,1,5.22-1.05s.15.85.64.47c2.93-2.25,7.36-.13,7.36-.13s-.91,1.3-.25,1a11,11,0,0,1,7.69-.41s-1.19,1.93,1.3,2.06c2.13-2.15,5.2-.21,5.2-.21s-1.18,1.69-.32,1.08c1.31-.91,5.89,1.51,5.89,1.51s-1.48,1.66-1,1.53c1.23-.34,5.05,1.48,5.05,1.48s-1.77,2.1-1,1.46c2-1.6,3.6-.69,3.6-.69s-1.35,2.13-.42,1.37c1.38-1.1,4.09,1.13,4.09,1.13s-1.95,1.72-1.07,1.25c1.55-.81,4.33.54,4.33.54s-.93.8-.59,1.05.58-.26,1.09-.28c1.53-.06,2,.95,2.48,1.26s1.69-.06,2.53.92c-.56,1.28-1.8,1.47-3.37,2.19-.29,1.39-4.2.85-4.2.85s.58.55,0,1-3.64.43-3.64.43,1.35,1,.43,1.39a31.72,31.72,0,0,1-5.35.58s1.55.56.6,1.66-4.8,1.32-4.8,1.32,1.56.65.41,1.43c-2,1.37-6.2.92-6.2.92s1.12.56.5,1.1c-1.75,1.53-6.66,0-6.66,0s.78.31.31.91c-1.28,1.62-7.36-1.36-7.36-1.36s.91.49.38,1c-1.63,1.48-2.92-.79-4.8-.77-1.32,0-2.17-1.66-5.51-1.14a5,5,0,0,1-2.94-.32c-.28.41-.7,1-.45.94.95-.36,4.11.82,4.11.82s-1.25,1.79-.65,1.22a2.62,2.62,0,0,1,2.8-.81s-.92,1.79-.23,1.12c1-1,3.32.6,3.32.6s-1.42,1.51-.75,1.08c1.17-.76,3.47.11,3.47.11s-.68.7-.39.88.44-.26.84-.31c1.21-.15,1.64.61,2.06.82s1.33-.17,2.07.55c-.35,1.06-1.32,1.3-2.51,2-.14,1.11-3.27,1-3.27,1s.49.39.08.77a10.27,10.27,0,0,1-2.87.6s1.15.69.45,1.08a25.65,25.65,0,0,1-4.21.84s1.27.33.6,1.28-3.71,1.39-3.71,1.39,1.29.4.42,1.1c-1.51,1.24-4.84,1.18-4.84,1.18s.92.36.47.83c-1.28,1.35-5.28.49-5.28.49s.64.19.3.7c-.89,1.38-5.93-.54-5.93-.54s.76.32.37.74c-1.19,1.28-2.37-.42-3.86-.27-1.05.11-1.84-1.16-4.46-.51s-3.62-1-3.62-1a15.17,15.17,0,0,1-3.13,0c-1.1-.26-6.35-5.09-6.35-5.09a13.56,13.56,0,0,0-3-2.72h-.16a73.37,73.37,0,0,1-7.73-.55q-2.71,4.26-5.32,8.69a1.12,1.12,0,0,1-1,.55,1,1,0,0,1-.55-.16,1.1,1.1,0,0,1-.4-1.51c4.23-7.23,8.73-14.1,13.35-20.58a73.1,73.1,0,0,1-.77-11.59l-2.17-2.29s-8.86-9.34-9.49-10.68c-.46-1,.54-1,.54-1s-2.35-.84-2.19-4.39-1.67-4.22-1.81-5.6c-.19-2-2.7-3-1.34-4.9.44-.62,1.05.27,1.05.27s-3.8-5.95-2.24-7.5c.58-.58,1,.2,1,.2s-2.15-4.92-.74-7c.5-.72,1.2.37,1.2.37s-.93-4.28.28-6.58c.68-1.31,1.54.23,1.54.23s-.21-4,.84-5.18,1.81.41,1.81.41-.32-4.66,0-5.67,1.51.27,1.51.27-.34-3.22,0-3.86,1-.12,1-.12-1-4,.41-4.49c.58-1.73.65-3,1.92-3.8,1.13.74.88,2,1.25,2.51s1.49.81,1.6,2.42c0,.54-.4.94-.18,1.17s1-.75,1-.75,1.73,2.72,1,4.44c-.39,1,1.2-1.28,1.2-1.28s2.64,2.54,1.63,4.12c-.68,1.07,1.4-.62,1.4-.62s1.12,1.54-.32,3.84c-.58.93,1.41-1.19,1.41-1.19s2.34,3.75,2.12,5.07c-.09.5,1.49-1.27,1.49-1.27s3.05,4.46,2.24,5.94c-.54,1,1.1-.48,1.1-.48s2.37,3,.36,5.46c.42,2.58,2.3,1.08,2.3,1.08a11.59,11.59,0,0,1,.44,8.08c-.25.73,1-.4,1-.4s2.72,4.35.69,7.71c-.34.55.56.59.56.59a5.54,5.54,0,0,1-.52,5.59c-1.05,1.38,1.1-.33,1.1-.33s-.12,4.93-1.84,6.56c-.95.89.93.39.93.39a13.36,13.36,0,0,1-2.16,4.59c-.79,1.18.43.3.43.3s-.47,2.77-2.21,3.79c-1.33.79-.38.5-.38.5s-1.64,2.1-2.5,2.14c-1.16.06-.9,1-.9,1s-3.59,1.94-5.79,1.51a79.38,79.38,0,0,0,.56,8.3A321.54,321.54,0,0,1,305.06,156c-.31-2.93-.85-9.31-.2-12.88-1.63-3.23-6.09-12.11-6.66-13.3s.57-1.12.57-1.12-2.57-.92-2.45-4.79-1.89-4.59-2.05-6.1c-.24-2.14-3-3.29-1.54-5.35.47-.67,1.15.3,1.15.3s-4.22-6.49-2.56-8.17c.63-.62,1.08.22,1.08.22s-2.41-5.37-.9-7.56c.53-.78,1.31.41,1.31.41s-1.09-4.66.19-7.16c.73-1.43,1.68.27,1.68.27s-.28-4.41.84-5.64,2,.45,2,.45-.41-5.06-.08-6.16,1.64.31,1.64.31-.42-3.51,0-4.21,1.11-.12,1.11-.12-1.15-4.36.38-4.89c.6-1.87.65-3.31,2-4.12,1.24.82,1,2.22,1.4,2.74s1.63.89,1.78,2.65c0,.58-.42,1-.18,1.27s1.12-.81,1.12-.81,1.92,3,1.2,4.84c-.41,1.06,1.28-1.38,1.28-1.38s2.91,2.77,1.84,4.48c-.72,1.16,1.51-.66,1.51-.66s1.25,1.68-.29,4.18c-.61,1,1.52-1.29,1.52-1.29s2.6,4.09,2.38,5.53c-.08.55,1.6-1.37,1.6-1.37s3.38,4.87,2.52,6.48c-.56,1.06,1.2-.51,1.2-.51s2.62,3.22.47,5.94c.5,2.81,2.52,1.19,2.52,1.19a12.69,12.69,0,0,1,.6,8.79c-.26.79,1.1-.42,1.1-.42s3,4.75.86,8.39c-.36.6.62.65.62.65a6,6,0,0,1-.47,6.07c-1.13,1.5,1.19-.35,1.19-.35s-.06,5.36-1.91,7.13c-1,1,1,.43,1,.43a14.07,14.07,0,0,1-2.27,5,2.08,2.08,0,0,0-.22.39c2-1.91,3.95-3.67,5.77-5.3-.39-3.12,3.54-10.46,4.35-11.94a.83.83,0,0,1,.66-.43,2.1,2.1,0,0,1-.21-.39l-1.76-4.72s-5.63-15-5.71-16.86c-.06-1.35,1.09-.91,1.09-.91s-2.27-2.11-.41-6.09.08-5.63.58-7.27c.71-2.34-1.65-4.76.78-6.26.79-.49,1.07.83,1.07.83s-1.5-8.66,1-9.66c.93-.38,1,.71,1,.71s-.11-6.67,2.43-8.29c.91-.58,1.19,1,1.19,1s.95-5.34,3.4-7.37c1.39-1.17,1.63,1,1.63,1s1.67-4.72,3.38-5.5S347,49.62,347,49.62s1.83-5.46,2.66-6.46,1.58,1.05,1.58,1.05,1.12-3.84,1.86-4.39,1.2.37,1.2.37.75-5.06,2.58-4.93c1.46-1.68,2.16-3.16,3.95-3.39.93,1.4,0,2.76.23,3.48s1.3,1.66.68,3.55c-.21.63-.89.88-.76,1.25.2.52,1.53-.34,1.53-.34s.68,3.94-.9,5.57c-.91.93,1.95-.86,1.95-.86s1.79,4.18-.09,5.49c-1.27.89,1.87,0,1.87,0s.55,2.3-2.16,4.22c-1.1.78,2.16-.67,2.16-.67s.88,5.43,0,6.83c-.34.54,2.27-.71,2.27-.71s1.36,6.59-.26,7.88c-1.06.86,1.48,0,1.48,0s1.29,4.52-2.16,6.41c-.74,3.14,2.09,2.36,2.09,2.36a14.75,14.75,0,0,1-1.94,7.54H367s.77,1.21,1.28.33c3.08-5.35,11.28-4.91,11.28-4.91s-.58,2.59.25,1.7a18.45,18.45,0,0,1,11.61-5.53s-.61,3.74,3.31,2.35c1.93-4.67,7.9-3.64,7.9-3.64s-.74,3.36.2,1.88c1.44-2.25,10.06-1.43,10.06-1.43s-1.24,3.52-.6,3c1.66-1.31,8.73-.93,8.73-.93s-1.39,4.37-.56,2.86c2.09-3.74,5.11-3.36,5.11-3.36s-.72,4.15.24,2.39c1.42-2.58,7-.87,7-.87s-1.9,3.9-.83,2.62c1.86-2.25,7-1.93,7-1.93s-.92,1.82-.23,2c.49.13.71-.78,1.49-1.13,2.33-1.07,3.66.2,4.64.36s2.56-1.17,4.48-.18C449.35,81.76,447.56,82.86,445.6,85Z"/><rect x="69.65" y="243.25" width="395.43" height="50.81"/></g></svg>