<svg id="Layer_1" data-name="Layer 1" xmlns="http://www.w3.org/2000/svg" xmlns:xlink="http://www.w3.org/1999/xlink" viewBox="0 0 219.5 254.31"><defs><style>.cls-1{fill:none;}.cls-2{fill:#049948;}.cls-3{fill:#08aa4c;}.cls-4{clip-path:url(#clip-path);}.cls-5{fill:url(#linear-gradient);}.cls-6{clip-path:url(#clip-path-2);}.cls-7{fill:url(#linear-gradient-2);}.cls-8{fill:#99ca3e;}.cls-9{opacity:0.18;}.cls-10{fill:#696a2c;}.cls-11{opacity:0.24;}.cls-12{fill:#e6e6e5;}</style><clipPath id="clip-path"><polygon class="cls-1" points="-25.59 180.53 -25.59 60.18 -129.82 0 -234.05 60.18 -234.05 180.53 -129.82 240.71 -25.59 180.53"/></clipPath><linearGradient id="linear-gradient" x1="-364.65" y1="119.69" x2="16.99" y2="119.69" gradientUnits="userSpaceOnUse"><stop offset="0" stop-color="#009444"/><stop offset="0.32" stop-color="#009444"/><stop offset="0.38" stop-color="#069644"/><stop offset="0.46" stop-color="#179c43"/><stop offset="0.56" stop-color="#33a642"/><stop offset="0.66" stop-color="#5ab441"/><stop offset="0.77" stop-color="#8bc53f"/><stop offset="0.78" stop-color="#8dc63f"/></linearGradient><clipPath id="clip-path-2"><polygon class="cls-1" points="214.56 187.64 214.56 66.7 109.83 6.24 5.1 66.7 5.1 187.64 109.83 248.1 214.56 187.64"/></clipPath><linearGradient id="linear-gradient-2" x1="-168.85" y1="113.77" x2="226.58" y2="113.77" xlink:href="#linear-gradient"/></defs><title>gcs-elm</title><polygon class="cls-2" points="2.6 189.08 2.6 65.26 109.83 3.35 217.06 65.26 217.06 189.08 109.83 250.99 2.6 189.08"/><path class="cls-3" d="M109.83,6.24,214.57,66.7V187.64L109.83,248.1,5.1,187.64V66.7L109.83,6.24m0-5.78-2.5,1.45L2.6,62.37.1,63.82v126.7L2.6,192l104.73,60.46,2.5,1.45,2.5-1.45L217.07,192l2.5-1.45V63.82l-2.5-1.45L112.33,1.91,109.83.46Z"/><g class="cls-4"><rect class="cls-5" x="-364.65" y="-2.66" width="381.63" height="244.68"/><path d="M-324.76-2.66V242H56.88V-2.66ZM-87.24,80.82c5.16,3,24.6.61,24.82,6.33s-10.47,2.43-8.68,6.23,5.25,4.19,5.26,6.19-13.54-1.62-21,.49-22.11,9.83-20.17,14.07c3,6.51,19.53,3.37,22.83,4.87,6.59,3,7.72,5.85,16.42,6.68C-69.9,133-91.41,132.39-92,136.06s9.34,10.87,6.1,9.52a153.2,153.2,0,0,0-32.39-9.71c-13.07-2.75-25.86,4.53-24.46,9.67,1.88,6.92,9.75,8.23,15.73,11.88.16,2.1,2.42,4.8,9.25,9.74a72.59,72.59,0,0,0-21.77.41c-6.14,1.07-15.06-8.51-20.82-7.81-3.88.48-1.85,8.13-4.66,7.71-15.82-2.39-24.19-5.41-31-4.62-2.64,1.68-5,3.2-7.33,4.91A184,184,0,0,1-225,181.13a1.77,1.77,0,0,1-.8.19,1.74,1.74,0,0,1-1.56-1,1.76,1.76,0,0,1,.76-2.37,178.3,178.3,0,0,0,21.23-13.07c1-.76,2.09-1.48,3.15-2.19,8.47-15.09,7.38-21.57,5.51-39.57,7.08,2.09,11.46,6.81,14.07,7.32,4.16.82,8.67-3.64,7.58-7.94s-6.11-16.4-7-18.14,2.83,1.23,4-4.06.07-10.36,0-13.2,7.28,3.81,9.72,5.61,6.62,17.5,12.81,17.8c7.56.36,10.07-3.78,12.55-12s-1.52-38.76,8.12-41.84,8.44,18.89,14.27,20c9.22,1.73,16.38-41.57,26.23-40.27-2.55,5.56-3.9,22.71.36,22.44,7.09-.46,13.09-14.24,13.63-17.83,1.83,2.46,2.73,6.09,4.51,6.07s4-3.53,6-5.4c.79-1.16,1.2-1.8,1.22-1.85a1.76,1.76,0,0,1,2.43-.55,1.75,1.75,0,0,1,.55,2.42c0,.06-.69,1.08-2,2.92-2,3.85-6.29,9.39-3.7,12.53,3.77,4.58,7.3,2.13,9.55,2.47S-92.39,77.84-87.24,80.82Z"/></g><g class="cls-6"><rect class="cls-7" x="-168.85" y="-9.51" width="395.43" height="246.57"/><path d="M73.24,138.49a44,44,0,0,0-5.32-.41,64.39,64.39,0,0,0,.23,9.94c3.18-3.48,6.3-6.74,9.3-9.77A14.24,14.24,0,0,1,73.24,138.49Z"/><path d="M98.19,112.76a.88.88,0,0,1-.1.35,45.22,45.22,0,0,0-4,9.44c3.25-2.86,6.06-5.22,8.3-7a10.7,10.7,0,0,1-.76-1.79A8.69,8.69,0,0,1,98.19,112.76Z"/><path d="M80.34,138.48a25.86,25.86,0,0,1,12.65.27c-.78-2.8,2.83-8.5,2.83-8.5s1.14.39,1.27-1c.1-1,2.73-2.86,2.73-2.86s-.41,1.12.61-.43c1.34-2,4.71-2.38,4.71-2.38s-1.13,1.41.34.54a16.05,16.05,0,0,1,5.68-2.26s-.71,2.24.42,1.17c1.79-1.7,6.53-1.76,7.75-1.74-4.52-1.09-8.37-2.08-8.37-2.08l-6.27-1.6a2.77,2.77,0,0,1-.9-.43C98.58,121.43,90.15,128.67,80.34,138.48Z"/><path d="M126.64,123.12l.22-.09-.84-.18C126.1,123.09,126.27,123.32,126.64,123.12Z"/><path d="M119.16,122.59a6,6,0,0,1,2-.88l-1.57-.37C119.28,121.68,117.58,123.66,119.16,122.59Z"/><path d="M44.64,187.91s.75.06.6-.81c-.11-.64,1.19-2.17,1.19-2.17s-.07.75.3-.35c.48-1.44,2.46-2.2,2.46-2.2s-.46,1,.29.27a10,10,0,0,1,3.06-2.27s-.07,1.46.44.63c.93-1.51,4.58-2.34,4.58-2.34s-.92,1.85-.07.86a4.2,4.2,0,0,1,4.07-1.21s.17.66.53.33c2.16-2,5.84-.64,5.84-.64s-.63,1.1-.13.81a8.81,8.81,0,0,1,6.07-.87s-.81,1.61,1.18,1.53c1.54-1.85,4.11-.54,4.11-.54s-.81,1.43-.17.89,2.18-.12,3.38.26a2.35,2.35,0,0,1-.33-.44s-4.31-2.14-5.3-2.48a24.26,24.26,0,0,1-4.37-2.89s.13-.68-2.5-2.65c-1.4-1-2-4.13-2.27-5.81a107.84,107.84,0,0,1-12.38.71c-5.68,7.13-11.33,14.86-16.71,23.15,1.75.19,3.82.36,5.61.42A5.11,5.11,0,0,1,44.64,187.91Z"/><path class="cls-8" d="M82.37,180.09a3.29,3.29,0,0,0,1.15.85l.25-.34S83.16,180.34,82.37,180.09Z"/><path class="cls-8" d="M126,122.39a7.21,7.21,0,0,0-4.81-.68c1.64.4,3.32.78,4.88,1.14A1.74,1.74,0,0,1,126,122.39Z"/><path class="cls-8" d="M126.86,123a43.35,43.35,0,0,0,6.47,1.14c.63,0,.93-.26,1.07-.51C132.61,122.78,129.56,121.74,126.86,123Z"/><path class="cls-8" d="M119.62,121.29h-.29l.24.06Z"/><path d="M-168.85-9.51V237.06H226.58V-9.51Zm376,88.29c.42,2.32-5.95,4-5.95,4s1.24.48.64,1.49-5.36,3-5.36,3,2.72.67,1.57,1.87-7.9,4.3-7.9,4.3,2.75-.12,2,2.19-6.57,5.09-6.57,5.09,2.83,0,1.54,2c-2.26,3.41-9,5.37-9,5.37s2.07.14,1.46,1.38c-1.72,3.48-10.27,4.26-10.27,4.26s1.4,0,1.05,1.21c-.94,3.32-12.22,2.59-12.22,2.59s1.72.18,1.21,1.26c-1.59,3.31-5,.63-7.9,1.86-2,.87-4.4-1.18-9.23,1.75s-7.85.33-7.85.33a1.22,1.22,0,0,1,.06,1,13.6,13.6,0,0,1,1.53.88s-1.43,1.44-.53,1.2a14.07,14.07,0,0,1,9.75,1.16s-1.91,2.16,1.19,2.86c3.15-2.23,6.59.86,6.59.86s-1.85,1.87-.64,1.3c1.84-.87,7.08,3.17,7.08,3.17s-2.23,1.77-1.61,1.7c1.61-.17,6,3,6,3s-2.68,2.25-1.53,1.62c2.87-1.57,4.67-.09,4.67-.09s-2.15,2.39-.82,1.64c2-1.09,4.9,2.3,4.9,2.3s-2.82,1.75-1.61,1.35c2.12-.69,5.31,1.61,5.31,1.61s-1.33.8-1,1.19.77-.21,1.42-.12c1.94.26,2.28,1.62,2.85,2.13s2.13.28,3,1.7c-1,1.48-2.57,1.46-4.7,2-.67,1.67-5.46.15-5.46.15s.6.81-.2,1.22-4.67-.24-4.67-.24,1.48,1.54.24,1.84-6.85-.43-6.85-.43,1.82,1,.4,2.22-6.33.62-6.33.62,1.83,1.15.21,1.89c-2.85,1.28-8-.18-8-.18s1.28.93.38,1.48c-2.52,1.55-8.37-1.42-8.37-1.42s.92.55.19,1.21c-2,1.76-9-3.3-9-3.3s1,.82.27,1.3c-2.37,1.5-3.5-1.62-5.87-2-1.66-.27-2.36-2.56-6.67-2.63s-5.21-3-5.21-3-10-7.1-11.17-7.73a21.33,21.33,0,0,1-3.92-3.47s0,0-1.4-1.48c-10.25-3.49-17,0-17.42.17-6.61,6.76-13.73,14.6-20.86,23.42a90.38,90.38,0,0,0,11-.72,5.89,5.89,0,0,0,.09-1.51c-.06-.81,1.73-2.57,1.73-2.57s-.16.92.42-.41c.77-1.74,3.32-2.46,3.32-2.46s-.68,1.23.34.37a12.47,12.47,0,0,1,4.08-2.5s-.25,1.82.48.84c1.34-1.78,6-2.4,6-2.4s-1.36,2.2-.19,1.07a5.27,5.27,0,0,1,5.22-1.06s.15.85.64.48c2.93-2.26,7.36-.14,7.36-.14s-.91,1.3-.25,1a11,11,0,0,1,7.69-.41s-1.19,1.93,1.3,2.06c2.13-2.14,5.2-.21,5.2-.21s-1.18,1.69-.32,1.09c1.31-.92,5.89,1.51,5.89,1.51s-1.48,1.66-1,1.52c1.23-.34,5,1.49,5,1.49s-1.77,2.09-1,1.45a3.3,3.3,0,0,1,3.6-.69s-1.35,2.13-.42,1.38c1.38-1.11,4.09,1.12,4.09,1.12s-2,1.72-1.07,1.26c1.55-.82,4.33.53,4.33.53s-.93.8-.59,1.06.58-.27,1.09-.29c1.53-.06,2,.95,2.48,1.26s1.69-.06,2.53.93c-.56,1.27-1.8,1.47-3.37,2.19-.29,1.38-4.2.84-4.2.84s.58.55,0,1-3.64.43-3.64.43,1.35,1,.43,1.4-5.35.57-5.35.57,1.55.56.6,1.67-4.8,1.31-4.8,1.31,1.56.65.41,1.43c-2,1.37-6.2.93-6.2.93s1.12.55.5,1.09c-1.75,1.54-6.66,0-6.66,0s.78.31.31.91c-1.28,1.62-7.36-1.35-7.36-1.35s.91.49.38,1c-1.63,1.47-2.92-.8-4.8-.78-1.32,0-2.17-1.66-5.51-1.14a5,5,0,0,1-2.94-.32c-.28.42-.7,1-.45.95,1-.37,4.11.81,4.11.81s-1.25,1.79-.65,1.22a2.62,2.62,0,0,1,2.8-.81s-.92,1.79-.23,1.13c1-1,3.32.59,3.32.59s-1.42,1.51-.75,1.08c1.17-.76,3.47.11,3.47.11s-.68.7-.39.88.44-.25.84-.31c1.21-.15,1.64.61,2.06.83s1.33-.18,2.07.55c-.35,1.05-1.32,1.29-2.51,2-.14,1.12-3.27,1-3.27,1s.49.39.08.77a10,10,0,0,1-2.87.61s1.15.68.45,1.07a25.65,25.65,0,0,1-4.21.84s1.27.34.6,1.28-3.71,1.39-3.71,1.39,1.29.4.42,1.11c-1.51,1.23-4.84,1.17-4.84,1.17s.92.36.47.84c-1.28,1.34-5.28.49-5.28.49s.64.18.3.7c-.89,1.38-5.93-.55-5.93-.55s.76.32.37.74c-1.19,1.29-2.37-.42-3.86-.27-1.05.11-1.84-1.16-4.46-.5s-3.62-1-3.62-1a15.73,15.73,0,0,1-3.13,0c-1.1-.27-6.35-5.1-6.35-5.1a13.4,13.4,0,0,0-3-2.71h-.16a76.7,76.7,0,0,1-7.73-.54q-2.72,4.24-5.32,8.68a1.12,1.12,0,0,1-1,.55,1.11,1.11,0,0,1-1-1.67c4.23-7.23,8.73-14.09,13.35-20.57a73.24,73.24,0,0,1-.77-11.6l-2.17-2.29s-8.86-9.34-9.49-10.68c-.46-1,.54-1,.54-1s-2.35-.84-2.19-4.39-1.67-4.21-1.81-5.6c-.19-2-2.7-3-1.34-4.9.44-.62,1.05.27,1.05.27s-3.8-5.95-2.24-7.5c.58-.58,1,.2,1,.2s-2.15-4.92-.74-7c.5-.72,1.2.37,1.2.37s-.93-4.28.28-6.58c.68-1.31,1.54.24,1.54.24s-.21-4,.84-5.19,1.81.41,1.81.41-.32-4.66,0-5.66,1.51.27,1.51.27-.34-3.22,0-3.87,1-.11,1-.11-1-4,.41-4.5c.58-1.73.65-3,1.92-3.8,1.13.74.88,2,1.25,2.51s1.49.81,1.6,2.42c0,.54-.4.94-.18,1.17s1-.74,1-.74,1.73,2.71,1,4.43c-.39,1,1.2-1.27,1.2-1.27s2.64,2.53,1.63,4.11c-.68,1.07,1.4-.62,1.4-.62s1.12,1.54-.32,3.85c-.58.93,1.41-1.2,1.41-1.2s2.34,3.75,2.12,5.07c-.09.51,1.49-1.27,1.49-1.27s3.05,4.46,2.24,6c-.54,1,1.1-.48,1.1-.48s2.37,2.94.36,5.46c.42,2.58,2.3,1.08,2.3,1.08a11.57,11.57,0,0,1,.44,8.07c-.25.73,1-.39,1-.39s2.72,4.34.69,7.7c-.34.55.56.6.56.6a5.52,5.52,0,0,1-.52,5.58c-1,1.38,1.1-.33,1.1-.33s-.12,4.93-1.84,6.56c-1,.9.93.39.93.39a13.36,13.36,0,0,1-2.16,4.59c-.79,1.18.43.31.43.31s-.47,2.76-2.21,3.79c-1.33.79-.38.49-.38.49s-1.64,2.1-2.5,2.14c-1.16.06-.9,1-.9,1s-3.59,2-5.79,1.51a79.38,79.38,0,0,0,.56,8.3,321.54,321.54,0,0,1,21.49-26.45c-.31-2.93-.85-9.31-.2-12.88-1.63-3.23-6.09-12.1-6.66-13.3s.57-1.11.57-1.11-2.57-.93-2.45-4.8-1.89-4.59-2-6.1c-.24-2.14-3-3.28-1.54-5.34.47-.67,1.15.3,1.15.3s-4.22-6.5-2.56-8.17c.63-.63,1.08.22,1.08.22S51.49,93.22,53,91c.53-.78,1.31.41,1.31.41s-1.09-4.66.19-7.16c.73-1.42,1.68.27,1.68.27s-.28-4.41.84-5.64,2,.46,2,.46-.41-5.07-.08-6.17,1.64.31,1.64.31-.42-3.51,0-4.2,1.11-.13,1.11-.13-1.15-4.36.38-4.88c.6-1.88.65-3.32,2-4.13,1.24.82,1,2.23,1.4,2.74s1.63.9,1.78,2.65c0,.58-.42,1-.18,1.27s1.12-.8,1.12-.8,1.92,3,1.2,4.83c-.41,1.07,1.28-1.38,1.28-1.38s2.91,2.77,1.84,4.49c-.72,1.16,1.51-.67,1.51-.67s1.25,1.68-.29,4.18c-.61,1,1.52-1.29,1.52-1.29s2.6,4.1,2.38,5.53c-.08.55,1.6-1.37,1.6-1.37s3.38,4.87,2.52,6.49c-.56,1.06,1.2-.52,1.2-.52s2.62,3.22.47,5.94c.5,2.81,2.52,1.19,2.52,1.19a12.71,12.71,0,0,1,.6,8.8c-.26.79,1.1-.43,1.1-.43s3,4.75.86,8.39c-.36.6.62.65.62.65a6,6,0,0,1-.47,6.08c-1.13,1.49,1.19-.36,1.19-.36s-.06,5.37-1.91,7.13c-1,1,1,.43,1,.43a14.07,14.07,0,0,1-2.27,5,2.46,2.46,0,0,0-.22.39c2-1.91,3.95-3.67,5.77-5.3-.39-3.12,3.54-10.46,4.35-11.94a.88.88,0,0,1,.66-.43,1.83,1.83,0,0,1-.21-.39l-1.76-4.72s-5.63-15-5.71-16.85c-.06-1.36,1.09-.91,1.09-.91s-2.27-2.12-.41-6.09.08-5.63.58-7.28c.71-2.33-1.65-4.76.78-6.26.79-.49,1.07.83,1.07.83s-1.5-8.65,1-9.66c.93-.37,1,.71,1,.71s-.11-6.67,2.43-8.29c.91-.57,1.19,1,1.19,1s.95-5.34,3.4-7.37c1.39-1.16,1.63,1,1.63,1s1.67-4.73,3.38-5.51,1.86,1.36,1.86,1.36S110.36,38,111.19,37,112.77,38,112.77,38s1.12-3.83,1.86-4.38,1.2.36,1.2.36.75-5.05,2.58-4.92c1.46-1.69,2.16-3.17,4-3.4.93,1.41,0,2.76.23,3.48s1.3,1.66.68,3.55c-.21.64-.89.88-.76,1.25s1.53-.34,1.53-.34.68,4-.9,5.58c-.91.93,2-.87,2-.87s1.79,4.19-.09,5.5c-1.27.88,1.87,0,1.87,0s.55,2.31-2.16,4.23c-1.1.77,2.16-.67,2.16-.67s.88,5.43,0,6.82c-.34.54,2.27-.71,2.27-.71s1.36,6.59-.26,7.89c-1.06.85,1.48,0,1.48,0s1.29,4.53-2.16,6.41c-.74,3.15,2.09,2.36,2.09,2.36a14.75,14.75,0,0,1-1.94,7.54h.14s.77,1.21,1.28.33c3.08-5.35,11.28-4.91,11.28-4.91s-.58,2.6.25,1.7a18.47,18.47,0,0,1,11.61-5.52s-.61,3.73,3.31,2.34c1.93-4.67,7.9-3.64,7.9-3.64s-.74,3.36.2,1.88c1.44-2.24,10.06-1.42,10.06-1.42s-1.24,3.51-.6,3c1.66-1.31,8.73-.93,8.73-.93s-1.39,4.36-.56,2.85c2.09-3.74,5.11-3.36,5.11-3.36s-.72,4.15.24,2.4c1.42-2.59,7-.87,7-.87s-1.9,3.9-.83,2.61c1.86-2.24,7-1.92,7-1.92s-.92,1.82-.23,2c.49.13.71-.78,1.49-1.13,2.33-1.07,3.66.2,4.64.37s2.56-1.18,4.48-.19C210.85,75.57,209.06,76.67,207.1,78.78Z"/><rect x="-168.85" y="237.06" width="395.43" height="50.81"/></g><g class="cls-9"><polygon class="cls-10" points="109.36 127.17 109.36 248.1 214.09 187.64 214.09 187.64 214.09 66.7 109.36 127.17"/></g><g class="cls-11"><polygon class="cls-12" points="109.36 6.24 4.63 66.7 4.63 66.7 109.36 127.17 214.09 66.7 214.09 66.7 109.36 6.24"/></g></svg>