<svg id="Layer_1" data-name="Layer 1" xmlns="http://www.w3.org/2000/svg" xmlns:xlink="http://www.w3.org/1999/xlink" viewBox="0 0 220.55 254.5"><defs><style>.cls-1{fill:none;}.cls-2{fill:#049948;}.cls-3{fill:#08aa4c;}.cls-4{clip-path:url(#clip-path);}.cls-5{clip-path:url(#clip-path-2);}.cls-6{fill:url(#linear-gradient);}.cls-7{fill:#99ca3e;}.cls-8{opacity:0.18;}.cls-9{fill:#696a2c;}.cls-10{opacity:0.24;}.cls-11{fill:#e6e6e5;}</style><clipPath id="clip-path"><polygon class="cls-1" points="449.62 -66.68 449.62 -187.61 344.88 -248.08 240.15 -187.61 240.15 -66.68 344.88 -6.21 449.62 -66.68"/></clipPath><clipPath id="clip-path-2"><polygon class="cls-1" points="215.19 186.84 215.19 65.91 110.46 5.44 5.73 65.91 5.73 186.84 110.46 247.31 215.19 186.84"/></clipPath><linearGradient id="linear-gradient" x1="-172.56" y1="125.21" x2="222.87" y2="125.21" gradientUnits="userSpaceOnUse"><stop offset="0" stop-color="#009444"/><stop offset="0.32" stop-color="#009444"/><stop offset="0.38" stop-color="#069644"/><stop offset="0.46" stop-color="#179c43"/><stop offset="0.56" stop-color="#33a642"/><stop offset="0.66" stop-color="#5ab441"/><stop offset="0.77" stop-color="#8bc53f"/><stop offset="0.78" stop-color="#8dc63f"/></linearGradient></defs><title>gcs-riverbirch</title><polygon class="cls-2" points="3.23 189.29 3.23 65.47 110.46 3.56 217.69 65.47 217.69 189.29 110.46 251.21 3.23 189.29"/><path class="cls-3" d="M110.46,6.45,215.19,66.92V187.85L110.46,248.32,5.73,187.85V66.92L110.46,6.45m0-5.77L108,2.12,3.23,62.59.73,64V190.74l2.5,1.44L108,252.65l2.5,1.44,2.5-1.44,104.73-60.47,2.5-1.44V64l-2.5-1.44L113,2.12,110.46.68Z"/><g class="cls-4"><rect x="66.2" y="-17.25" width="395.43" height="50.81"/></g><g class="cls-5"><rect class="cls-6" x="-172.56" y="-8.78" width="395.43" height="267.98"/><path d="M151.89,72a1.48,1.48,0,0,0,.25.14c-.06-.46-.13-1-.19-1.61C151.72,71,151.21,71.47,151.89,72Z"/><path d="M80.08,155.66a27.32,27.32,0,0,0,1.58-4c.26-1,.7-3.14,1.15-4.76-4,3.8-8,7.61-11.87,11.32A30.82,30.82,0,0,1,80.08,155.66Z"/><path d="M131.68,87.59c-.51,1.89-1,4-1.34,6a64.58,64.58,0,0,1,6.77-6.83l-1.1,0A26.27,26.27,0,0,0,131.68,87.59Z"/><path d="M152,75.27l.22-.16a1,1,0,0,0,0-.17C152,75,151.89,75.1,152,75.27Z"/><path d="M122.3,111.34c.29-1.08.79-3.61,1.3-5.26-3.29,3.64-7.82,8.36-13.14,13.73a59.16,59.16,0,0,1,10.24-4.43A27.34,27.34,0,0,0,122.3,111.34Z"/><path d="M-195.56-6.64V259.2h419V-6.64Zm379,61.37a5.79,5.79,0,0,0-1.6,1.75c-.52.85,1.61-.45.73.27s-1.6.71-1.88,2,1-.54.14.83-1.61,1.23-1.82,1.81,1.27.46.73,1-1.23.59-1.6,1.63,1.28.72.47,1-1,.8-1.92,1.9,1.05.77.1,1-1.42,1.1-1.71,2.16,1,1.08.37,1.11-1.56,1.19-3,1.82c-.89.39.51.83.05,2-.2.52-.75.24-1.29.44s.28.36-.12.47-.44-.22-.86-.05.46.3.29.63-.43,0-.77.56.8,1.33.61,1.72-.49.08-1.08,0,.12.37-.05.57-.49-.37-.85-.51.22.54-.23.63-.37-.39-.76-.47-.08.49-.25.69-.5-.31-1.05-.51-.3.41-.43.75-.53-.52-.46.29,1.35,1.79,1.11,1.9-.59-.22-.82-.3-.19.38-.44.49-.17-.39-.71-.59,0,.47-.37.45-.49-.63-1.26-.78.26.55-.28.61-.6-.48-1-.57.5,1.61-.6.37-1.64-.6-2-.72a3.93,3.93,0,0,1-1.28-.85,3.25,3.25,0,0,0-1.73-.63c-.73-.14-2.12-2.27-2.12-2.27a2.49,2.49,0,0,0-.57-.33c-1.4,1-2.9,2-4.45,3.17a.54.54,0,0,0,0,.1c.61,1,1.32.75,1.65,1.25s-1.82.39-1.38.91-2.46.77-1.72,1.35-2.53.94-2.11,1.43-3.13.17-2.73.92c.19.35-.8.51-2.08.59-5.23,4.42-9.72,9-11.11,12.33,0,.08-.09.19-.14.28.36-.61.74-1.32,1-1,.47.59.83-1.77,1.3-1.29s0,1.18,1,2.07,1.42-.71,2-.11,1.24-1.83,1.71-1.24,1.49-2.29,2.25-1.29.84-2.12,1.31-1.29,1.42-1.29,2.19-1.23-.48,2.24.16,3.48,1.66-.23,2.25.37,1.53-.94,1.65-.35,1.6-1.23,2.54-.88.71,1.42.94,2.72.88-.17,1.47.66,1.9-.82,2.07-.17,1.66-1.29,2.42-.52.35,1.77.7,2.72,1.18-.47,1.18.48,1.54-1.18,1.6-.41.94-.23,1.41.12.72-.7,1.28-.13-.34.67-.05,2.15,4.56-.1,3.9.66-.36,1-.12,1.66,3.31-.94,3.19-.46.05,1.12-.07,1.71.89-.65,1.13.06,2.66-.87,2.3-.4,0,.71.05,1.24,1.66.12,3-.17.76.3-.07,1.24,1.66-.23,2.6-.34-.41.65-.12,1,3.55-.34,3.14,0-2.55,1-3.26,1.69,1.41,1,.15,1.1a7.18,7.18,0,0,0-3.23,1c-1.19.71,2.59.72.94,1s-2.72-.36-3.79,1.17,1.77.12-.2,1.22-3,.3-3.59.89,1.65,1.66.57,2-2.11-.23-3.18.83,1.53,2,.23,1.66-1.89.23-3.78.93,1.17,1.89-.31,1.34-2.65.3-3.6,1.48.94,2.25,0,1.77-2.89.28-5.37-.08c-1.51-.22.34,1.52-.9,2.65-.57.52-1.24-.3-2.12-.48s.23.71-.42.53-.53-.65-1.24-.77.53.77.12,1.06-.65-.3-1.42.11.52,2.43,0,2.78-.77-.3-1.59-.89,0,.59-.36.71-.53-.89-1-1.37.06.89-.65.65-.35-.83-.88-1.24-.36.59-.72.7-.58-.83-1.29-1.54-.65.29-1,.65-.52-1.13-.82,0,1.11,3.49.69,3.43-.76-.77-1.06-1.07-.47.36-.88.3-.06-.65-.77-1.37-.18.65-.76.3-.41-1.25-1.47-2.08.11,1-.71.59-.65-1.12-1.24-1.6-.07,2.54-1.06,0-2.12-2.14-2.53-2.55a8.76,8.76,0,0,1-1.48-2.19,6.83,6.83,0,0,0-2.22-2.26c-1-.77-2-4.73-2-4.73a5.14,5.14,0,0,0-1.39-1.57A60.63,60.63,0,0,0,107.94,123a.72.72,0,0,1-.4.12.68.68,0,0,1-.31-.08c-4.92,4.91-10.35,10.25-16,15.73a2.52,2.52,0,0,0,.47.57c1,.89,1.42-.71,2-.11S95,137.41,95.42,138s1.48-2.29,2.25-1.29.83-2.12,1.3-1.29,1.42-1.3,2.19-1.23-.48,2.24.16,3.48,1.66-.23,2.25.37,1.54-.94,1.65-.35,1.6-1.24,2.55-.88.7,1.42.93,2.72.89-.17,1.47.66,1.9-.82,2.07-.17,1.66-1.29,2.43-.52.34,1.77.69,2.72,1.19-.47,1.18.48,1.54-1.18,1.6-.41,1-.23,1.42.12.71-.7,1.27-.13-.33.67,0,2.15,4.55-.1,3.9.66-.36.95-.13,1.65,3.31-.93,3.19-.45.06,1.12-.06,1.71.88-.65,1.12.06,2.66-.87,2.3-.4,0,.71.06,1.24,1.65.12,3-.17.77.3-.06,1.24,1.65-.23,2.6-.34-.42.65-.13.94,3.55-.34,3.15,0-2.56,1-3.27,1.69,1.41,1,.16,1.1a7.22,7.22,0,0,0-3.24,1c-1.18.71,2.6.72.94.95s-2.71-.37-3.78,1.17,1.77.12-.21,1.21-3,.31-3.58.9,1.64,1.66.56,2-2.11-.23-3.17.83,1.52,2,.23,1.66-1.89.23-3.79.93,1.18,1.89-.31,1.34-2.65.3-3.6,1.48.94,2.24,0,1.77-2.9.28-5.38-.08c-1.51-.22.34,1.52-.9,2.65-.56.52-1.24-.3-2.12-.48s.23.71-.42.53-.53-.65-1.23-.77.52.77.11,1.06-.65-.3-1.42.11.52,2.43.05,2.78-.77-.3-1.59-.89,0,.59-.36.7-.53-.88-1-1.36.06.89-.65.65-.35-.83-.88-1.24-.36.58-.71.7-.59-.83-1.3-1.54-.65.29-1,.65-.53-1.13-.83,0,1.11,3.49.7,3.43-.77-.77-1.06-1.07-.48.36-.89.3-.06-.65-.76-1.37-.18.65-.77.3-.41-1.25-1.47-2.08.11,1-.71.59-.65-1.12-1.23-1.6-.07,2.54-1.07,0-2.12-2.14-2.53-2.55a8.75,8.75,0,0,1-1.47-2.19,6.88,6.88,0,0,0-2.23-2.26c-1-.77-2-4.73-2-4.73a4.72,4.72,0,0,0-1.48-1.63c-5,.48-10.66,3.32-12.83,4.51-9.5,9-18.34,17.17-25,23.25a13.26,13.26,0,0,1,9.21-.31A24.62,24.62,0,0,0,54.57,182c1.12-1.19,4.28-5.15,4.59-4.37s2.32-2.1,2.43-1.48,2.46-1.62,2.42-.7,2-1.12,2.11-.45,1.4-1,1.57-.47-.5.92-.09,2,1.41,0,1.62.76,1.74-.91,1.86-.25,2.13-1.17,2.31-.06,1.54-1.32,1.56-.47,1.66-.42,2.24,0-1.32,1.55-1.34,2.79,1.39.52,1.6,1.23,1.61-.09,1.45.42,1.77-.29,2.36.39-.05,1.4-.41,2.52.77.24.88,1.13,1.82.16,1.69.74,1.84-.32,2.12.61-.48,1.53-.6,2.42,1.12.13.72.87,1.7-.27,1.43.35.83.22,1,.69.86-.25,1.06.43-.54.39-.94,1.67,3.61,1.83,2.78,2.16-.68.58-.79,1.24,3,.66,2.69,1-.43.9-.77,1.31,1-.13.85.52,2.45.43,2,.65-.3.56-.48,1,1.24.79,2.43,1.13.47.56-.57.95,1.39.51,2.18.82-.6.33-.49.69,2.92,1.22,2.47,1.29a19,19,0,0,0-3.27-.05c-.85.26.71,1.34-.34.94a6.2,6.2,0,0,0-3-.57c-1.22.05,1.74,1.65.34,1.14s-2-1.43-3.45-.68,1.33.84-.67.87-2.48-1-3.19-.81.6,2-.39,1.8-1.56-1.06-2.84-.68.35,2.22-.51,1.39-1.58-.61-3.36-.86.13,2-.81.93-2.2-.88-3.44-.36-.21,2.15-.75,1.38-2.38-1-4.17-2.32c-1.09-.8-.37,1.34-1.82,1.71-.66.17-.84-.76-1.46-1.27s-.12.65-.55.24-.14-.73-.64-1.13.09.83-.36.89-.38-.51-1.16-.51-.61,2.12-1.13,2.19-.47-.55-.87-1.36-.25.46-.58.4,0-.92-.21-1.49-.33.72-.78.24.07-.8-.17-1.35-.52.31-.85.26-.11-.9-.37-1.75-.63-.05-1.06.08.06-1.1-.64-.35-.6,3.2-.9,3-.28-.93-.38-1.28-.52.07-.82-.15.23-.53,0-1.38-.42.43-.73-.1.2-1.14-.28-2.24-.31.79-.8.16,0-1.15-.3-1.77-1.12,2-.83-.45-.76-2.56-.91-3.06a7.62,7.62,0,0,1-.24-2.33,6.2,6.2,0,0,0-.8-2.71c-.46-1,.43-4.54.43-4.54a5.06,5.06,0,0,0-.26-1.41c-4.92-1.5-7.38-.38-11.93,1.69l-.56.25c-4,3.6-6.87,6.08-8.1,7a1,1,0,0,1-1.41-.21,1,1,0,0,1,.21-1.4c2.55-1.88,10.64-9.15,21.15-18.9,2.16-4.79,3.08-8.74,2.92-12.92a6.15,6.15,0,0,0-.88-.4s-4.15-.15-5.13-1a6.78,6.78,0,0,0-2.71-1.74,8.62,8.62,0,0,1-2.48-1c-.5-.32-.33-1.52-3.07-2s.37-.57-.22-1-1.32-.15-1.85-.89,1.48.05.43-.83-1.89-.52-2.36-1,1-.27.13-.83-1.37-.07-1.52-.47.46-.71.11-.94-1.14-.43-1.29-.83,2.51.51,3.56,0-.45-.39-.18-.82,1.29-.58.43-1.13-1.84-.59-1.8-1,1.08-.41.55-.85-1,0-1.42-.62,1.08-.41.51-.78-1.61-.33-1.57-.71,1.4.19.63-.5-1.47-.85-1.22-1.4,2.53.32,2.77-.53-.39-1-.18-1.44,1.35.57,1.08-.1-.71-.47-1-1.07.81.32.44-.53-1.32-1.34-.92-2c.87-1.47,3,0,2.45-1.45-.88-2.38-.53-4.48-1.21-5.32s.79.81,1.76-.38,1.57-2.52.71-3.89,1,1.44,1.28-.59.76-2.74.13-4,.86,1.16,1.69-.12.06-2.19.16-3.33,1.65.85,2.11.14-.54-1.56.13-3.75-.13.93,1.17-.46.49-2.31.37-4,.69,2.06,1.14.73a7.2,7.2,0,0,0,.32-3.42c-.11-1.29.58.77,1.14-.08s.77-3.13,1-3.6.27,2.9.62,3.13.83-1.28.92-.32-.56,3.68.2,2.66,1.22-1.74,1.22-.33-.08,3.09.46,3,.86.25,1.25-.2-.67,2.29.08,2.37-.26,1.35.3,1.11,1.24-.21,1.69-.43-.55,3.19.21,3.27,1,.34,1.62-.47-.06,3.76,1.47,3.74,1.45-.94,2.13-.5-.32.9.13,1.3-.35,1.49.42,1.38-1,1.87-.07,1.67-.29.93.72,1.08,1.93-.48,2.85.12-.69,2.48,0,2.52-.68,1.68.27,2.09-.38,1.37,1,1.33,2.34-.51,2.9.36-1,2.72-.34,2.71-.71,1.26,0,1.72-.54,1.77.83,2.15,3.28-1.32,3.5-.57-1.69,2.15-.77,2.44-2.17,1-1,1.57-1.5,2.16-.81,2.5-1.58,1.51-.87,2-.78,1.21.31,2,1.7.19,2.27.56-1.7,1.22-1,1.56-2.2,1.91-1.18,2.17-2.19,2.12-1.54,2.44S65.22,155.42,66,156s-4.6,2.78-6.26,3.63a36,36,0,0,0-4.7,3.19,27.85,27.85,0,0,1-1.81,9.29c10.15-9.45,22.19-20.86,33.59-31.88a.75.75,0,0,1,.17-.6,26.22,26.22,0,0,0,5.19-10.82l-.08,0s.14-.77-1.56-2c0,0-3.51-1.07-4.16-2a6.23,6.23,0,0,0-1.93-2.1,7.56,7.56,0,0,1-1.89-1.43c-.36-.38.06-1.38-2.18-2.38s.45-.41,0-1-1.1-.42-1.38-1.18,1.25.38.56-.61-1.51-.87-1.8-1.41.9,0,.3-.68-1.15-.37-1.19-.74.55-.51.3-.79-.87-.62-.91-1,2,1,3,.78-.3-.44,0-.74,1.23-.21.63-.88-1.45-.91-1.33-1.23,1-.11.67-.6-.9-.2-1.08-.85,1-.11.61-.56-1.3-.64-1.18-1,1.15.47.65-.29-1.06-1.06-.73-1.47,2.09.84,2.49.17-.11-.91.17-1.27,1,.79,1,.15-.51-.56-.64-1.15.62.46.5-.35-.83-1.44-.34-1.93c1.07-1.06,2.55.68,2.42-.68-.21-2.24.56-4,.17-4.83s.49.87,1.59.07,1.91-1.81,1.49-3.16.51,1.45,1.22-.22,1.27-2.18,1-3.36.47,1.19,1.47.28.54-1.86.89-2.81,1.21,1.1,1.77.6-.11-1.46,1-3.18-.32.76,1.1-.13.94-1.87,1.22-3.35.12,1.92.81.89a6.51,6.51,0,0,0,1-2.86c.2-1.12.32.8,1,.19s1.37-2.51,1.66-2.86-.43,2.55-.17,2.82,1-.91.85-.06-1.31,3-.43,2.32,1.44-1.21,1.12,0-.76,2.63-.28,2.7.67.41,1.11.11-1.1,1.81-.47,2-.53,1.09,0,1,1.11.1,1.54,0-1.19,2.6-.56,2.84.78.52,1.49,0-.89,3.21.42,3.53,1.45-.47,1.94.06-.48.7-.18,1.14-.64,1.19,0,1.28-1.28,1.37-.43,1.41-.46.72.37,1.08,1.75,0,2.41.75-1.15,2-.58,2.15-1,1.29-.24,1.85-.64,1.09.52,1.36,2.12.09,2.4,1-1.42,2.11-.9,2.24-.89.92-.38,1.47-.87,1.4.22,2,3.1-.39,3.12.31-1.92,1.45-1.2,1.91-2.09.38-1.22,1.11-1.77,1.51-1.26,2-1.69.93-1.19,1.49-.94.86-.19,1.8l.14.15c10.42-10.48,17.85-18.45,18.75-20.62a12.39,12.39,0,0,1,1-1.94,81.26,81.26,0,0,1,2.07-9.85,5.69,5.69,0,0,0-.74-.84S126.39,84,125.89,83a6.2,6.2,0,0,0-1.58-2.37,7.69,7.69,0,0,1-1.66-1.69c-.29-.44.28-1.36-1.78-2.69s.5-.34.19-.94-1-.59-1.19-1.38,1.19.57.65-.52-1.35-1.08-1.56-1.67.9.13.4-.62-1.09-.54-1.06-.92.62-.41.41-.73-.76-.75-.74-1.12,1.85,1.29,2.89,1.23-.23-.48.15-.73,1.25,0,.75-.77-1.29-1.12-1.12-1.41,1,0,.75-.5-.86-.34-.94-1,1,0,.69-.46-1.19-.84-1-1.13,1.06.65.69-.18-.89-1.21-.5-1.57,1.94,1.15,2.44.55,0-.92.35-1.23.9.94.92.29-.42-.62-.46-1.23.54.55.55-.27-.6-1.55,0-1.95c1.22-.89,2.42,1.06,2.5-.31.13-2.25,1.15-3.83.9-4.75s.36.94,1.56.32,2.17-1.5,2-2.9.28,1.51,1.24,0,1.58-2,1.5-3.17.29,1.25,1.42.51.82-1.76,1.31-2.65,1,1.28,1.65.86.12-1.45,1.44-3-.44.7,1.11,0,1.21-1.71,1.71-3.12-.17,1.91.66,1a6.34,6.34,0,0,0,1.48-2.67c.37-1.08.19.84,1,.34s1.74-2.27,2.08-2.57-.81,2.45-.61,2.76,1.13-.75.86.07S146,41.48,147,40.92s1.61-1,1.11.17-1.15,2.48-.7,2.62.61.51,1.09.28-1.36,1.62-.78,1.95-.69,1-.15,1,1.09.28,1.52.26-1.56,2.39-1,2.72.69.63,1.48.19-1.37,3-.12,3.56,1.5-.26,1.9.35-.58.61-.35,1.09-.82,1.09-.15,1.27-1.48,1.17-.65,1.34-.56.64.21,1.12,1.72.3,2.26,1.11-1.44,1.77-.9,2-1.14,1.12-.52,1.79-.79,1,.31,1.42c.29.11.58.2.84.28.27-.23.23-2.32.65-1.93s.31-1.84.7-1.63.1-1.39.46-1.26.25.74,1,1,.65-.94,1.1-.77.32-1.57.71-1.37.35-1.95,1-1.58,0-1.62.46-1.27.52-1.3,1-1.53.2,1.57.82,2.12.89-.71,1.34-.55.67-1.12.86-.79.63-1.33,1.24-1.43.69.64,1.1,1.37.46-.41,1-.1.89-1.17,1.13-.82.66-1.39,1.25-1.17.57,1,1,1.46.57-.71.77-.12.62-1.27.81-.81.48-.47.82-.41.25-.69.69-.53-.05.54.42,1.36,2.54-1.64,2.33-.94,0,.71.28,1.08,1.66-1.74,1.7-1.4.26.68.32,1.09.36-.71.64-.35,1.31-1.47,1.21-1,.15.44.3.76,1-.5,1.65-1.15.5-.08.23.79.88-.72,1.38-1.12-.09.55.14.64,1.91-1.45,1.75-1.12a18.18,18.18,0,0,0-1.48,2.19C182.84,54.78,184.09,54.19,183.41,54.73Z"/><path d="M93.8,128.18A23.7,23.7,0,0,1,91.16,136c3.4-3.31,6.71-6.54,9.86-9.66-1.45.32-3.23.59-4.08.77A20.61,20.61,0,0,0,93.8,128.18Z"/><path class="cls-7" d="M142.37,86.07c-.4-.75,3.14-.43,2.73-.92s2.85-.86,2.11-1.43,2.16-.82,1.72-1.35,1.71-.41,1.38-.91-1-.21-1.65-1.25a.54.54,0,0,1,0-.1c-2.76,2-5.65,4.27-8.34,6.55C141.57,86.58,142.56,86.42,142.37,86.07Z"/><path class="cls-7" d="M152.19,75.11l.34-.23a1.61,1.61,0,0,0-.33.06A1,1,0,0,1,152.19,75.11Z"/><path class="cls-7" d="M152.35,65.49c-.36-.2.21,2.42-.33,2.29-.33-.08-.22,1.36-.07,2.78a.54.54,0,0,0,0-.57c-.42-.63,1.1-1.19.6-1.4s1.38-1.18,1.24-2.08c-.11-.65-.66-.82-1.39-1A.06.06,0,0,1,152.35,65.49Z"/><path class="cls-7" d="M152.2,74.94a1.61,1.61,0,0,1,.33-.06l.8-.54c-.12-.49,1.52-.92,1.6-1.54s-1.75-.09-2.79-.63c0,.23,0,.44.06.61A17.29,17.29,0,0,1,152.2,74.94Z"/><path class="cls-7" d="M90.07,137.91c-.17.27-.33.52-.49.75C89.75,138.61,89.91,138.26,90.07,137.91Z"/><path class="cls-7" d="M152.07,75.42a1,1,0,0,1,.1.16c0-.16,0-.31,0-.47l-.22.16A.77.77,0,0,0,152.07,75.42Z"/><path class="cls-7" d="M152.09,76.85c0-.31,0-.64.06-1-.3.55-2,.87-1.63,1.29s-1.81.66-1.39,1.29-.95.71-.5,1.65c1.55-1.14,3.05-2.21,4.45-3.17C152.4,76.62,152.09,76.85,152.09,76.85Z"/><path class="cls-7" d="M109,120.65l1-.57C109.57,120.26,109,120.43,109,120.65Z"/><path class="cls-7" d="M153.45,74.51a.41.41,0,0,1-.12-.17l-.8.54C153.09,74.81,153.81,74.83,153.45,74.51Z"/><path class="cls-7" d="M152.17,75.58c0,.1,0,.2,0,.3A.32.32,0,0,0,152.17,75.58Z"/><path class="cls-7" d="M107.65,122.63l-.24.24A.68.68,0,0,0,107.65,122.63Z"/><path class="cls-7" d="M107.17,123l.06,0,.18-.18Z"/><path class="cls-7" d="M110.18,120l-.21.12Z"/><path class="cls-7" d="M90.07,137.91l.4-.66A1.83,1.83,0,0,0,90.07,137.91Z"/><path class="cls-7" d="M128.89,97.89H129a.74.74,0,0,0,.74-.65c.17-1.17.37-2.4.6-3.65a23.35,23.35,0,0,0-2,2.68l-.12.77A.75.75,0,0,0,128.89,97.89Z"/></g><g class="cls-8"><polygon class="cls-9" points="110.46 126.37 110.46 247.31 215.19 186.84 215.19 186.84 215.19 65.91 110.46 126.37"/></g><g class="cls-10"><polygon class="cls-11" points="110.46 5.44 5.73 65.91 5.73 65.91 110.46 126.37 215.19 65.91 215.19 65.91 110.46 5.44"/></g></svg>