<svg id="Layer_1" data-name="Layer 1" xmlns="http://www.w3.org/2000/svg" xmlns:xlink="http://www.w3.org/1999/xlink" viewBox="0 0 246.83 331.81"><defs><style>.cls-1{fill:url(#linear-gradient);}.cls-2{fill:url(#linear-gradient-2);}.cls-3{fill:url(#linear-gradient-3);}.cls-4{fill:url(#linear-gradient-4);}.cls-5{fill:url(#linear-gradient-5);}.cls-6{fill:url(#linear-gradient-6);}.cls-7{fill:url(#linear-gradient-7);}.cls-8{fill:url(#linear-gradient-8);}.cls-9{fill:url(#linear-gradient-9);}</style><linearGradient id="linear-gradient" x1="3.91" y1="166.2" x2="245.83" y2="166.2" gradientTransform="translate(249.74 332.41) rotate(180)" gradientUnits="userSpaceOnUse"><stop offset="0" stop-color="#009444"/><stop offset="0.32" stop-color="#009444"/><stop offset="0.38" stop-color="#069644"/><stop offset="0.46" stop-color="#179c43"/><stop offset="0.56" stop-color="#33a642"/><stop offset="0.66" stop-color="#5ab441"/><stop offset="0.77" stop-color="#8bc53f"/><stop offset="0.78" stop-color="#8dc63f"/></linearGradient><linearGradient id="linear-gradient-2" x1="8.73" y1="220.68" x2="31.75" y2="220.68" gradientTransform="translate(176.74 479.46) rotate(174.54)" xlink:href="#linear-gradient"/><linearGradient id="linear-gradient-3" x1="-46.19" y1="207.13" x2="-6.43" y2="207.13" gradientTransform="translate(176.74 479.46) rotate(174.54)" xlink:href="#linear-gradient"/><linearGradient id="linear-gradient-4" x1="34.27" y1="239.77" x2="95.55" y2="239.77" gradientTransform="translate(176.74 479.46) rotate(174.54)" xlink:href="#linear-gradient"/><linearGradient id="linear-gradient-5" x1="29.18" y1="278.37" x2="34.18" y2="278.37" gradientTransform="translate(176.74 479.46) rotate(174.54)" xlink:href="#linear-gradient"/><linearGradient id="linear-gradient-6" x1="39.55" y1="253.63" x2="120.63" y2="253.63" gradientTransform="translate(176.74 479.46) rotate(174.54)" xlink:href="#linear-gradient"/><linearGradient id="linear-gradient-7" x1="46.46" y1="274.02" x2="85.28" y2="274.02" gradientTransform="translate(176.74 479.46) rotate(174.54)" xlink:href="#linear-gradient"/><linearGradient id="linear-gradient-8" x1="92.66" y1="263.45" x2="124.13" y2="263.45" gradientTransform="translate(176.74 479.46) rotate(174.54)" xlink:href="#linear-gradient"/><linearGradient id="linear-gradient-9" x1="57.75" y1="286.56" x2="61.13" y2="286.56" gradientTransform="translate(176.74 479.46) rotate(174.54)" xlink:href="#linear-gradient"/></defs><title>ginkgo-2</title><path class="cls-1" d="M217.15,308.51a55.5,55.5,0,0,1-14.35,9.85c-4.07,2-9.19,4.3-13.75,4.67a43,43,0,0,1-9.68-.3c-1.56-.22-3.26.08-4.85,0-2.49,4.6-9.15,6.47-13.92,7.22-6.55,1-14.34,1.18-20.22-2.43h-.24c-3.78-.32-7.1.85-10.8,1.21a70.11,70.11,0,0,1-11.68.25c-5.31-.37-9.51-3.52-13.87-6.25-9.9-6.21-30.88-8.64-30.86-24.09a1,1,0,0,1,.29-.78c-.35-3.25,2-7.41,3.3-9.85,4.15-8,9.67-15.29,14.91-22.56,4-5.5,7.49-11.19,11-16.92-4.94,6-10.16,11.74-14.93,17.56s-9.29,12.1-14.19,18c-3.59,4.29-8.07,9.54-13.76,10.92A6.39,6.39,0,0,1,54,293.76a9,9,0,0,1-2.33-3c-.45-.9-.58-3.34-1.3-3.86a.59.59,0,0,1-.27-.61c-2.64-.89-6.32-1.08-8.49-2.83-3.32-2.67-5.55-6.56-9-9-2.89-2.07-5-2-6.61-5.56a21.59,21.59,0,0,1-1.09-4c-.65-2.69-2.6-4.6-4.42-6.56a19.71,19.71,0,0,1-4.79-7.84c-.83-2.69.49-9.21-2.17-10.61-1.63-.86-1.38-2.59-1.36-4.26,0-2.3.94-4.91-.68-7a26.52,26.52,0,0,1-3-4.74C5.13,217.12,4,211.52,5.09,204c.69-4.78,1.27-9,.1-13.76a31.9,31.9,0,0,1-1.27-8.67c.13-5,3.08-10.23,5-14.68,1.87-4.27,4-9.24,9.47-8.68a.77.77,0,0,1,.7.87c5.55-1.15,11.43-.15,17.13,1.6,10.89,3.33,21.32,8.75,31.62,13.53,12.47,5.77,25,11.25,38.44,14.45A73.69,73.69,0,0,0,122.52,191a25.76,25.76,0,0,0,10.22-2.26,45.5,45.5,0,0,0,4.73-4.43,131.58,131.58,0,0,0,12.92-16.17c10-14.17,18.62-29.41,26.87-44.68,9.92-18.37,19.2-37,29.34-55.31,5.83-10.51,11.59-21.05,17-31.8,5.26-10.52,9.56-21.44,14.31-32.17a1,1,0,0,1,.52-1.3l.07,0,.35-.78c.24-.53,1-.2,1,.29,3.06-.91,5.71.06,6,4.14.33,4.53-2.26,10.4-3.93,14.62-8.46,21.36-21.32,40.89-32.29,61C197.63,104,186,126,173.31,147.49q-9.18,15.63-19.1,30.8c-2.41,3.68-5.09,7.21-7.05,11.15-1.48,3-2,7.07-2.17,10.74,1.75,7.3,7,14,11.73,19.29,9.11,10.21,20,18.79,30.5,27.54,10.2,8.55,20.66,17.28,28.72,28a45.19,45.19,0,0,1,7.22,13.47,26.18,26.18,0,0,1,1.17,6.75,9.83,9.83,0,0,1,0,1.34.93.93,0,0,1,.23.57C224.69,301.79,220.22,305.49,217.15,308.51Zm-8.55-36.57c-9.28-10.26-20.29-18.89-30.85-27.76-13.85-11.63-39.82-30.37-33.92-51.39a17.6,17.6,0,0,1,2.4-7.37c5.2-8.95,11.45-17.37,16.92-26.17,12.14-19.57,23.28-39.75,34.45-59.89,11-19.9,22.49-39.61,33-59.83,3.87-7.48,7.92-15.08,10.55-23.1C242,13.68,244.86,3.68,239.2,5h0c-2.82,10.82-7.61,21-12.47,31.08C220.94,48,214.48,59.66,208,71.27c-10.46,18.88-20,38.23-30.3,57.18-8.61,15.79-17.83,31.41-28.53,45.88-4.15,5.6-12.41,18-20.9,18.1a30,30,0,0,1-11.89.72c-12.59-1.53-24.79-5.76-36.43-10.64-12.31-5.17-24.27-11.15-36.62-16.25-9.61-4-19.22-6.7-29.27-3.91-2.44,2.53-3.68,6.24-4.35,9.94-.86,4.77-3.15,8.07-3,12.48,2.83-.26,6.35,1,8.94,1.47a154.08,154.08,0,0,0,18.23,2.93c11,.79,22.08-.56,33.11.09,18.94,1.12,38.68,8.83,57.67,5.22,0,0,0,0,0,0-18.09,4.08-36.06-1.09-54.16-2.7-10.89-1-22.13.13-33,.31a78.66,78.66,0,0,1-15.89-1.81c-2.79-.53-5.57-1.13-8.35-1.7-1.71-.34-4.24-1.26-6.15-1.15.07.31.14.62.24.94A36.47,36.47,0,0,1,8.41,204c9.21-2.68,19.38.54,28.84-.52,12.18-1.37,24.58-1.44,36.83-1.28.22,0,.21.33,0,.35-11.31.86-22.68.45-34,1.49-5,.45-9.51,1.32-14.53,1.12-5.85-.23-11.85-.6-17.44,1.4h0c0,.32-.08.65-.13,1a28,28,0,0,0,5.91,22c.9,1.1.54,3.52.48,4.77s-.7,3.27.85,3.73a2.16,2.16,0,0,1,1.32.82c1,1.68.78,4.67.88,6.53.3,5.36,2.13,8.75,5.7,12.54a16.29,16.29,0,0,1,4,6.47,34.67,34.67,0,0,0,1.44,4.58c.9,1.94,4.54,2.95,6.32,4.21.29.2.58.43.87.67,6.79-6.56,13.94-11.56,21.7-16.86,8.8-6,17.31-12.39,25.91-18.67,7.31-5.34,15.1-9.91,22.36-15.36a124.48,124.48,0,0,0,20.39-19.41c0-.05.11,0,.09.07-3.81,7.27-11,12.95-17.21,18-7.41,6-15.18,11.29-22.19,17.74a220.19,220.19,0,0,1-23,18.19,142.7,142.7,0,0,1-13.39,8.29c-4.73,2.58-8.64,6.43-12.54,10.09,1.2,1.3,2.32,2.69,3.43,3.9,2.68,2.91,6.45,3.23,9.58,5.31a.7.7,0,0,1,.25.83c1.55.91,2.33,4,3.6,5.39,2,2.2,4.68,1.35,7,.12,5.21-2.81,9.23-8.21,12.86-12.73,4.62-5.75,9.25-11.45,14.06-17.06,7.42-8.67,14.5-18,22.3-26.41,3.35-4.93,6.85-9.73,10.27-14.62,4.77-6.8,9.22-14.22,14.39-20.68a.26.26,0,0,1,.44.27c-2.81,6.44-7.66,12.06-11.69,17.77-4.45,6.3-8.49,12.86-12.7,19.32-5.64,8.66-10.39,17.85-16.4,26.25-4.81,6.72-9.63,13.41-13.94,20.46-1.57,2.57-6.52,9.41-6.6,13.83a1.2,1.2,0,0,1,.45.58c2.56,6.94,7.45,10.24,13.95,13.26,3.29,1.52,6.33,3.14,9.33,4.86,3.91-19,12.65-36.72,19-54.93A180,180,0,0,0,125,235c1.53-8.29,5-18.69,10.1-25.49.12-.16.44-.07.36.16-3.17,8.61-6.87,16.75-9.34,25.64s-4.8,17.82-7.67,26.58c-3,9-5.56,18.21-8.6,27.25-3.21,9.58-6.73,19-8.91,28.88,1.75,1.06,3.5,2.16,5.29,3.31a71.66,71.66,0,0,0,6.46,4c-.52-7,1.49-14.8,3.11-21.44,2.34-9.63,5.55-19,8.19-28.58,2.74-9.88,4.58-20,7.2-29.95a269.28,269.28,0,0,0,6.07-30.45s.09,0,.09,0c.6,9.29-2,18.4-4.36,27.29-2.54,9.56-4.49,19.07-6.52,28.74-1.92,9.13-5,18-7.57,26.95-1.35,4.73-2.52,9.5-3.43,14.33-.48,2.58-.79,5.17-1,7.78-.14,1.48-.72,4-.76,5.77a15.24,15.24,0,0,0,5.95,1.33,37.29,37.29,0,0,0,10.8-1.26c3.41-1,6.13-2.31,9.76-1.88a1.85,1.85,0,0,1,1.39.87,43.76,43.76,0,0,0,15,3.14c-.8-3-1.84-5.93-2.43-9.12-.86-4.69-1.63-9.41-2.4-14.12-1.44-8.93-2.68-17.91-3.5-26.92-.86-9.43-.84-18.92-1.17-28.39s-.68-19,.36-28.36a.11.11,0,0,1,.21,0c.51,8.83.24,17.74.55,26.59.34,9.54,1.61,18.93,2.6,28.42s2.13,18.7,3.55,28c.72,4.72,1.59,9.42,2.48,14.11.59,3.1.62,6.66,1.32,9.62a.56.56,0,0,1,0,.18,20.48,20.48,0,0,0,14.15-5.81.26.26,0,0,1,0-.27,3,3,0,0,1,1.12-1.09,1.72,1.72,0,0,1-.45-.67c-4.73-12.75-5.27-26.56-9.64-39.4-4.81-14.11-6-29.17-8.14-43.84-.05-.3.4-.41.45-.11,2.18,14.81,3.43,29.41,9.52,43.24,5.53,12.52,6.12,26.56,10.91,39.34a1.4,1.4,0,0,1,.1.65c1.61-.19,3.34-.1,4.54-.18,5.57-.35,10.94.19,16.35-1.62a53.45,53.45,0,0,0,16.46-9.39,24.47,24.47,0,0,0,6.17-6.89c.29-.5.55-1,.8-1.5C223.37,290,215.34,279.39,208.6,271.94Z"/><path class="cls-2" d="M129.25,315.08c0,.07-.14,0-.12,0,5.89-16.7,2.45-35.33,6.06-52.49,3.8-18.13,7.75-35.41,5.83-54.05,0-.17.24-.18.28,0C146,225,140.72,243.71,137,260,132.85,278.3,136.15,297.36,129.25,315.08Z"/><path class="cls-3" d="M206.07,307.9c-2.14-1.69-3.31-3.83-4.84-6.08-2.75-4.06-5.66-8-8.56-12-4.84-6.6-9.71-13.18-14-20.16-7.13-11.6-8.78-26.3-19-36.08,0,0,0,0,0,0,9.84,8.49,12.36,22.32,19,33,4.72,7.56,10.08,14.72,15.4,21.87,2.28,3.08,4.55,6.16,6.79,9.27s4.88,6.05,5.76,9.7C206.77,307.76,206.37,308.14,206.07,307.9Z"/><path class="cls-4" d="M61.27,274.73a.06.06,0,0,1-.08-.08c8.81-9.74,18.4-18.57,28-27.55s18.46-18.51,27.69-27.81c.27-.27.77.11.54.44-7.29,10.1-16.74,18.71-25.78,27.2C81.62,256.33,71.35,265.44,61.27,274.73Z"/><path class="cls-5" d="M116.35,206.4a.07.07,0,0,1,0-.14,10.27,10.27,0,0,0,2.43-.71,18.51,18.51,0,0,0,2.11-1.24c.17-.12.34.14.2.28A6.2,6.2,0,0,1,116.35,206.4Z"/><path class="cls-6" d="M70.23,237c-6.07,4.13-11.85,8.7-17.87,12.92-5.26,3.68-11.09,7.78-17.44,9.19a.38.38,0,0,1-.27-.69c5.79-3.16,11.55-6,17-9.75,6.07-4.15,11.84-8.72,17.88-12.92,13.34-9.27,27.64-17.35,41.54-25.73.13-.07.24.13.11.21C97.42,218.89,83.68,227.89,70.23,237Z"/><path class="cls-7" d="M66.56,221.69c-.12,0-.2-.16-.08-.21,12.51-5.39,24-13.22,37-17.25.26-.08.35.32.1.4C90.65,208.94,79.54,217.49,66.56,221.69Z"/><path class="cls-8" d="M28.57,231c-.33,0-.44-.48-.15-.62,9.38-4.37,20.68-4.71,30.76-6.26.07,0,.09.08,0,.09C49.06,226.13,38.86,229.87,28.57,231Z"/><path class="cls-9" d="M88.74,200.25c-.11,0-.16-.17,0-.22a6.18,6.18,0,0,1,3.21-.39c.1,0,.11.16,0,.16A30.81,30.81,0,0,0,88.74,200.25Z"/></svg>