<svg id="Layer_1" data-name="Layer 1" xmlns="http://www.w3.org/2000/svg" xmlns:xlink="http://www.w3.org/1999/xlink" viewBox="0 0 246.83 331.81"><defs><style>.cls-1{fill:url(#linear-gradient);}.cls-2{fill:url(#linear-gradient-2);}.cls-3{fill:url(#linear-gradient-3);}.cls-4{fill:url(#linear-gradient-4);}.cls-5{fill:url(#linear-gradient-5);}.cls-6{fill:url(#linear-gradient-6);}.cls-7{fill:url(#linear-gradient-7);}.cls-8{fill:url(#linear-gradient-8);}.cls-9{fill:url(#linear-gradient-9);}</style><linearGradient id="linear-gradient" x1="-110.96" y1="275.1" x2="148.48" y2="275.1" gradientTransform="translate(73.51 -112.15) rotate(-5.46)" gradientUnits="userSpaceOnUse"><stop offset="0" stop-color="#009444"/><stop offset="0.32" stop-color="#009444"/><stop offset="0.38" stop-color="#069644"/><stop offset="0.46" stop-color="#179c43"/><stop offset="0.56" stop-color="#33a642"/><stop offset="0.66" stop-color="#5ab441"/><stop offset="0.77" stop-color="#8bc53f"/><stop offset="0.78" stop-color="#8dc63f"/></linearGradient><linearGradient id="linear-gradient-2" x1="11.54" y1="185.89" x2="34.55" y2="185.89" xlink:href="#linear-gradient"/><linearGradient id="linear-gradient-3" x1="-43.39" y1="172.34" x2="-3.62" y2="172.34" xlink:href="#linear-gradient"/><linearGradient id="linear-gradient-4" x1="37.08" y1="204.98" x2="98.36" y2="204.98" xlink:href="#linear-gradient"/><linearGradient id="linear-gradient-5" x1="31.98" y1="243.57" x2="36.99" y2="243.57" xlink:href="#linear-gradient"/><linearGradient id="linear-gradient-6" x1="42.35" y1="218.84" x2="123.43" y2="218.84" xlink:href="#linear-gradient"/><linearGradient id="linear-gradient-7" x1="49.26" y1="239.23" x2="88.08" y2="239.23" xlink:href="#linear-gradient"/><linearGradient id="linear-gradient-8" x1="95.46" y1="228.66" x2="126.93" y2="228.66" xlink:href="#linear-gradient"/><linearGradient id="linear-gradient-9" x1="60.56" y1="251.77" x2="63.93" y2="251.77" xlink:href="#linear-gradient"/></defs><title>ginkgo-1</title><path class="cls-1" d="M32.59,23.9a55.5,55.5,0,0,1,14.35-9.85c4.06-2,9.19-4.3,13.75-4.67a43,43,0,0,1,9.68.3c1.56.22,3.26-.08,4.85,0,2.49-4.6,9.15-6.47,13.92-7.22,6.55-1,14.34-1.18,20.21,2.43h.24c3.78.31,7.11-.85,10.81-1.21a70.11,70.11,0,0,1,11.68-.25c5.31.37,9.51,3.52,13.87,6.25,9.9,6.21,30.88,8.64,30.86,24.09a1,1,0,0,1-.29.78c.35,3.25-2,7.41-3.3,9.85-4.15,8-9.67,15.29-14.91,22.56-4,5.5-7.49,11.19-11,16.92,4.94-6,10.15-11.74,14.93-17.56s9.29-12.11,14.18-18c3.6-4.29,8.07-9.55,13.77-10.92a6.4,6.4,0,0,1,5.53,1.23,9.12,9.12,0,0,1,2.33,3c.45.9.58,3.34,1.3,3.86a.63.63,0,0,1,.27.61c2.64.89,6.32,1.08,8.49,2.83,3.32,2.67,5.55,6.55,9,9,2.88,2.07,5,2,6.61,5.56a21.59,21.59,0,0,1,1.09,4c.65,2.69,2.6,4.6,4.42,6.56A19.83,19.83,0,0,1,234,81.94c.83,2.68-.49,9.21,2.16,10.61,1.64.86,1.39,2.59,1.37,4.26,0,2.3-.94,4.91.68,7a26.72,26.72,0,0,1,3,4.74c3.37,6.74,4.51,12.34,3.42,19.91-.7,4.77-1.28,9-.1,13.76a31.9,31.9,0,0,1,1.27,8.67c-.13,5-3.08,10.23-5,14.68-1.86,4.27-4,9.24-9.46,8.68a.77.77,0,0,1-.7-.87c-5.55,1.15-11.43.15-17.14-1.6-10.88-3.33-21.31-8.75-31.61-13.53-12.47-5.78-25-11.25-38.44-14.45a73.69,73.69,0,0,0-16.22-2.42A25.76,25.76,0,0,0,117,143.64a44.51,44.51,0,0,0-4.73,4.43,130.64,130.64,0,0,0-12.92,16.17c-10,14.17-18.62,29.41-26.87,44.68-9.92,18.37-19.2,37-29.34,55.31-5.83,10.51-11.59,21-17,31.8-5.25,10.52-9.56,21.44-14.3,32.17a1,1,0,0,1-.52,1.3l-.08,0-.34.78c-.24.53-1,.2-1-.29-3.06.91-5.71-.06-6-4.14-.33-4.53,2.26-10.4,3.93-14.62,8.45-21.36,21.32-40.89,32.29-61,12-21.88,23.63-43.88,36.27-65.38q9.18-15.61,19.1-30.8c2.41-3.67,5.09-7.2,7-11.14,1.48-3,2-7.07,2.17-10.74-1.75-7.3-7-14-11.73-19.29-9.11-10.21-20-18.79-30.5-27.55C52.32,76.85,41.86,68.12,33.8,57.44A45.19,45.19,0,0,1,26.58,44a26.25,26.25,0,0,1-1.17-6.75,8.45,8.45,0,0,1,0-1.34.93.93,0,0,1-.23-.57C25.05,30.62,29.52,26.92,32.59,23.9Zm8.55,36.57C50.42,70.73,61.43,79.36,72,88.23c13.85,11.63,39.82,30.37,33.92,51.39a17.75,17.75,0,0,1-2.4,7.37c-5.2,8.95-11.46,17.36-16.92,26.16-12.14,19.58-23.28,39.76-34.45,59.9-11,19.9-22.49,39.61-33,59.83C15.31,300.36,11.27,308,8.63,316c-.9,2.75-3.75,12.74,1.91,11.43h0c2.81-10.82,7.61-21,12.47-31.08,5.76-12,12.23-23.58,18.66-35.19C52.16,242.26,61.68,222.91,72,204c8.6-15.79,17.83-31.41,28.53-45.88,4.15-5.6,12.41-18.05,20.89-18.11a30.23,30.23,0,0,1,11.89-.71c12.6,1.53,24.8,5.76,36.43,10.64,12.32,5.17,24.28,11.15,36.63,16.25,9.6,4,19.22,6.7,29.27,3.91,2.44-2.53,3.68-6.24,4.34-9.94.87-4.77,3.16-8.07,3.06-12.48-2.83.26-6.36-1-8.95-1.47a153.91,153.91,0,0,0-18.22-2.93c-11-.79-22.09.56-33.11-.09-18.94-1.12-38.68-8.83-57.67-5.22,0,0,0,0,0,0,18.09-4.08,36.06,1.09,54.16,2.7,10.89,1,22.13-.13,33.05-.31a78.74,78.74,0,0,1,15.89,1.81c2.79.53,5.57,1.13,8.35,1.7,1.71.34,4.24,1.26,6.15,1.15-.07-.31-.14-.62-.24-.94a36.47,36.47,0,0,1-1.12-15.55c-9.21,2.68-19.38-.55-28.84.52-12.18,1.37-24.58,1.44-36.83,1.28-.23,0-.21-.34,0-.35,11.31-.86,22.68-.45,34-1.49,5-.46,9.51-1.32,14.53-1.12,5.84.23,11.85.6,17.44-1.4h0l.12-1a27.9,27.9,0,0,0-5.9-22c-.9-1.1-.54-3.52-.48-4.77s.7-3.27-.85-3.73a2.18,2.18,0,0,1-1.33-.83c-1-1.67-.77-4.66-.87-6.52-.3-5.36-2.13-8.75-5.7-12.55a16.19,16.19,0,0,1-4-6.46,33.3,33.3,0,0,0-1.45-4.58c-.9-1.94-4.53-3-6.31-4.21-.29-.21-.58-.43-.87-.67-6.79,6.56-13.95,11.56-21.71,16.86-8.79,6-17.3,12.39-25.9,18.67-7.31,5.34-15.1,9.91-22.36,15.36a123.69,123.69,0,0,0-20.39,19.41c0,.05-.12,0-.09-.08,3.81-7.26,11-12.94,17.21-18,7.4-6,15.18-11.29,22.19-17.74a218.87,218.87,0,0,1,23-18.19,142.7,142.7,0,0,1,13.39-8.29c4.72-2.58,8.64-6.43,12.53-10.09-1.19-1.3-2.31-2.69-3.42-3.9-2.68-2.91-6.45-3.23-9.58-5.31a.72.72,0,0,1-.26-.83c-1.54-.91-2.33-4-3.6-5.39-2-2.21-4.67-1.35-6.95-.12-5.2,2.81-9.22,8.21-12.85,12.73-4.63,5.75-9.25,11.45-14.06,17.06-7.42,8.67-14.5,18-22.3,26.41-3.35,4.93-6.85,9.73-10.27,14.62-4.77,6.8-9.22,14.22-14.39,20.67a.26.26,0,0,1-.44-.26c2.81-6.44,7.66-12.07,11.69-17.77,4.45-6.3,8.49-12.86,12.7-19.32,5.63-8.66,10.39-17.85,16.4-26.25,4.8-6.72,9.63-13.41,13.94-20.47C170,45.85,175,39,175,34.59a1.34,1.34,0,0,1-.46-.58c-2.55-6.95-7.44-10.24-13.94-13.26-3.29-1.52-6.34-3.14-9.33-4.86-3.91,19-12.65,36.72-19,54.93a178.77,178.77,0,0,0-7.58,26.6c-1.53,8.29-5,18.69-10.1,25.49-.12.16-.44.07-.36-.16,3.17-8.62,6.87-16.75,9.34-25.64s4.79-17.82,7.67-26.58c3-9,5.56-18.21,8.6-27.25,3.21-9.58,6.73-19,8.91-28.88-1.76-1.06-3.51-2.16-5.29-3.31a71.66,71.66,0,0,0-6.46-4c.52,7-1.49,14.8-3.11,21.44-2.35,9.62-5.55,19-8.19,28.58-2.74,9.88-4.58,20-7.2,29.95a269.28,269.28,0,0,0-6.07,30.45s-.09,0-.09,0c-.61-9.29,2-18.4,4.35-27.29,2.55-9.57,4.5-19.07,6.53-28.74,1.92-9.13,5-18,7.57-26.95,1.35-4.73,2.52-9.5,3.43-14.33.48-2.58.79-5.18,1-7.78.14-1.49.73-4,.77-5.77a15.24,15.24,0,0,0-5.95-1.33,37.29,37.29,0,0,0-10.8,1.26c-3.42,1-6.13,2.31-9.77,1.88a1.85,1.85,0,0,1-1.38-.87,43.81,43.81,0,0,0-15-3.14c.8,3,1.83,5.93,2.42,9.11.87,4.7,1.64,9.42,2.4,14.13,1.45,8.93,2.68,17.91,3.51,26.92.86,9.43.84,18.92,1.17,28.39s.68,19-.36,28.36a.11.11,0,0,1-.21,0c-.52-8.83-.24-17.74-.55-26.59-.34-9.54-1.61-18.93-2.61-28.42s-2.12-18.7-3.54-28c-.73-4.72-1.59-9.42-2.48-14.11-.59-3.1-.63-6.66-1.33-9.62a1.08,1.08,0,0,1,0-.18,20.44,20.44,0,0,0-14.15,5.81.26.26,0,0,1,0,.27A3,3,0,0,1,76.3,11.6a1.84,1.84,0,0,1,.45.67C81.48,25,82,38.83,86.39,51.67c4.81,14.11,6,29.17,8.14,43.84,0,.29-.4.41-.45.11-2.19-14.81-3.43-29.41-9.53-43.24C79,39.86,78.44,25.82,73.65,13a1.4,1.4,0,0,1-.1-.65c-1.62.19-3.34.1-4.54.18-5.58.35-10.94-.19-16.35,1.62A53.45,53.45,0,0,0,36.2,23.58,24.18,24.18,0,0,0,30,30.47c-.29.5-.55,1-.81,1.5C26.37,42.42,34.39,53,41.14,60.47Z"/><path class="cls-2" d="M120.49,17.33c0-.07.14,0,.11,0-5.89,16.7-2.45,35.33-6,52.49-3.8,18.13-7.75,35.4-5.84,54.05,0,.17-.23.18-.27,0-4.68-16.56.58-35.23,4.28-51.49C116.89,54.11,113.59,35.05,120.49,17.33Z"/><path class="cls-3" d="M43.67,24.51c2.13,1.69,3.31,3.82,4.84,6.08,2.75,4.06,5.66,8,8.56,12,4.84,6.6,9.71,13.18,14,20.16,7.13,11.6,8.78,26.3,19,36.08a0,0,0,1,1,0,0c-9.84-8.48-12.36-22.31-19-33-4.72-7.56-10.08-14.72-15.4-21.87-2.29-3.08-4.56-6.16-6.79-9.28s-4.88-6-5.76-9.69C43,24.65,43.37,24.27,43.67,24.51Z"/><path class="cls-4" d="M188.47,57.68c.05,0,.13,0,.08.08-8.81,9.74-18.4,18.57-28,27.55s-18.47,18.51-27.69,27.81c-.27.27-.77-.11-.54-.44,7.28-10.1,16.74-18.71,25.78-27.2C168.11,76.08,178.38,67,188.47,57.68Z"/><path class="cls-5" d="M133.38,126c.08,0,.1.12,0,.14a10.49,10.49,0,0,0-2.44.71,19.28,19.28,0,0,0-2.1,1.24c-.17.11-.34-.15-.21-.28A6.22,6.22,0,0,1,133.38,126Z"/><path class="cls-6" d="M179.5,95.38c6.08-4.13,11.86-8.71,17.88-12.92,5.25-3.68,11.09-7.78,17.44-9.19a.38.38,0,0,1,.27.69c-5.8,3.16-11.55,6-17,9.75-6.08,4.15-11.85,8.72-17.89,12.92-13.33,9.27-27.63,17.35-41.53,25.73-.13.07-.24-.13-.12-.21C152.31,113.52,166.06,104.52,179.5,95.38Z"/><path class="cls-7" d="M183.18,110.72c.12,0,.2.16.08.21-12.51,5.39-24,13.22-37,17.25-.26.08-.36-.32-.1-.4C159.08,123.47,170.2,114.92,183.18,110.72Z"/><path class="cls-8" d="M221.17,101.45c.33,0,.44.48.15.62-9.38,4.37-20.69,4.7-30.77,6.26-.06,0-.08-.08,0-.09C200.68,106.28,210.88,102.54,221.17,101.45Z"/><path class="cls-9" d="M161,132.16c.11,0,.16.17.05.22a6.28,6.28,0,0,1-3.21.39c-.1,0-.11-.16,0-.16A30.81,30.81,0,0,0,161,132.16Z"/></svg>