<svg id="Layer_1" data-name="Layer 1" xmlns="http://www.w3.org/2000/svg" xmlns:xlink="http://www.w3.org/1999/xlink" viewBox="0 0 806.96 391.98"><defs><style>.cls-1{fill:url(#linear-gradient);}.cls-2{fill:url(#linear-gradient-2);}.cls-3{fill:url(#linear-gradient-3);}.cls-4{fill:url(#linear-gradient-4);}.cls-5{fill:url(#linear-gradient-5);}.cls-6{fill:url(#linear-gradient-6);}.cls-7{fill:url(#linear-gradient-8);}.cls-8{fill:url(#linear-gradient-15);}.cls-9{fill:url(#linear-gradient-16);}.cls-10{fill:url(#linear-gradient-18);}.cls-11{fill:url(#linear-gradient-19);}.cls-12{fill:url(#linear-gradient-20);}.cls-13{fill:url(#linear-gradient-21);}.cls-14{fill:url(#linear-gradient-24);}.cls-15{fill:url(#linear-gradient-27);}.cls-16{fill:url(#linear-gradient-28);}.cls-17{fill:url(#linear-gradient-31);}.cls-18{fill:url(#linear-gradient-39);}.cls-19{fill:url(#linear-gradient-40);}.cls-20{fill:url(#linear-gradient-41);}.cls-21{fill:url(#linear-gradient-42);}.cls-22{fill:url(#linear-gradient-43);}.cls-23{fill:url(#linear-gradient-44);}.cls-24{fill:url(#linear-gradient-45);}.cls-25{fill:url(#linear-gradient-46);}.cls-26{fill:url(#linear-gradient-47);}.cls-27{fill:url(#linear-gradient-48);}</style><linearGradient id="linear-gradient" x1="-100.56" y1="219.57" x2="603.03" y2="219.57" gradientUnits="userSpaceOnUse"><stop offset="0" stop-color="#009444"/><stop offset="0.32" stop-color="#009444"/><stop offset="0.38" stop-color="#069644"/><stop offset="0.46" stop-color="#179c43"/><stop offset="0.56" stop-color="#33a642"/><stop offset="0.66" stop-color="#5ab441"/><stop offset="0.77" stop-color="#8bc53f"/><stop offset="0.78" stop-color="#8dc63f"/></linearGradient><linearGradient id="linear-gradient-2" x1="-100.56" y1="48.3" x2="603.03" y2="48.3" xlink:href="#linear-gradient"/><linearGradient id="linear-gradient-3" x1="-100.56" y1="48.3" x2="603.03" y2="48.3" xlink:href="#linear-gradient"/><linearGradient id="linear-gradient-4" x1="-100.56" y1="45.35" x2="603.03" y2="45.35" xlink:href="#linear-gradient"/><linearGradient id="linear-gradient-5" x1="-100.56" y1="48.06" x2="603.03" y2="48.06" xlink:href="#linear-gradient"/><linearGradient id="linear-gradient-6" x1="-100.56" y1="115.85" x2="603.03" y2="115.85" xlink:href="#linear-gradient"/><linearGradient id="linear-gradient-8" x1="-100.56" y1="48.09" x2="603.03" y2="48.09" xlink:href="#linear-gradient"/><linearGradient id="linear-gradient-15" x1="-100.56" y1="48.36" x2="603.03" y2="48.36" xlink:href="#linear-gradient"/><linearGradient id="linear-gradient-16" x1="-100.56" y1="44.63" x2="603.03" y2="44.63" xlink:href="#linear-gradient"/><linearGradient id="linear-gradient-18" x1="-100.56" y1="318.15" x2="603.03" y2="318.15" xlink:href="#linear-gradient"/><linearGradient id="linear-gradient-19" x1="-100.56" y1="317.56" x2="603.03" y2="317.56" xlink:href="#linear-gradient"/><linearGradient id="linear-gradient-20" x1="-100.56" y1="317.56" x2="603.03" y2="317.56" xlink:href="#linear-gradient"/><linearGradient id="linear-gradient-21" x1="-100.56" y1="115.85" x2="603.03" y2="115.85" xlink:href="#linear-gradient"/><linearGradient id="linear-gradient-24" x1="-100.56" y1="219.57" x2="603.03" y2="219.57" xlink:href="#linear-gradient"/><linearGradient id="linear-gradient-27" x1="-100.56" y1="219.56" x2="603.03" y2="219.56" xlink:href="#linear-gradient"/><linearGradient id="linear-gradient-28" x1="-100.56" y1="56.51" x2="603.03" y2="56.51" xlink:href="#linear-gradient"/><linearGradient id="linear-gradient-31" x1="-100.56" y1="40.06" x2="603.03" y2="40.06" xlink:href="#linear-gradient"/><linearGradient id="linear-gradient-39" x1="-6111.84" y1="78.36" x2="-5741.59" y2="78.36" gradientTransform="matrix(-1, -0.1, -0.1, 1, -6036.99, -300.48)" xlink:href="#linear-gradient"/><linearGradient id="linear-gradient-40" x1="-6956.07" y1="2.36" x2="-6585.82" y2="2.36" gradientTransform="matrix(-1, -0.1, -0.1, 1, -6036.99, -300.48)" xlink:href="#linear-gradient"/><linearGradient id="linear-gradient-41" x1="-6781.25" y1="-124.94" x2="-6748.41" y2="-124.94" gradientTransform="matrix(-1, -0.1, -0.1, 1, -6036.99, -300.48)" xlink:href="#linear-gradient"/><linearGradient id="linear-gradient-42" x1="-6859.63" y1="-144.28" x2="-6802.89" y2="-144.28" gradientTransform="matrix(-1, -0.1, -0.1, 1, -6036.99, -300.48)" xlink:href="#linear-gradient"/><linearGradient id="linear-gradient-43" x1="-6744.8" y1="-97.7" x2="-6657.35" y2="-97.7" gradientTransform="matrix(-1, -0.1, -0.1, 1, -6036.99, -300.48)" xlink:href="#linear-gradient"/><linearGradient id="linear-gradient-44" x1="-6752.07" y1="-42.63" x2="-6744.94" y2="-42.63" gradientTransform="matrix(-1, -0.1, -0.1, 1, -6036.99, -300.48)" xlink:href="#linear-gradient"/><linearGradient id="linear-gradient-45" x1="-6737.27" y1="-77.92" x2="-6621.57" y2="-77.92" gradientTransform="matrix(-1, -0.1, -0.1, 1, -6036.99, -300.48)" xlink:href="#linear-gradient"/><linearGradient id="linear-gradient-46" x1="-6727.41" y1="-48.83" x2="-6672.02" y2="-48.83" gradientTransform="matrix(-1, -0.1, -0.1, 1, -6036.99, -300.48)" xlink:href="#linear-gradient"/><linearGradient id="linear-gradient-47" x1="-6661.48" y1="-63.91" x2="-6616.57" y2="-63.91" gradientTransform="matrix(-1, -0.1, -0.1, 1, -6036.99, -300.48)" xlink:href="#linear-gradient"/><linearGradient id="linear-gradient-48" x1="-6711.3" y1="-30.93" x2="-6706.48" y2="-30.93" gradientTransform="matrix(-1, -0.1, -0.1, 1, -6036.99, -300.48)" xlink:href="#linear-gradient"/></defs><title>Green-Cities-Summit-1</title><polygon class="cls-1" points="382.36 251.87 328.37 251.87 328.37 226.57 375.63 226.57 375.63 211.75 328.37 211.75 328.37 187.27 381.68 187.27 381.68 172.46 311.82 172.46 311.82 266.68 382.36 266.68 382.36 251.87"/><path class="cls-2" d="M367.89,56.42a12.06,12.06,0,0,1-7.15-2.64L359.17,56a14.2,14.2,0,0,0,8.56,3c4.11,0,7.35-2.27,7.35-6.19v-.09c0-3.7-3.44-4.94-6.64-5.9-2.76-.84-5.3-1.61-5.3-3.56V43.2c0-1.73,1.55-3,4-3a11.62,11.62,0,0,1,6.12,2l1.39-2.33a14.16,14.16,0,0,0-7.42-2.28c-4.07,0-7,2.37-7,5.93v.07c0,3.81,3.6,4.91,6.82,5.83,2.72.77,5.16,1.55,5.16,3.63v.09C372.16,55.14,370.36,56.42,367.89,56.42Z"/><path class="cls-3" d="M346.27,59.09a10.64,10.64,0,0,0,8.51-3.88l-1.93-1.71a8.51,8.51,0,0,1-6.51,2.92c-3.66,0-6.83-2.53-7.26-7h16.37a7.87,7.87,0,0,0,0-1c0-6-3.51-10.91-9.63-10.91-5.71,0-9.91,4.79-9.91,10.75v.07C336,54.74,340.59,59.09,346.27,59.09Zm-.48-19c4.11,0,6.26,3.27,6.58,7H339.08C339.47,43.11,342.2,40.12,345.79,40.12Z"/><path class="cls-4" d="M430.15,53.14c0,4.2,2.52,5.84,5.83,5.84a7.64,7.64,0,0,0,3.72-.89V55.46a6.59,6.59,0,0,1-3,.71c-2.07,0-3.47-.91-3.47-3.44V40.67h6.54V38h-6.54V31.72h-3.08V38h-2.89v2.71h2.89Z"/><path class="cls-5" d="M407.53,46.79c0-3.88,2.64-6.48,6.19-6.48s5.72,2.41,5.72,6.23V58.6h3.07V45.79c0-4.93-2.91-8.27-7.91-8.27a7.8,7.8,0,0,0-7.07,4V38h-3.08V58.6h3.08Z"/><polygon class="cls-6" points="374.19 86.08 374.19 72.41 309.78 72.41 309.78 159.29 374.81 159.29 374.81 145.65 325.04 145.65 325.04 122.3 368.6 122.3 368.6 108.66 325.04 108.66 325.04 86.08 374.19 86.08"/><path class="cls-3" d="M389.83,59.09a10.62,10.62,0,0,0,8.5-3.88l-1.92-1.71a8.51,8.51,0,0,1-6.51,2.92c-3.67,0-6.83-2.53-7.26-7H399c0-.35,0-.6,0-1,0-6-3.5-10.91-9.62-10.91-5.71,0-9.91,4.79-9.91,10.75v.07C379.51,54.74,384.15,59.09,389.83,59.09Zm-.48-19c4.11,0,6.26,3.27,6.58,7H382.64C383,43.11,385.75,40.12,389.35,40.12Z"/><path class="cls-7" d="M325,50.38c0-6.22,3.66-9.46,8.18-9.46h.25V37.59c-3.91-.16-6.92,2.33-8.43,5.77V38h-3.08V58.6H325Z"/><path class="cls-3" d="M252.43,59.09a10.59,10.59,0,0,0,8.5-3.88L259,53.5a8.57,8.57,0,0,1-6.51,2.92c-3.68,0-6.83-2.53-7.28-7h16.37a6.31,6.31,0,0,0,.05-1c0-6-3.52-10.91-9.62-10.91-5.71,0-9.91,4.79-9.91,10.75v.07C242.13,54.74,246.75,59.09,252.43,59.09Zm-.48-19c4.11,0,6.28,3.27,6.6,7H245.24C245.63,43.11,248.36,40.12,252,40.12Z"/><path class="cls-4" d="M212.79,53.14c0,4.2,2.52,5.84,5.83,5.84a7.64,7.64,0,0,0,3.72-.89V55.46a6.59,6.59,0,0,1-3,.71c-2.07,0-3.47-.91-3.47-3.44V40.67h6.54V38h-6.54V31.72h-3.08V38h-2.87v2.71h2.87Z"/><path class="cls-4" d="M228.94,53.14c0,4.2,2.51,5.84,5.82,5.84a7.61,7.61,0,0,0,3.72-.89V55.46a6.55,6.55,0,0,1-3,.71c-2.08,0-3.49-.91-3.49-3.44V40.67h6.57V38H232V31.72h-3.06V38h-2.88v2.71h2.88Z"/><polygon class="cls-6" points="291.04 86.08 291.04 72.41 226.63 72.41 226.63 159.29 291.66 159.29 291.66 145.65 241.9 145.65 241.9 122.3 285.45 122.3 285.45 108.66 241.9 108.66 241.9 86.08 291.04 86.08"/><path class="cls-7" d="M270.13,50.38c0-6.22,3.69-9.46,8.19-9.46h.25V37.59c-3.92-.16-6.92,2.33-8.44,5.77V38h-3.07V58.6h3.07Z"/><path class="cls-2" d="M452.21,56.42a12.06,12.06,0,0,1-7.15-2.64L443.49,56a14.2,14.2,0,0,0,8.56,3c4.11,0,7.35-2.27,7.35-6.19v-.09c0-3.7-3.44-4.94-6.64-5.9-2.76-.84-5.3-1.61-5.3-3.56V43.2c0-1.73,1.55-3,4-3a11.68,11.68,0,0,1,6.12,2L459,39.87a14.16,14.16,0,0,0-7.42-2.28c-4.07,0-7,2.37-7,5.93v.07c0,3.81,3.59,4.91,6.83,5.83,2.72.77,5.16,1.55,5.16,3.63v.09C456.48,55.14,454.68,56.42,452.21,56.42Z"/><path class="cls-8" d="M194.92,59.05a9.06,9.06,0,0,0,7.48-3.56V58.6h2.95V46a8.1,8.1,0,0,0-2.12-6c-1.51-1.51-3.75-2.28-6.67-2.28a17.2,17.2,0,0,0-7.51,1.71l.93,2.52a14.31,14.31,0,0,1,6.26-1.51c3.88,0,6.16,1.91,6.16,5.62v.73a21.59,21.59,0,0,0-6.36-.89c-5.23,0-8.82,2.32-8.82,6.68v.09C187.22,56.86,191.1,59.05,194.92,59.05Zm-4.59-6.64c0-2.6,2.16-4.27,6-4.27a21.45,21.45,0,0,1,6.07.89v2c0,3.28-3.11,5.59-6.9,5.59-2.8,0-5.2-1.51-5.2-4.11Z"/><path class="cls-9" d="M298.91,48.75h6.79c5.95,0,11-3.12,11-9.15v-.09c0-5.51-4.15-8.86-10.46-8.86H295.76v28h3.15Zm0-15.18H306c4.5,0,7.51,2.06,7.51,6.07v.07c0,3.68-3.05,6.15-7.67,6.15h-6.92Z"/><polygon class="cls-1" points="205.08 266.68 221.77 266.68 221.77 187.8 251.65 187.8 251.65 172.46 175.21 172.46 175.21 187.8 205.08 187.8 205.08 266.68"/><path class="cls-10" d="M158.68,323.29c0,14-7.26,21-19.06,21s-19.16-7.48-19.16-21.55V279.67H107.15v43.62c0,22,12.54,33.35,32.26,33.35s32.58-11.35,32.58-34v-43H158.68Z"/><polygon class="cls-11" points="227.54 315.5 204.48 279.67 190.3 279.67 190.3 355.45 203.39 355.45 203.39 301.32 227.09 336.83 227.54 336.83 251.45 301.11 251.45 355.45 264.78 355.45 264.78 279.67 250.6 279.67 227.54 315.5"/><path class="cls-12" d="M68.38,311.5C53.77,308,50.3,305.45,50.3,299.59v-.21c0-5,4.56-9,12.35-9,6.92,0,13.75,2.71,20.57,7.8l7.13-10.07a41.9,41.9,0,0,0-27.49-9.52c-15,0-25.87,9-25.87,22v.22c0,14,9.09,18.71,25.21,22.61,14.08,3.26,17.12,6.17,17.12,11.6v.22c0,5.62-5.19,9.51-13.43,9.51-9.31,0-16.67-3.57-23.92-9.85l-8,9.53a46.71,46.71,0,0,0,31.62,12.12c15.92,0,27.06-8.43,27.06-22.61v-.22C92.63,321.14,84.41,315.39,68.38,311.5Z"/><path class="cls-13" d="M80.8,160.77A55.34,55.34,0,0,0,117,147.25V110.77h-37v13.28h22.22v16.26a35.47,35.47,0,0,1-21,6.57c-17.74,0-29.54-13.15-29.54-31v-.25C51.76,99,63.93,85,79.93,85c11,0,17.63,3.59,24.34,9.3L114,82.71c-9-7.56-18.26-11.77-33.4-11.77-26.17,0-44.8,20.6-44.8,44.92v.23C35.75,141.41,53.63,160.77,80.8,160.77Z"/><polygon class="cls-9" points="45.14 58.6 48.34 58.6 48.34 33.57 57.72 33.57 57.72 30.65 35.75 30.65 35.75 33.57 45.14 33.57 45.14 58.6"/><rect class="cls-1" x="270.1" y="172.46" width="16.55" height="94.21"/><path class="cls-14" d="M83.66,268.3c17.64,0,28.42-6.48,38.24-16.69l-10.64-10.79c-8.08,7.55-15.48,12.12-27.05,12.12-18,0-31.1-14.93-31.1-33.38v-.27c0-18.43,13.2-33.23,31.1-33.23,10.77,0,18.85,4.69,26.37,11.7l10.64-12.26c-9-8.61-19.51-14.66-36.88-14.66-28.52,0-48.59,21.94-48.59,48.72v.27C35.75,246.89,56.21,268.3,83.66,268.3Z"/><polygon class="cls-6" points="453.62 132.48 407.07 72.41 392.92 72.41 392.92 159.29 407.94 159.29 407.94 97.48 455.86 159.29 468.63 159.29 468.63 72.41 453.62 72.41 453.62 132.48"/><polygon class="cls-11" points="321.5 315.5 298.44 279.67 284.26 279.67 284.26 355.45 297.36 355.45 297.36 301.32 321.07 336.83 321.5 336.83 345.43 301.11 345.43 355.45 358.74 355.45 358.74 279.67 344.56 279.67 321.5 315.5"/><path class="cls-15" d="M438.47,212c-18.16-4.3-22.47-7.54-22.47-14.82V197c0-6.2,5.66-11.18,15.36-11.18,8.61,0,17.08,3.38,25.57,9.7L465.8,183c-9.55-7.69-20.46-11.85-34.18-11.85-18.71,0-32.17,11.17-32.17,27.31v.29c0,17.36,11.3,23.27,31.36,28.13,17.5,4,21.26,7.67,21.26,14.39v.27c0,7-6.46,11.85-16.69,11.85-11.57,0-20.73-4.45-29.73-12.26l-10,11.85A58,58,0,0,0,435,268c19.78,0,33.64-10.5,33.64-28.13v-.27C468.63,224,458.4,216.87,438.47,212Z"/><rect class="cls-16" x="464.95" y="54.42" width="3.68" height="4.18"/><rect class="cls-11" x="378.99" y="279.67" width="13.31" height="75.78"/><polygon class="cls-11" points="407.14 292.01 431.18 292.01 431.18 355.45 444.6 355.45 444.6 292.01 468.63 292.01 468.63 279.67 407.14 279.67 407.14 292.01"/><rect class="cls-17" x="464.95" y="37.96" width="3.68" height="4.18"/><path class="cls-6" d="M152.17,129h19.11l21.35,30.29h18.11l-23.45-32.9c12-3.47,20.6-12,20.6-26.3v-.25a26.26,26.26,0,0,0-7.2-18.74c-5.59-5.46-14.15-8.7-25.07-8.7H136.9V159.3h15.27Zm0-42.68h22.2c11.3,0,18,5.07,18,14.39V101c0,8.81-7,14.52-17.88,14.52H152.17Z"/><path class="cls-3" d="M107.56,59.09a10.66,10.66,0,0,0,8.52-3.88l-1.92-1.71a8.54,8.54,0,0,1-6.51,2.92c-3.68,0-6.83-2.53-7.28-7h16.39c0-.35,0-.6,0-1,0-6-3.52-10.91-9.62-10.91-5.71,0-9.91,4.79-9.91,10.75v.07C97.26,54.74,101.9,59.09,107.56,59.09Zm-.48-19c4.13,0,6.28,3.27,6.6,7H100.37C100.78,43.11,103.48,40.12,107.08,40.12Z"/><path class="cls-7" d="M62.65,50.38c0-6.22,3.68-9.46,8.18-9.46h.25V37.59c-3.91-.16-6.92,2.33-8.43,5.77V38H59.57V58.6h3.08Z"/><rect class="cls-1" x="140.21" y="172.46" width="16.55" height="94.21"/><path class="cls-2" d="M129.18,56.42A12.06,12.06,0,0,1,122,53.78L120.48,56A14.08,14.08,0,0,0,129,59c4.13,0,7.36-2.27,7.36-6.19v-.09c0-3.7-3.43-4.94-6.63-5.9-2.76-.84-5.32-1.61-5.32-3.56V43.2c0-1.73,1.56-3,4-3a11.53,11.53,0,0,1,6.1,2l1.41-2.33a14.2,14.2,0,0,0-7.44-2.28c-4.07,0-7,2.37-7,5.93v.07c0,3.81,3.6,4.91,6.84,5.83,2.72.77,5.16,1.55,5.16,3.63v.09C133.47,55.14,131.67,56.42,129.18,56.42Z"/><path class="cls-3" d="M83.91,59.09a10.62,10.62,0,0,0,8.51-3.88L90.5,53.5A8.54,8.54,0,0,1,84,56.42c-3.66,0-6.83-2.53-7.26-7H93.09a7.87,7.87,0,0,0,0-1c0-6-3.51-10.91-9.63-10.91-5.71,0-9.89,4.79-9.89,10.75v.07C73.61,54.74,78.24,59.09,83.91,59.09Zm-.48-19c4.11,0,6.27,3.27,6.59,7H76.72C77.12,43.11,79.84,40.12,83.43,40.12Z"/><polygon class="cls-9" points="157.68 36.01 167.86 50.94 168.02 50.94 178.22 35.95 178.22 58.6 181.37 58.6 181.37 30.65 178.18 30.65 167.99 45.9 157.81 30.65 154.6 30.65 154.6 58.6 157.68 58.6 157.68 36.01"/><path class="cls-18" d="M-22.23,147.64A78.91,78.91,0,0,0-42.7,133.58c-5.81-2.89-13.12-6.13-19.62-6.66a62.13,62.13,0,0,0-13.83.43c-2.22.32-4.65-.12-6.91,0-3.56-6.58-13.06-9.24-19.87-10.31-9.35-1.46-20.46-1.68-28.85,3.46h-.34c-5.39.44-10.14-1.22-15.42-1.73a100.86,100.86,0,0,0-16.67-.36c-7.58.53-13.57,5-19.8,8.93-14.12,8.86-44.06,12.31-44,34.37a1.56,1.56,0,0,0,.41,1.12c-.49,4.64,2.89,10.56,4.71,14.05,5.93,11.37,13.81,21.82,21.28,32.19,5.65,7.85,10.69,16,15.73,24.14-7.05-8.5-14.5-16.74-21.31-25s-13.26-17.27-20.24-25.62c-5.13-6.14-11.52-13.63-19.65-15.6a9.2,9.2,0,0,0-7.89,1.75,13.13,13.13,0,0,0-3.32,4.33c-.65,1.3-.83,4.77-1.86,5.52a.87.87,0,0,0-.38.87c-3.77,1.27-9,1.53-12.12,4-4.74,3.82-7.91,9.36-12.82,12.88-4.12,3-7.13,2.83-9.44,7.94a31.51,31.51,0,0,0-1.56,5.67c-.92,3.84-3.71,6.56-6.3,9.36a28.13,28.13,0,0,0-6.84,11.19c-1.19,3.83.7,13.14-3.09,15.13-2.34,1.23-2,3.71-1.95,6.1.05,3.28,1.34,7-1,10a38.71,38.71,0,0,0-4.32,6.77c-4.82,9.63-6.44,17.62-4.88,28.42,1,6.81,1.82,12.86.14,19.64-1,4.2-1.93,8-1.81,12.36.19,7.14,4.39,14.6,7.17,21,2.66,6.09,5.68,13.18,13.5,12.38a1.11,1.11,0,0,0,1-1.24c7.92,1.64,16.31.21,24.45-2.28,15.54-4.76,30.42-12.49,45.12-19.31,17.79-8.24,35.71-16.06,54.85-20.63,7.56-1.8,15.36-3.36,23.15-3.44a36.53,36.53,0,0,1,14.59,3.22,64,64,0,0,1,6.74,6.32c6.88,7,12.77,15.07,18.44,23.08,14.32,20.22,26.58,42,38.34,63.76,14.16,26.21,27.41,52.86,41.88,78.93,8.32,15,16.54,30,24.21,45.38,7.5,15,13.64,30.6,20.42,45.91a1.4,1.4,0,0,0,.73,1.86l.11,0,.5,1.13c.34.75,1.37.29,1.39-.41,4.36,1.28,8.15-.09,8.58-5.91.47-6.47-3.22-14.85-5.61-20.87C1,527.26-17.38,499.39-33,470.72c-17-31.22-33.72-62.62-51.76-93.3Q-97.9,355.13-112,333.47c-3.44-5.24-7.27-10.29-10.07-15.91-2.11-4.22-2.87-10.08-3.1-15.33,2.5-10.41,10-20,16.75-27.53,13-14.57,28.6-26.8,43.52-39.3,14.56-12.2,29.48-24.66,41-39.89a65,65,0,0,0,10.3-19.23A37.91,37.91,0,0,0-12,166.66a13.45,13.45,0,0,0,0-1.92,1.36,1.36,0,0,0,.33-.81C-11.47,157.23-17.85,152-22.23,147.64Zm-12.2,52.19c-13.24,14.65-28.95,26.95-44,39.61-19.76,16.6-56.82,43.34-48.4,73.35a25.13,25.13,0,0,0,3.43,10.51c7.41,12.78,16.34,24.78,24.14,37.34,17.33,27.93,33.23,56.73,49.17,85.47,15.76,28.41,32.09,56.53,47,85.38C2.42,542.17,8.19,553,12,564.46c1.29,3.92,5.36,18.19-2.72,16.32h0c-4-15.45-10.86-30-17.79-44.36C-16.81,519.35-26,502.77-35.22,486.2c-14.94-26.94-28.52-54.56-43.25-81.6-12.28-22.53-25.44-44.82-40.71-65.48-5.92-8-17.71-25.76-29.82-25.83a42.79,42.79,0,0,0-17-1c-18,2.18-35.38,8.21-52,15.19-17.57,7.37-34.63,15.9-52.26,23.18-13.71,5.66-27.44,9.57-41.77,5.58-3.48-3.61-5.25-8.9-6.2-14.19-1.23-6.81-4.51-11.52-4.37-17.81,4,.37,9.07-1.36,12.77-2.09,8.65-1.69,17.2-3.54,26-4.18,15.69-1.13,31.52.8,47.25-.13,27-1.6,55.2-12.61,82.29-7.46,0,0,0,0,0,0-25.82-5.83-51.46,1.55-77.3,3.85-15.54,1.37-31.57-.18-47.16-.44-7.61-.13-15.23,1.16-22.68,2.58-4,.76-7.94,1.62-11.91,2.42-2.44.5-6.05,1.8-8.78,1.65.11-.44.21-.88.35-1.34,2.42-7.95,2.41-14.59,1.6-22.19,13.14,3.81,27.65-.78,41.15.74,17.39,1.95,35.08,2,52.56,1.82.32,0,.31-.47,0-.5-16.14-1.22-32.36-.64-48.51-2.12-7.08-.65-13.57-1.88-20.74-1.59-8.33.33-16.91.84-24.89-2h0l-.18-1.41c-1.54-11.47,1.07-22.37,8.42-31.36,1.28-1.57.78-5,.69-6.81s-1-4.66,1.21-5.33a3,3,0,0,0,1.89-1.17c1.49-2.39,1.11-6.66,1.25-9.31.43-7.66,3-12.49,8.13-17.9a23.18,23.18,0,0,0,5.75-9.23,48,48,0,0,1,2.07-6.53c1.28-2.77,6.47-4.22,9-6,.42-.3.83-.62,1.24-1,9.69,9.36,19.9,16.5,31,24.07,12.55,8.57,24.7,17.68,37,26.63,10.43,7.62,21.55,14.15,31.91,21.92a177.52,177.52,0,0,1,29.1,27.7c.06.07.17,0,.12-.1-5.43-10.37-15.62-18.48-24.55-25.69-10.57-8.53-21.66-16.1-31.67-25.32a314.36,314.36,0,0,0-32.8-26,203,203,0,0,0-19.11-11.83c-6.75-3.67-12.33-9.17-17.89-14.4,1.7-1.85,3.3-3.84,4.88-5.56,3.83-4.15,9.21-4.61,13.67-7.58a1,1,0,0,0,.37-1.19c2.21-1.3,3.33-5.7,5.14-7.69,2.87-3.14,6.67-1.93,9.92-.17,7.42,4,13.16,11.71,18.34,18.16,6.6,8.21,13.2,16.34,20.06,24.35,10.6,12.37,20.69,25.73,31.83,37.7,4.78,7,9.77,13.87,14.66,20.86,6.8,9.7,13.15,20.28,20.53,29.5a.37.37,0,0,0,.63-.38c-4-9.18-10.93-17.22-16.68-25.36-6.35-9-12.12-18.34-18.13-27.57-8-12.36-14.83-25.47-23.41-37.46-6.85-9.58-13.74-19.14-19.89-29.2-2.24-3.67-9.3-13.43-9.42-19.74a1.75,1.75,0,0,0,.66-.82c3.64-9.91,10.62-14.61,19.9-18.92,4.69-2.18,9-4.48,13.31-6.94,5.59,27.11,18.05,52.4,27.12,78.38,4.35,12.45,8.42,25,10.82,38,2.17,11.83,7.15,26.67,14.4,36.37.18.24.64.1.52-.22-4.52-12.3-9.8-23.9-13.32-36.59s-6.85-25.43-11-37.94c-4.23-12.9-7.93-26-12.26-38.89-4.58-13.66-9.61-27.12-12.72-41.21,2.5-1.51,5-3.07,7.55-4.72a100.56,100.56,0,0,1,9.21-5.68c-.74,10,2.13,21.12,4.44,30.6,3.35,13.73,7.92,27.16,11.69,40.78,3.91,14.11,6.54,28.57,10.28,42.74a386.91,386.91,0,0,1,8.66,43.45c0,.08.12.05.13,0,.86-13.26-2.85-26.26-6.22-39-3.62-13.65-6.41-27.21-9.31-41-2.74-13-7.14-25.67-10.8-38.46-1.93-6.75-3.6-13.57-4.9-20.47-.69-3.67-1.13-7.37-1.48-11.09-.19-2.12-1-5.66-1.08-8.24a22,22,0,0,1,8.49-1.9,53.5,53.5,0,0,1,15.41,1.8c4.87,1.44,8.74,3.31,13.93,2.69a2.63,2.63,0,0,0,2-1.25,62.48,62.48,0,0,1,21.39-4.47c-1.14,4.32-2.62,8.46-3.46,13-1.24,6.71-2.33,13.44-3.42,20.16-2.07,12.74-3.83,25.56-5,38.41-1.23,13.47-1.21,27-1.68,40.52s-1,27.16.52,40.47a.15.15,0,0,0,.3,0c.73-12.6.34-25.32.78-37.95.48-13.61,2.3-27,3.72-40.55,1.41-13.36,3-26.69,5.06-40,1-6.73,2.26-13.44,3.54-20.13.84-4.43.89-9.5,1.89-13.73a2.18,2.18,0,0,0,0-.25,29.13,29.13,0,0,1,20.19,8.29.42.42,0,0,0,0,.39,4.43,4.43,0,0,0,1.61,1.55,2.35,2.35,0,0,0-.64,1C-92,149.23-92.77,169-99,187.27c-6.86,20.14-8.58,41.64-11.61,62.57-.07.42.58.58.64.15,3.12-21.13,4.9-42,13.6-61.7,7.88-17.88,8.72-37.9,15.56-56.15a2.22,2.22,0,0,0,.14-.92c2.3.27,4.77.14,6.47.25,8,.51,15.62-.27,23.34,2.32a76.49,76.49,0,0,1,23.49,13.39A34.94,34.94,0,0,1-18.57,157c.41.71.78,1.43,1.14,2.14C-13.35,174.08-24.8,189.2-34.43,199.83Z"/><path class="cls-19" d="M825.41,152.37a79.13,79.13,0,0,0-20.48-14.06c-5.8-2.89-13.12-6.13-19.62-6.67a61.43,61.43,0,0,0-13.82.44c-2.23.31-4.66-.12-6.92,0-3.55-6.57-13.05-9.23-19.86-10.3-9.35-1.47-20.47-1.68-28.85,3.46-.12,0-.23,0-.35,0-5.39.45-10.13-1.21-15.42-1.72a99.68,99.68,0,0,0-16.66-.37c-7.58.54-13.58,5-19.8,8.93-14.12,8.86-44.07,12.32-44,34.38a1.48,1.48,0,0,0,.42,1.11c-.5,4.64,2.88,10.57,4.71,14.06,5.92,11.37,13.8,21.81,21.27,32.19,5.66,7.84,10.69,16,15.73,24.14-7.05-8.5-14.49-16.75-21.31-25.06s-13.26-17.27-20.24-25.62c-5.13-6.13-11.51-13.63-19.64-15.59a9.19,9.19,0,0,0-7.9,1.75,13,13,0,0,0-3.32,4.33c-.65,1.29-.83,4.77-1.86,5.51a.87.87,0,0,0-.38.87c-3.76,1.27-9,1.53-12.12,4C570.22,192,567,197.51,562.13,201c-4.12,3-7.12,2.83-9.44,7.94a32.33,32.33,0,0,0-1.55,5.67c-.93,3.84-3.72,6.56-6.31,9.35A28.07,28.07,0,0,0,538,235.19c-1.19,3.84.69,13.14-3.1,15.14-2.33,1.23-2,3.7-1.94,6.09,0,3.28,1.33,7-1,10a38.55,38.55,0,0,0-4.32,6.77c-4.81,9.62-6.44,17.61-4.87,28.42,1,6.81,1.81,12.85.14,19.63-1,4.2-1.94,8-1.82,12.36.19,7.14,4.39,14.6,7.17,21,2.67,6.1,5.68,13.19,13.5,12.39a1.11,1.11,0,0,0,1-1.25c7.92,1.65,16.31.21,24.45-2.28,15.54-4.76,30.42-12.49,45.12-19.3,17.79-8.25,35.72-16.06,54.85-20.63,7.56-1.81,15.36-3.37,23.15-3.45A36.67,36.67,0,0,1,705,323.24a66.25,66.25,0,0,1,6.75,6.32c6.88,7,12.76,15.08,18.43,23.08,14.32,20.23,26.58,42,38.35,63.76,14.16,26.22,27.41,52.87,41.87,78.94,8.32,15,16.54,30,24.21,45.38,7.5,15,13.64,30.59,20.42,45.91a1.4,1.4,0,0,0,.73,1.85l.11,0c.17.37.33.75.5,1.12.34.76,1.37.29,1.4-.41,4.36,1.29,8.14-.09,8.57-5.91.48-6.46-3.22-14.85-5.6-20.87-12.07-30.48-30.43-58.35-46.09-87-17.05-31.23-33.72-62.63-51.76-93.3q-13.1-22.31-27.25-44c-3.44-5.24-7.27-10.28-10.07-15.9-2.11-4.23-2.87-10.09-3.09-15.33,2.5-10.42,10-20,16.74-27.53,13-14.57,28.6-26.81,43.52-39.31,14.56-12.19,29.49-24.65,41-39.89A64.85,64.85,0,0,0,834,181a37.82,37.82,0,0,0,1.66-9.62,13.28,13.28,0,0,0,0-1.91,1.42,1.42,0,0,0,.34-.82C836.17,162,829.78,156.68,825.41,152.37Zm-12.2,52.19c-13.25,14.64-29,26.95-44,39.61-19.76,16.59-56.82,43.34-48.4,73.34A25.27,25.27,0,0,0,724.2,328c7.41,12.77,16.35,24.78,24.14,37.33,17.33,27.93,33.23,56.73,49.17,85.47,15.76,28.41,32.09,56.53,47,85.39,5.53,10.67,11.3,21.52,15.06,33,1.29,3.91,5.36,18.18-2.72,16.31h0c-4-15.44-10.86-30-17.79-44.35-8.23-17.07-17.45-33.65-26.64-50.22-14.94-26.95-28.52-54.56-43.25-81.61-12.28-22.53-25.44-44.82-40.71-65.47-5.92-8-17.71-25.76-29.82-25.84a43,43,0,0,0-17-1c-18,2.17-35.38,8.21-52,15.18-17.58,7.38-34.64,15.91-52.27,23.18-13.71,5.66-27.43,9.57-41.77,5.58-3.48-3.61-5.25-8.9-6.2-14.18-1.23-6.81-4.5-11.52-4.37-17.81,4,.37,9.08-1.37,12.77-2.09,8.65-1.69,17.2-3.54,26-4.18,15.69-1.14,31.52.8,47.25-.13,27-1.61,55.2-12.61,82.3-7.46,0,0,0,0,0,0-25.82-5.83-51.45,1.55-77.29,3.84-15.54,1.38-31.58-.18-47.17-.44-7.61-.13-15.22,1.17-22.67,2.59-4,.75-7.94,1.61-11.92,2.42-2.44.49-6,1.79-8.78,1.64.11-.44.21-.88.36-1.34,2.42-7.95,2.4-14.59,1.59-22.18,13.15,3.81,27.65-.79,41.15.73,17.39,2,35.09,2.05,52.56,1.83a.25.25,0,0,0,0-.5c-16.14-1.22-32.36-.65-48.5-2.13-7.09-.65-13.57-1.87-20.74-1.59-8.34.33-16.91.85-24.89-2h0q-.09-.69-.18-1.41c-1.53-11.46,1.08-22.36,8.43-31.36,1.28-1.56.77-5,.68-6.8s-1-4.67,1.21-5.33a3.11,3.11,0,0,0,1.89-1.18c1.49-2.38,1.11-6.66,1.26-9.31.43-7.65,3-12.49,8.12-17.9a23,23,0,0,0,5.75-9.22,48.59,48.59,0,0,1,2.07-6.54c1.28-2.77,6.47-4.21,9-6,.42-.3.83-.62,1.24-1,9.7,9.36,19.9,16.5,31,24.06,12.54,8.57,24.69,17.68,37,26.64,10.44,7.62,21.55,14.14,31.91,21.91a177.52,177.52,0,0,1,29.1,27.7c.06.08.17,0,.13-.1-5.43-10.37-15.63-18.48-24.56-25.69-10.57-8.52-21.66-16.1-31.66-25.31a311.85,311.85,0,0,0-32.81-25.95,201.74,201.74,0,0,0-19.11-11.83c-6.75-3.68-12.33-9.18-17.89-14.41,1.7-1.85,3.3-3.83,4.89-5.56,3.82-4.15,9.2-4.61,13.66-7.58a1,1,0,0,0,.37-1.18c2.21-1.3,3.33-5.71,5.14-7.69,2.87-3.15,6.67-1.93,9.92-.18,7.42,4,13.16,11.72,18.34,18.17,6.61,8.2,13.21,16.34,20.07,24.34,10.59,12.37,20.69,25.73,31.82,37.7,4.78,7,9.77,13.88,14.66,20.86,6.8,9.71,13.15,20.29,20.53,29.5a.37.37,0,0,0,.63-.37c-4-9.19-10.93-17.22-16.68-25.36-6.35-9-12.12-18.35-18.12-27.57-8.05-12.36-14.84-25.47-23.41-37.46-6.86-9.59-13.75-19.15-19.89-29.21-2.24-3.66-9.31-13.42-9.43-19.73a1.78,1.78,0,0,0,.66-.83c3.65-9.91,10.62-14.61,19.9-18.91,4.69-2.18,9-4.48,13.31-6.95,5.59,27.12,18.06,52.4,27.12,78.39,4.35,12.45,8.43,25,10.82,38,2.18,11.82,7.15,26.66,14.41,36.36.17.24.63.1.51-.22-4.52-12.29-9.8-23.9-13.32-36.59s-6.85-25.42-10.95-37.93c-4.24-12.9-7.94-26-12.27-38.89-4.58-13.66-9.61-27.12-12.72-41.21,2.5-1.51,5-3.08,7.55-4.72a100.85,100.85,0,0,1,9.22-5.69c-.74,10,2.12,21.12,4.44,30.61,3.34,13.73,7.91,27.15,11.68,40.77,3.91,14.11,6.54,28.58,10.28,42.75A384.24,384.24,0,0,1,711.41,286c0,.08.13,0,.13,0,.86-13.26-2.85-26.27-6.22-38.95-3.62-13.65-6.41-27.22-9.31-41-2.74-13-7.14-25.67-10.8-38.46-1.93-6.75-3.6-13.56-4.89-20.46-.69-3.67-1.13-7.38-1.48-11.1-.2-2.11-1-5.65-1.09-8.23a21.82,21.82,0,0,1,8.49-1.9,53.11,53.11,0,0,1,15.41,1.8c4.87,1.44,8.75,3.3,13.93,2.68a2.62,2.62,0,0,0,2-1.24A62.82,62.82,0,0,1,739,124.61c-1.14,4.32-2.62,8.47-3.46,13-1.24,6.7-2.33,13.43-3.42,20.16-2.07,12.74-3.83,25.55-5,38.41-1.23,13.46-1.21,27-1.68,40.52-.47,13.36-1,27.15.52,40.46a.15.15,0,0,0,.3,0c.74-12.61.34-25.32.79-38,.47-13.62,2.29-27,3.71-40.55,1.41-13.36,3-26.69,5.06-40,1-6.74,2.27-13.44,3.54-20.13.85-4.43.89-9.51,1.89-13.74a1,1,0,0,0,0-.24,29.13,29.13,0,0,1,20.19,8.29.4.4,0,0,0,0,.38,4.35,4.35,0,0,0,1.6,1.56,2.45,2.45,0,0,0-.64,1c-6.75,18.19-7.53,37.91-13.77,56.22-6.85,20.14-8.58,41.64-11.61,62.57-.06.42.58.58.64.16,3.12-21.14,4.9-42,13.6-61.7,7.88-17.88,8.72-37.91,15.56-56.15A2.11,2.11,0,0,0,767,136c2.3.26,4.76.14,6.47.25,8,.5,15.61-.28,23.33,2.32a76.13,76.13,0,0,1,23.5,13.39,34.92,34.92,0,0,1,8.8,9.84c.41.71.78,1.42,1.15,2.13C834.28,178.8,822.83,193.92,813.21,204.56Z"/><path class="cls-20" d="M700,143a.08.08,0,0,0-.16,0c8.41,23.83,3.5,50.41,8.64,74.9,5.42,25.87,11.07,50.53,8.33,77.14,0,.23.33.25.39,0,6.67-23.64-.82-50.27-6.1-73.48C705.1,195.47,709.81,168.28,700,143Z"/><path class="cls-21" d="M809.59,153.24c-3,2.41-4.72,5.46-6.91,8.68-3.92,5.78-8.08,11.42-12.21,17.06-6.91,9.42-13.86,18.81-20,28.77-10.18,16.56-12.53,37.53-27.08,51.49,0,0,0,0,0,0,14.05-12.11,17.64-31.84,27.16-47.08,6.74-10.79,14.39-21,22-31.22q4.89-6.57,9.69-13.23c3.09-4.3,7-8.62,8.22-13.83C810.59,153.44,810,152.9,809.59,153.24Z"/><path class="cls-22" d="M603,200.57a.08.08,0,0,0-.11.12c12.57,13.9,26.26,26.5,39.93,39.31s26.35,26.42,39.51,39.68c.39.4,1.11-.15.77-.61-10.39-14.42-23.89-26.7-36.78-38.83C632,226.82,617.35,213.83,603,200.57Z"/><path class="cls-23" d="M681.56,298.09c-.1,0-.13.17,0,.19a14.63,14.63,0,0,1,3.48,1,23.84,23.84,0,0,1,3,1.77c.25.16.48-.21.29-.4A8.82,8.82,0,0,0,681.56,298.09Z"/><path class="cls-24" d="M615.75,254.38c-8.68-5.9-16.92-12.43-25.52-18.44-7.49-5.25-15.81-11.11-24.88-13.12a.53.53,0,0,0-.38,1c8.26,4.52,16.47,8.59,24.29,13.93,8.66,5.91,16.9,12.44,25.52,18.43,19,13.22,39.44,24.76,59.27,36.71.19.11.34-.18.16-.29C654.55,280.27,634.93,267.42,615.75,254.38Z"/><path class="cls-25" d="M610.51,276.26a.17.17,0,0,0-.12.31c17.85,7.68,34.21,18.86,52.86,24.62.37.11.5-.46.14-.58C644.89,294.46,629,282.26,610.51,276.26Z"/><path class="cls-26" d="M556.29,263c-.47-.05-.62.68-.22.87,13.39,6.25,29.52,6.72,43.91,8.95a.07.07,0,0,0,0-.14C585.53,269.92,571,264.59,556.29,263Z"/><path class="cls-27" d="M642.16,306.86a.17.17,0,0,0-.08.31,9,9,0,0,0,4.59.57c.14,0,.15-.24,0-.23A42.77,42.77,0,0,1,642.16,306.86Z"/></svg>