<svg id="Layer_1" data-name="Layer 1" xmlns="http://www.w3.org/2000/svg" xmlns:xlink="http://www.w3.org/1999/xlink" viewBox="0 0 247.5 185.25"><defs><style>.cls-1{fill:url(#linear-gradient);}.cls-2{fill:url(#linear-gradient-2);}.cls-3{fill:url(#linear-gradient-3);}.cls-4{fill:url(#linear-gradient-4);}.cls-5{fill:url(#linear-gradient-5);}.cls-6{fill:url(#linear-gradient-6);}.cls-7{fill:url(#linear-gradient-8);}.cls-8{fill:url(#linear-gradient-15);}.cls-9{fill:url(#linear-gradient-16);}.cls-10{fill:url(#linear-gradient-18);}.cls-11{fill:url(#linear-gradient-19);}.cls-12{fill:url(#linear-gradient-20);}.cls-13{fill:url(#linear-gradient-24);}.cls-14{fill:url(#linear-gradient-27);}.cls-15{fill:url(#linear-gradient-28);}.cls-16{fill:url(#linear-gradient-31);}</style><linearGradient id="linear-gradient" x1="-74.47" y1="107.23" x2="320.97" y2="107.23" gradientUnits="userSpaceOnUse"><stop offset="0" stop-color="#009444"/><stop offset="0.32" stop-color="#009444"/><stop offset="0.38" stop-color="#069644"/><stop offset="0.46" stop-color="#179c43"/><stop offset="0.56" stop-color="#33a642"/><stop offset="0.66" stop-color="#5ab441"/><stop offset="0.77" stop-color="#8bc53f"/><stop offset="0.78" stop-color="#8dc63f"/></linearGradient><linearGradient id="linear-gradient-2" x1="-74.47" y1="10.97" x2="320.97" y2="10.97" xlink:href="#linear-gradient"/><linearGradient id="linear-gradient-3" x1="-74.47" y1="10.97" x2="320.97" y2="10.97" xlink:href="#linear-gradient"/><linearGradient id="linear-gradient-4" x1="-74.47" y1="9.31" x2="320.97" y2="9.31" xlink:href="#linear-gradient"/><linearGradient id="linear-gradient-5" x1="-74.47" y1="10.84" x2="320.97" y2="10.84" xlink:href="#linear-gradient"/><linearGradient id="linear-gradient-6" x1="-74.47" y1="48.94" x2="320.97" y2="48.94" xlink:href="#linear-gradient"/><linearGradient id="linear-gradient-8" x1="-74.47" y1="10.85" x2="320.97" y2="10.85" xlink:href="#linear-gradient"/><linearGradient id="linear-gradient-15" x1="-74.47" y1="11.01" x2="320.97" y2="11.01" xlink:href="#linear-gradient"/><linearGradient id="linear-gradient-16" x1="-74.47" y1="8.91" x2="320.97" y2="8.91" xlink:href="#linear-gradient"/><linearGradient id="linear-gradient-18" x1="-74.47" y1="162.63" x2="320.97" y2="162.63" xlink:href="#linear-gradient"/><linearGradient id="linear-gradient-19" x1="-74.47" y1="162.3" x2="320.97" y2="162.3" xlink:href="#linear-gradient"/><linearGradient id="linear-gradient-20" x1="-74.47" y1="162.3" x2="320.97" y2="162.3" xlink:href="#linear-gradient"/><linearGradient id="linear-gradient-24" x1="-74.47" y1="107.23" x2="320.97" y2="107.23" xlink:href="#linear-gradient"/><linearGradient id="linear-gradient-27" x1="-74.47" y1="107.22" x2="320.97" y2="107.22" xlink:href="#linear-gradient"/><linearGradient id="linear-gradient-28" x1="-74.47" y1="15.59" x2="320.97" y2="15.59" xlink:href="#linear-gradient"/><linearGradient id="linear-gradient-31" x1="-74.47" y1="6.34" x2="320.97" y2="6.34" xlink:href="#linear-gradient"/></defs><title>Green-Cities-Summit</title><polygon class="cls-1" points="196.94 125.38 166.6 125.38 166.6 111.16 193.16 111.16 193.16 102.83 166.6 102.83 166.6 89.07 196.56 89.07 196.56 80.75 157.3 80.75 157.3 133.7 196.94 133.7 196.94 125.38"/><path class="cls-2" d="M188.81,15.53a6.81,6.81,0,0,1-4-1.48l-.88,1.23A8,8,0,0,0,188.72,17c2.31,0,4.13-1.28,4.13-3.48v0c0-2.08-1.93-2.78-3.73-3.32-1.55-.47-3-.9-3-2v0c0-1,.87-1.69,2.24-1.69a6.57,6.57,0,0,1,3.44,1.13l.78-1.31A8,8,0,0,0,188.43,5c-2.29,0-4,1.33-4,3.33v0c0,2.14,2,2.76,3.83,3.28,1.53.43,2.9.87,2.9,2v0C191.21,14.81,190.2,15.53,188.81,15.53Z"/><path class="cls-3" d="M176.66,17a6,6,0,0,0,4.78-2.18l-1.08-1a4.78,4.78,0,0,1-3.66,1.64,4.05,4.05,0,0,1-4.08-3.93h9.2a5.06,5.06,0,0,0,0-.56c0-3.39-2-6.13-5.41-6.13-3.21,0-5.57,2.69-5.57,6v0A5.77,5.77,0,0,0,176.66,17Zm-.27-10.66c2.31,0,3.52,1.84,3.7,4h-7.47C172.84,8.05,174.37,6.37,176.39,6.37Z"/><path class="cls-4" d="M223.8,13.69A3,3,0,0,0,227.08,17a4.31,4.31,0,0,0,2.09-.5V15a3.67,3.67,0,0,1-1.69.4,1.72,1.72,0,0,1-1.95-1.93V6.68h3.68V5.16h-3.68V1.65H223.8V5.16h-1.62V6.68h1.62Z"/><path class="cls-5" d="M211.09,10.12a3.42,3.42,0,0,1,3.48-3.64c2,0,3.21,1.35,3.21,3.5v6.78h1.73V9.56c0-2.77-1.64-4.65-4.45-4.65a4.38,4.38,0,0,0-4,2.27v-2h-1.73v11.6h1.73Z"/><polygon class="cls-6" points="192.35 32.2 192.35 24.52 156.15 24.52 156.15 73.35 192.7 73.35 192.7 65.68 164.73 65.68 164.73 52.56 189.21 52.56 189.21 44.89 164.73 44.89 164.73 32.2 192.35 32.2"/><path class="cls-3" d="M201.14,17a6,6,0,0,0,4.78-2.18l-1.08-1a4.78,4.78,0,0,1-3.66,1.64,4.05,4.05,0,0,1-4.08-3.93h9.2a5.06,5.06,0,0,0,0-.56c0-3.39-2-6.13-5.41-6.13-3.21,0-5.57,2.69-5.57,6v0A5.77,5.77,0,0,0,201.14,17Zm-.27-10.66c2.31,0,3.52,1.84,3.7,4H197.1C197.32,8.05,198.85,6.37,200.87,6.37Z"/><path class="cls-7" d="M164.71,12.14c0-3.5,2.06-5.32,4.6-5.32h.14V5a5,5,0,0,0-4.74,3.24v-3H163v11.6h1.73Z"/><path class="cls-3" d="M123.92,17a6,6,0,0,0,4.78-2.18l-1.07-1A4.82,4.82,0,0,1,124,15.53a4.06,4.06,0,0,1-4.09-3.93h9.2a3.38,3.38,0,0,0,0-.56c0-3.39-2-6.13-5.41-6.13-3.21,0-5.57,2.69-5.57,6v0A5.76,5.76,0,0,0,123.92,17Zm-.27-10.66c2.31,0,3.53,1.84,3.71,4h-7.48C120.1,8.05,121.63,6.37,123.65,6.37Z"/><path class="cls-4" d="M101.64,13.69A3,3,0,0,0,104.92,17a4.31,4.31,0,0,0,2.09-.5V15a3.67,3.67,0,0,1-1.69.4,1.72,1.72,0,0,1-1.95-1.93V6.68h3.68V5.16h-3.68V1.65h-1.73V5.16H100V6.68h1.61Z"/><path class="cls-4" d="M110.72,13.69A3,3,0,0,0,114,17a4.28,4.28,0,0,0,2.09-.5V15a3.63,3.63,0,0,1-1.68.4,1.72,1.72,0,0,1-2-1.93V6.68h3.69V5.16h-3.69V1.65h-1.72V5.16H109.1V6.68h1.62Z"/><polygon class="cls-6" points="145.62 32.2 145.62 24.52 109.42 24.52 109.42 73.35 145.97 73.35 145.97 65.68 118 65.68 118 52.56 142.48 52.56 142.48 44.89 118 44.89 118 32.2 145.62 32.2"/><path class="cls-7" d="M133.87,12.14c0-3.5,2.07-5.32,4.6-5.32h.14V5a5,5,0,0,0-4.74,3.24v-3h-1.73v11.6h1.73Z"/><path class="cls-2" d="M236.2,15.53a6.81,6.81,0,0,1-4-1.48l-.88,1.23A8,8,0,0,0,236.11,17c2.31,0,4.13-1.28,4.13-3.48v0c0-2.08-1.93-2.78-3.73-3.32-1.55-.47-3-.9-3-2v0c0-1,.87-1.69,2.24-1.69a6.57,6.57,0,0,1,3.44,1.13L240,6.23A8,8,0,0,0,235.82,5c-2.29,0-4,1.33-4,3.33v0c0,2.14,2,2.76,3.84,3.28,1.53.43,2.9.87,2.9,2v0C238.6,14.81,237.59,15.53,236.2,15.53Z"/><path class="cls-8" d="M91.6,17a5.09,5.09,0,0,0,4.2-2v1.75h1.66V9.67a4.56,4.56,0,0,0-1.19-3.39A5.1,5.1,0,0,0,92.52,5,9.65,9.65,0,0,0,88.3,6l.52,1.42a8,8,0,0,1,3.52-.85c2.18,0,3.46,1.07,3.46,3.16v.41a12,12,0,0,0-3.57-.5c-2.94,0-5,1.3-5,3.75v.05C87.27,15.78,89.45,17,91.6,17ZM89,13.28c0-1.46,1.21-2.4,3.39-2.4a12,12,0,0,1,3.41.5V12.5c0,1.84-1.75,3.14-3.88,3.14-1.57,0-2.92-.85-2.92-2.31Z"/><path class="cls-9" d="M150,11.22h3.82c3.34,0,6.17-1.75,6.17-5.14V6c0-3.1-2.33-5-5.88-5h-5.88V16.76H150Zm0-8.53h4c2.53,0,4.22,1.16,4.22,3.41v0c0,2.07-1.71,3.46-4.31,3.46H150Z"/><polygon class="cls-1" points="97.31 133.7 106.69 133.7 106.69 89.37 123.48 89.37 123.48 80.75 80.52 80.75 80.52 89.37 97.31 89.37 97.31 133.7"/><path class="cls-10" d="M71.23,165.52c0,7.85-4.08,11.81-10.71,11.81s-10.77-4.2-10.77-12.11V141H42.27v24.52c0,12.36,7,18.74,18.13,18.74s18.31-6.38,18.31-19.1V141H71.23Z"/><polygon class="cls-11" points="109.93 161.14 96.97 141 89 141 89 183.59 96.36 183.59 96.36 153.17 109.68 173.13 109.93 173.13 123.37 153.05 123.37 183.59 130.86 183.59 130.86 141 122.89 141 109.93 161.14"/><path class="cls-12" d="M20.48,158.89c-8.21-1.95-10.16-3.4-10.16-6.69v-.12c0-2.8,2.56-5.05,6.94-5.05,3.89,0,7.73,1.52,11.56,4.38l4-5.66a23.58,23.58,0,0,0-15.45-5.35c-8.46,0-14.54,5-14.54,12.35v.12c0,7.85,5.11,10.52,14.17,12.71,7.91,1.83,9.62,3.47,9.62,6.52v.12c0,3.16-2.92,5.35-7.55,5.35-5.23,0-9.37-2-13.44-5.54l-4.51,5.36A26.27,26.27,0,0,0,18.9,184.2c9,0,15.21-4.74,15.21-12.71v-.12C34.11,164.31,29.49,161.08,20.48,158.89Z"/><path class="cls-6" d="M27.46,74.18a31.11,31.11,0,0,0,20.37-7.6V46.08H27v7.46H39.53v9.14a20,20,0,0,1-11.79,3.69c-10,0-16.6-7.39-16.6-17.43V48.8C11.14,39.45,18,31.57,27,31.57c6.21,0,9.91,2,13.68,5.23l5.44-6.49c-5-4.25-10.26-6.62-18.77-6.62A24.88,24.88,0,0,0,2.14,48.94v.13C2.14,63.3,12.19,74.18,27.46,74.18Z"/><polygon class="cls-9" points="7.42 16.76 9.22 16.76 9.22 2.69 14.49 2.69 14.49 1.05 2.14 1.05 2.14 2.69 7.42 2.69 7.42 16.76"/><rect class="cls-1" x="133.85" y="80.75" width="9.3" height="52.95"/><path class="cls-13" d="M29.07,134.61c9.91,0,16-3.64,21.49-9.38l-6-6.06C40,123.41,35.88,126,29.38,126c-10.14,0-17.48-8.39-17.48-18.76v-.15c0-10.36,7.42-18.68,17.48-18.68C35.43,88.39,40,91,44.2,95l6-6.89c-5.07-4.84-11-8.24-20.73-8.24-16,0-27.31,12.33-27.31,27.38v.15C2.14,122.58,13.64,134.61,29.07,134.61Z"/><polygon class="cls-6" points="236.99 58.28 210.83 24.52 202.88 24.52 202.88 73.35 211.32 73.35 211.32 38.61 238.25 73.35 245.43 73.35 245.43 24.52 236.99 24.52 236.99 58.28"/><polygon class="cls-11" points="162.74 161.14 149.78 141 141.81 141 141.81 183.59 149.17 183.59 149.17 153.17 162.5 173.13 162.74 173.13 176.19 153.05 176.19 183.59 183.67 183.59 183.67 141 175.7 141 162.74 161.14"/><path class="cls-14" d="M228.48,103c-10.21-2.42-12.63-4.24-12.63-8.33v-.15c0-3.48,3.18-6.28,8.63-6.28,4.84,0,9.6,1.9,14.37,5.45l5-7A29.31,29.31,0,0,0,224.63,80c-10.52,0-18.08,6.28-18.08,15.35v.16c0,9.76,6.35,13.08,17.62,15.81,9.84,2.27,12,4.31,12,8.09v.15c0,3.94-3.63,6.66-9.38,6.66-6.5,0-11.65-2.5-16.71-6.89l-5.6,6.66a32.62,32.62,0,0,0,22.09,8.47c11.12,0,18.91-5.9,18.91-15.81v-.15C245.43,109.72,239.68,105.71,228.48,103Z"/><rect class="cls-15" x="243.36" y="14.41" width="2.07" height="2.35"/><rect class="cls-11" x="195.05" y="141" width="7.48" height="42.59"/><polygon class="cls-11" points="210.87 147.94 224.38 147.94 224.38 183.59 231.92 183.59 231.92 147.94 245.43 147.94 245.43 141 210.87 141 210.87 147.94"/><rect class="cls-16" x="243.36" y="5.16" width="2.07" height="2.35"/><path class="cls-6" d="M67.57,56.33H78.31l12,17h10.18L87.31,54.86c6.76-2,11.58-6.76,11.58-14.78v-.14a14.75,14.75,0,0,0-4-10.53c-3.14-3.07-8-4.89-14.09-4.89H59V73.35h8.58Zm0-24H80.05c6.35,0,10.12,2.85,10.12,8.09v.14c0,5-3.91,8.16-10,8.16H67.57Z"/><path class="cls-3" d="M42.5,17a6,6,0,0,0,4.79-2.18l-1.08-1a4.8,4.8,0,0,1-3.66,1.64,4.06,4.06,0,0,1-4.09-3.93h9.21a5.06,5.06,0,0,0,0-.56c0-3.39-2-6.13-5.41-6.13-3.21,0-5.57,2.69-5.57,6v0A5.77,5.77,0,0,0,42.5,17ZM42.23,6.37c2.32,0,3.53,1.84,3.71,4H38.46C38.69,8.05,40.21,6.37,42.23,6.37Z"/><path class="cls-7" d="M17.26,12.14c0-3.5,2.07-5.32,4.6-5.32H22V5a5,5,0,0,0-4.74,3.24v-3H15.53v11.6h1.73Z"/><rect class="cls-1" x="60.85" y="80.75" width="9.3" height="52.95"/><path class="cls-2" d="M54.65,15.53a6.78,6.78,0,0,1-4-1.48l-.88,1.23A7.94,7.94,0,0,0,54.56,17c2.32,0,4.14-1.28,4.14-3.48v0c0-2.08-1.93-2.78-3.73-3.32-1.55-.47-3-.9-3-2v0c0-1,.88-1.69,2.25-1.69a6.51,6.51,0,0,1,3.43,1.13l.79-1.31A8,8,0,0,0,54.27,5c-2.29,0-4,1.33-4,3.33v0c0,2.14,2,2.76,3.84,3.28,1.53.43,2.9.87,2.9,2v0C57.06,14.81,56.05,15.53,54.65,15.53Z"/><path class="cls-3" d="M29.21,17A6,6,0,0,0,34,14.85l-1.08-1a4.78,4.78,0,0,1-3.66,1.64,4.05,4.05,0,0,1-4.08-3.93h9.2a5.06,5.06,0,0,0,0-.56c0-3.39-2-6.13-5.41-6.13-3.21,0-5.56,2.69-5.56,6v0A5.76,5.76,0,0,0,29.21,17ZM28.94,6.37c2.31,0,3.52,1.84,3.7,4H25.17C25.39,8.05,26.92,6.37,28.94,6.37Z"/><polygon class="cls-9" points="70.67 4.06 76.39 12.45 76.48 12.45 82.21 4.03 82.21 16.76 83.98 16.76 83.98 1.05 82.19 1.05 76.46 9.62 70.74 1.05 68.94 1.05 68.94 16.76 70.67 16.76 70.67 4.06"/></svg>