<svg xmlns="http://www.w3.org/2000/svg" viewBox="0 0 223 257"><defs><style>.cls-1{fill:#ebed7a;}.cls-2{fill:#dee122;}.cls-3,.cls-7{fill:none;}.cls-4{opacity:0.18;}.cls-5{fill:#686811;}.cls-6{fill:#2f459b;}.cls-7{stroke:#2f459b;stroke-linecap:round;stroke-linejoin:round;stroke-width:3.65px;}.cls-8{opacity:0.24;}.cls-9{fill:#e6e6e6;}</style></defs><title>Maple</title><g id="Layer_10" data-name="Layer 10"><polygon class="cls-1" points="4.25 190.19 4.25 66.37 111.49 4.46 218.72 66.37 218.72 190.19 111.49 252.1 4.25 190.19"/><path class="cls-2" d="M111.49,7.35,216.22,67.82V188.75L111.49,249.22,6.75,188.75V67.82L111.49,7.35m0-5.77L109,3,4.25,63.49l-2.5,1.44V191.64l2.5,1.44L109,253.55l2.5,1.44,2.5-1.44,104.73-60.47,2.5-1.44V64.93l-2.5-1.44L114,3l-2.5-1.44Z"/><polygon class="cls-3" points="216.22 188.75 216.22 67.82 111.49 7.35 6.75 67.82 6.75 188.75 111.49 249.22 216.22 188.75"/><g class="cls-4"><polygon class="cls-5" points="111.49 128.28 111.49 249.22 216.22 188.75 216.22 188.75 216.22 67.82 111.49 128.28"/></g><path class="cls-6" d="M72.13,172.93s-20.34,3.15-22.1,2.7.63-3.31.63-3.31a10.48,10.48,0,0,1-5.81.91c-2.79-.58-.73-5,.64-8s-5.69-2.46-6.6-5.93.75-4.32.75-4.32-5.46-2.18-5.17-4.74,2.27-1.81,2.27-1.81-9.55-7.3-8.24-9.75,3.14-2.5,3.14-2.5-6.09-5.87-3.92-6.67,17-.94,17.19,1.68-5.57-11.07-4.11-12.17a1.84,1.84,0,0,1,2.59.33s-5.4-12-4.43-13.73,3.59.4,3.59.4-4.6-7.52-3.41-8.94A10.56,10.56,0,0,1,42,94.84s-.39-5.75,1.32-7.11,8.08,1.94,8.08,1.94-1.92-10.59.08-12.18,2,2.56,2,2.56S54.61,68,56.2,67.65s2.28,2.85,2.28,2.85,1.21-13.09,3.71-14.63,2,2.57,2,2.57S67,45.52,70.35,45.64,72.44,57,72.44,57s2.62-2.56,3.3-1.7,3.69,13.38,2.72,15.09,4-3.18,4.67-2.33,2.78,5.24,1.64,6.15,3.35,4.79,2.55,7.29,1.08-.4,2.22,1-.86,10,.39,11.59a71.82,71.82,0,0,1,4,6.8s4.45-9.62,6.39-10.69-.23-5.4,1.65-5.75,1.93,2.42,1.93,2.42,5.77-8.33,7.19-7.13a10.43,10.43,0,0,1,2.27,2.84S116.38,70,119,71s1.93,2.42,1.93,2.42,3.21-10,5.19-8.1a9.66,9.66,0,0,1,2.39,3s2.34-4.66,4.38-4.43.62,6,1.3,6.89,1.08,6.6,1.08,6.6,5.93-8.93,8.66-7.84,1.84,2.88,1.84,2.88,2.34-6.22,3.63-6.16c1.46.07,5-4.62,6.15-3.2s1.53,4.84,1.53,4.84,9.58-9,10.71-7.61,6-2.95,7.46-1.76,4.62-4.15,6.27-2.66-3.19,11.4-5.65,11.81.38-.3,1.14.65-8.1,9.72-7,11.15,2.62-2.56,3.92-.34-5.65,11-4.68,11.66-5.41,9-8.26,11.27c-.09,2.23,10.22-1.67,11.35-.25s-2.55,12.64-7.29,13.32c0,2,2,.43,2.12,1.88.15,2.53-5.16,3.62-5.24,4.34-.21,1.88-15.3,16.87-18.36,17.91.46,1,10.64,4.57,16.9,4.23s0,2.34.91,3.48,10.42-.39,11,1.49-2.11,2.62-1,4,12.53-.67,13.55,1.78-3.08,2-1.71,3.7,11.61-1.81,12.92.42-4.56,6-6.56,5.22-1-.61.18,2-9.18,1.2-8,3.37c.52,1,.45-.62,2.44,1.88s-12.75,2.14-11.95,4.31,1.06,1.92.54,3.26-8.95-2.61-8.62.39,3.76,4.38,3.15,6.53-13,4.14-12.11,5.28,0,1.4-.75,1.82c-2.63,1.52-9.38-4-8.42-1s-7.17,1.52-6.26,2.66-2.23-.09-4.14,1.44-16.45-4.32-18.2-2.73c-1.44,1.3,7.3,10.5,5,12.83s-9.5-3.15-10.53-.93,1.13,3.76-1.54,4.5-10.64-6.9-11.49-6.22.69,4.58-.52,4.61c-2.53.07-6.38-1-6.89-3.37s-.15.59-2.37-.44-4.57-7.08-5.81-7.48c-2.43-.79-.12,2.88-2.57,3.6-3.22,1-3.48-3.28-5.65-3.58s-1.72.06-2.35-2.16c-.68-2.41.51-2.47-.75-3.29C69.46,189.2,75,174.82,72.13,172.93Z"/><path class="cls-7" d="M169.24,67.82s-46,50.17-63,68.68-53,60.84-61,64.17"/><g class="cls-8"><polygon class="cls-9" points="111.49 7.35 6.75 67.82 6.75 67.82 111.49 128.28 216.22 67.82 216.22 67.82 111.49 7.35"/></g></g></svg>