<svg xmlns="http://www.w3.org/2000/svg" viewBox="0 0 223 257"><defs><style>.cls-1{fill:#ebed7a;}.cls-2{fill:#dee122;}.cls-3{fill:#2f459b;}.cls-4,.cls-5{fill:none;}.cls-4{stroke:#2f459b;stroke-linecap:round;stroke-miterlimit:10;stroke-width:3.64px;}.cls-6{opacity:0.18;}.cls-7{fill:#686811;}.cls-8{opacity:0.24;}.cls-9{fill:#e6e6e6;}</style></defs><title>Oak</title><g id="Layer_10" data-name="Layer 10"><polygon class="cls-1" points="4.25 190.19 4.25 66.37 111.49 4.46 218.72 66.37 218.72 190.19 111.49 252.1 4.25 190.19"/><path class="cls-2" d="M111.49,7.35,216.22,67.82V188.75L111.49,249.22,6.75,188.75V67.82L111.49,7.35m0-5.77L109,3,4.25,63.49l-2.5,1.44V191.64l2.5,1.44L109,253.55l2.5,1.44,2.5-1.44,104.73-60.47,2.5-1.44V64.93l-2.5-1.44L114,3l-2.5-1.44Z"/><path class="cls-3" d="M40.62,178.46c11.14-18.43,10-24.66,7.89-44.75,7.34,2.17,11.87,7.06,14.58,7.59,4.31.85,9-3.78,7.86-8.23s-6.34-17-7.3-18.79,2.92,1.27,4.19-4.21.07-10.73,0-13.67,7.54,3.94,10.07,5.81,6.86,18.13,13.27,18.44c7.83.38,10.43-3.92,13-12.38s-1.57-40.17,8.42-43.36,8.75,19.58,14.79,20.71c9.55,1.79,17-43.08,27.18-41.73-2.64,5.77-4,23.53.36,23.25,7.35-.48,13.57-14.75,14.13-18.47C171,51.22,171.89,55,173.74,55c2.75,0,6.64-8.26,9-6.55,3,2.16-8.24,12.23-4.33,17s7.57,2.2,9.9,2.56S156.62,86.76,162,89.84s25.48.63,25.71,6.57-10.85,2.51-9,6.45,5.43,4.34,5.45,6.42-14-1.69-21.72.5-22.91,10.19-20.9,14.58c3.08,6.74,20.24,3.49,23.66,5,6.82,3.11,8,6.07,17,6.93-2.26,7.6-24.55,6.95-25.15,10.75s9.68,11.27,6.32,9.87a157.7,157.7,0,0,0-33.56-10.06c-13.54-2.85-26.79,4.69-25.35,10,2,7.17,10.11,8.53,16.3,12.31.17,2.17,2.51,5,9.59,10.1a75.31,75.31,0,0,0-22.56.42c-6.36,1.11-15.6-8.82-21.57-8.09-4,.49-1.91,8.43-4.83,8C57.93,176.09,50.28,171.19,40.62,178.46Z"/><path class="cls-4" d="M182.78,48.41s-23.59,37.6-78.7,83.18C60.4,167.72,51.23,170.7,40.62,178.46a187.25,187.25,0,0,1-22.25,13.7"/><polygon class="cls-5" points="216.22 188.75 216.22 67.82 111.49 7.35 6.75 67.82 6.75 188.75 111.49 249.22 216.22 188.75"/><g class="cls-6"><polygon class="cls-7" points="111.49 128.28 111.49 249.22 216.22 188.75 216.22 188.75 216.22 67.82 111.49 128.28"/></g><g class="cls-8"><polygon class="cls-9" points="111.49 7.35 6.75 67.82 6.75 67.82 111.49 128.28 216.22 67.82 216.22 67.82 111.49 7.35"/></g></g></svg>