<svg xmlns="http://www.w3.org/2000/svg" viewBox="0 0 107.13 107"><defs><style>.cls-1,.cls-3,.cls-6,.cls-7,.cls-9{fill:none;}.cls-1,.cls-5,.cls-6,.cls-8,.cls-9{stroke:#000;}.cls-1,.cls-4,.cls-6,.cls-7,.cls-9{stroke-linecap:round;}.cls-1,.cls-7{stroke-linejoin:round;}.cls-1,.cls-4,.cls-7,.cls-8,.cls-9{stroke-width:1.5px;}.cls-2{fill:#b6c7b6;}.cls-3{stroke:#b6c7b6;stroke-width:3px;}.cls-3,.cls-4,.cls-5,.cls-6,.cls-8,.cls-9{stroke-miterlimit:10;}.cls-4{fill:#ccc;stroke:#ccc;}.cls-5,.cls-8{fill:#fff;}.cls-5,.cls-6{stroke-width:1.3px;}.cls-7{stroke:#87a385;}</style></defs><title>riverbanks</title><g id="riverbanks"><path class="cls-1" d="M66,73c-3.25,0-3.25-2.08-6.51-2.08S56.26,73,53,73s-3.26-2.08-6.51-2.08S43.25,73,40,73s-3.25-2.08-6.5-2.08S30.23,73,27,73s-3.26-2.08-6.52-2.08S17.21,73,14,73"/><path class="cls-2" d="M42.48,46.84a7.8,7.8,0,0,0,1.12-4,7.89,7.89,0,0,0-5.46-7.48,4.81,4.81,0,0,0,.22-1.43,4.72,4.72,0,1,0-9.15,1.6,7.82,7.82,0,0,0-3.87,11.34,7.85,7.85,0,0,0,3.59,14.84h10a7.85,7.85,0,0,0,3.59-14.84Z"/><line class="cls-3" x1="32.85" y1="46.95" x2="32.85" y2="64.16"/><line class="cls-4" x1="33.1" y1="52.59" x2="36.29" y2="49.89"/><line class="cls-4" x1="32.85" y1="56.84" x2="28.44" y2="52.84"/><path class="cls-5" d="M40.23,46.74A7.23,7.23,0,0,0,41.28,43a7.31,7.31,0,0,0-5.07-6.93,4.51,4.51,0,0,0,.21-1.33,4.38,4.38,0,0,0-8.75,0,4.27,4.27,0,0,0,.26,1.48A7.33,7.33,0,0,0,23.29,43a7.23,7.23,0,0,0,1.05,3.74A7.28,7.28,0,0,0,27.67,60.5H36.9a7.28,7.28,0,0,0,3.33-13.76Z"/><line class="cls-6" x1="32.04" y1="46.29" x2="32.04" y2="64.26"/><line class="cls-6" x1="32.29" y1="52.03" x2="35.53" y2="49.28"/><line class="cls-6" x1="32.04" y1="56.35" x2="27.54" y2="52.28"/><path class="cls-1" d="M65.07,66.74c-3.25,0-3.25-2.09-6.51-2.09s-3.25,2.09-6.5,2.09-3.26-2.09-6.51-2.09S42.3,66.74,39,66.74s-3.25-2.09-6.5-2.09S29.28,66.74,26,66.74s-3.26-2.09-6.52-2.09S16.26,66.74,13,66.74"/><path class="cls-7" d="M64.93,68.14c-3.26,0-3.26-2.08-6.51-2.08s-3.25,2.08-6.51,2.08-3.25-2.08-6.5-2.08-3.26,2.08-6.51,2.08-3.25-2.08-6.51-2.08-3.25,2.08-6.51,2.08-3.26-2.08-6.51-2.08-3.26,2.08-6.52,2.08"/><path class="cls-7" d="M66,74.45c-3.25,0-3.25-2.09-6.51-2.09s-3.25,2.09-6.5,2.09-3.26-2.09-6.51-2.09S43.25,74.45,40,74.45s-3.25-2.09-6.5-2.09S30.23,74.45,27,74.45s-3.26-2.09-6.52-2.09S17.21,74.45,14,74.45"/><path class="cls-1" d="M66,78.82c-3.25,0-3.25-2.09-6.51-2.09s-3.25,2.09-6.5,2.09-3.26-2.09-6.51-2.09S43.25,78.82,40,78.82s-3.25-2.09-6.5-2.09S30.23,78.82,27,78.82s-3.26-2.09-6.52-2.09S17.21,78.82,14,78.82"/><path class="cls-7" d="M66,80.16c-3.25,0-3.25-2.08-6.51-2.08s-3.25,2.08-6.5,2.08-3.26-2.08-6.51-2.08S43.25,80.16,40,80.16s-3.25-2.08-6.5-2.08S30.23,80.16,27,80.16s-3.26-2.08-6.52-2.08S17.21,80.16,14,80.16"/><path class="cls-2" d="M88.35,54.32a14.63,14.63,0,0,0,2.11-7.55,14.78,14.78,0,0,0-10.24-14A8.84,8.84,0,1,0,63,30.07a8.71,8.71,0,0,0,.53,3,14.79,14.79,0,0,0-9.37,13.71,14.63,14.63,0,0,0,2.11,7.55A14.72,14.72,0,0,0,63,82.14H81.62a14.72,14.72,0,0,0,6.73-27.82Z"/><line class="cls-3" x1="70.79" y1="53.63" x2="70.79" y2="88.83"/><line class="cls-4" x1="70.28" y1="64.93" x2="76.67" y2="59.53"/><line class="cls-4" x1="69.79" y1="73.44" x2="60.95" y2="65.42"/><path class="cls-8" d="M85,53.45a14.31,14.31,0,0,0-7.92-21,8.62,8.62,0,1,0-16.83-2.61,8.54,8.54,0,0,0,.52,2.92,14.3,14.3,0,0,0-7.08,20.71,14.34,14.34,0,0,0,6.56,27.1H78.41A14.34,14.34,0,0,0,85,53.45Z"/><line class="cls-9" x1="68.82" y1="52.57" x2="68.82" y2="87.96"/><line class="cls-9" x1="69.32" y1="63.87" x2="75.71" y2="58.47"/><line class="cls-9" x1="68.82" y1="72.39" x2="59.98" y2="64.36"/></g></svg>