<svg xmlns="http://www.w3.org/2000/svg" viewBox="0 0 223 257"><defs><style>.cls-1{fill:#ebed7a;}.cls-2{fill:#dee122;}.cls-3,.cls-7,.cls-8{fill:none;}.cls-4{opacity:0.18;}.cls-5{fill:#686811;}.cls-6{fill:#2f459b;}.cls-7,.cls-8{stroke:#2f459b;stroke-linecap:round;stroke-miterlimit:10;}.cls-7{stroke-width:2px;}.cls-8{stroke-width:1.5px;}.cls-9{opacity:0.24;}.cls-10{fill:#e6e6e6;}</style></defs><title>Riverbirch</title><g id="Layer_10" data-name="Layer 10"><polygon class="cls-1" points="4.25 190.19 4.25 66.37 111.49 4.46 218.72 66.37 218.72 190.19 111.49 252.1 4.25 190.19"/><path class="cls-2" d="M111.49,7.35,216.22,67.82V188.75L111.49,249.22,6.75,188.75V67.82L111.49,7.35m0-5.77L109,3,4.25,63.49l-2.5,1.44V191.64l2.5,1.44L109,253.55l2.5,1.44,2.5-1.44,104.73-60.47,2.5-1.44V64.93l-2.5-1.44L114,3l-2.5-1.44Z"/><polygon class="cls-3" points="216.22 188.75 216.22 67.82 111.49 7.35 6.75 67.82 6.75 188.75 111.49 249.22 216.22 188.75"/><g class="cls-4"><polygon class="cls-5" points="111.49 128.28 111.49 249.22 216.22 188.75 216.22 188.75 216.22 67.82 111.49 128.28"/></g><path class="cls-6" d="M160.62,136.74c1.24-1.13-.61-2.88.9-2.65,2.48.36,4.43-.4,5.37.08s-.94-.6,0-1.78,2.12-2,3.6-1.47-1.58-.64.31-1.35,2.49-1.28,3.79-.92-1.3-.6-.23-1.66,2.09-.5,3.17-.83-1.16-1.41-.56-2,1.61.2,3.58-.9-.86.32.21-1.22,2.13-.93,3.78-1.16-2.12-.25-.94-1a7.22,7.22,0,0,1,3.23-1c1.26-.15-.86-.4-.15-1.1s2.86-1.39,3.26-1.69-2.84.33-3.14,0,1.07-1.06.13-.94-3.44,1.28-2.6.34,1.42-1.53.06-1.24-3,.7-3,.17-.41-.77-.06-1.24-2.07,1.11-2.3.4-1.25.53-1.12-.06-.06-1.24.06-1.72-3,1.17-3.19.46-.53-.88.12-1.65-3.61.81-3.9-.67.62-1.58.05-2.15-.8.5-1.27.14-1.36.65-1.42-.12-1.6,1.35-1.6.4-.83.47-1.18-.47.07-1.95-.69-2.72-2.25,1.17-2.43.52-1.48,1-2.07.17-1.24.64-1.47-.66,0-2.36-.93-2.72-2.43,1.47-2.55.88-1.06.94-1.65.34-1.6.88-2.25-.36.61-3.42-.16-3.48-1.72,2.06-2.19,1.23-.54,2.3-1.3,1.29-1.78,1.88-2.25,1.29-1.13,1.83-1.72,1.23-1,1-2,.11-.53-1.59-1-2.07-.83,1.89-1.3,1.3-1.39,2.51-1.85,1.57-1.6,2.54-2,2-.89,3.37-1.61,2.76-1.75,5-2.23,6.77a38.44,38.44,0,0,1-2.18,5.31s.86-.12,2.09,1.84c0,0,1,4,2,4.73a6.74,6.74,0,0,1,2.22,2.26,8.5,8.5,0,0,0,1.48,2.18c.41.42,1.54,0,2.53,2.55s.48-.47,1.06,0,.41,1.24,1.24,1.6-.35-1.42.71-.59.88,1.72,1.47,2.07.06-1,.77-.29.35,1.3.76,1.36.59-.58.89-.29.64,1,1.06,1.07-1-2.31-.7-3.43.47.36.83,0,.3-1.35,1-.64.94,1.66,1.3,1.54.18-1.12.71-.71.17,1,.88,1.25.18-1.12.65-.65.65,1.48,1,1.36-.47-1.3.36-.7,1.12,1.24,1.59.89-.82-2.37-.05-2.78,1,.18,1.42-.11-.82-1.19-.11-1.06.58.59,1.23.77-.47-.71.42-.53S160.06,137.26,160.62,136.74Z"/><path class="cls-6" d="M120,177.05c1.24-1.14-.62-2.88.89-2.66,2.48.37,4.43-.39,5.38.09s-1-.6,0-1.78,2.12-2,3.6-1.47-1.58-.65.31-1.35,2.49-1.29,3.79-.93-1.3-.59-.23-1.65,2.09-.5,3.18-.83-1.16-1.41-.57-2,1.61.2,3.58-.89-.86.31.21-1.22,2.13-.93,3.78-1.16-2.12-.25-.94-.95a7.13,7.13,0,0,1,3.24-1c1.26-.15-.87-.4-.16-1.11s2.86-1.38,3.27-1.68-2.85.33-3.14,0,1.06-1.06.12-.94-3.43,1.28-2.6.34,1.42-1.53.06-1.24-2.95.7-3,.17-.41-.77-.05-1.25-2.08,1.12-2.31.41-1.24.53-1.12-.06-.06-1.25.06-1.72-3,1.17-3.19.46-.53-.89.13-1.65-3.61.81-3.9-.67.61-1.58,0-2.15-.81.5-1.28.14-1.36.64-1.42-.12-1.6,1.35-1.59.4-.83.47-1.18-.47.06-1.95-.7-2.72-2.25,1.17-2.42.52-1.49,1-2.07.17-1.25.64-1.48-.66,0-2.36-.93-2.72-2.43,1.47-2.54.88-1.07.94-1.66.34-1.6.88-2.24-.36.6-3.42-.17-3.49-1.72,2.06-2.19,1.24-.54,2.3-1.3,1.29-1.78,1.88-2.25,1.29-1.13,1.83-1.72,1.23-1,1-2,.11-.52-1.59-1-2.07-.84,1.89-1.31,1.3-1.39,2.51-1.85,1.57-1.6,2.54-2,2-.9,3.37-1.62,2.76-1.75,5-2.23,6.77a37.73,37.73,0,0,1-2.18,5.31s.86-.12,2.09,1.83c0,0,1,4,2,4.74a6.88,6.88,0,0,1,2.23,2.26,8.5,8.5,0,0,0,1.47,2.18c.42.42,1.54,0,2.53,2.55s.48-.47,1.07,0,.41,1.24,1.23,1.6-.35-1.42.71-.59.88,1.72,1.47,2.07.06-1,.77-.29.35,1.3.76,1.36.6-.59.89-.29.64,1,1.06,1.07-1-2.31-.7-3.43.47.36.83,0,.3-1.35,1-.64.94,1.66,1.29,1.54.18-1.12.71-.71.17,1,.88,1.25.18-1.13.66-.65.64,1.48,1,1.36-.46-1.3.36-.71,1.12,1.25,1.59.9-.82-2.37,0-2.78,1,.18,1.42-.11-.82-1.19-.11-1.07.59.6,1.24.78-.47-.71.41-.53S119.42,177.57,120,177.05Z"/><path class="cls-6" d="M78.49,215.23c1.45-.37.73-2.51,1.82-1.71,1.79,1.33,3.64,1.55,4.18,2.32s-.49-.86.75-1.38,2.5-.7,3.43.35-1-1.17.81-.92,2.49,0,3.36.86-.77-1,.51-1.39,1.85.49,2.84.68-.32-1.59.39-1.8,1.18.83,3.19.81-.81-.12.67-.87,2.06.16,3.45.67-1.56-1.08-.33-1.14a6.43,6.43,0,0,1,3,.57c1,.41-.51-.67.35-.93s2.82.12,3.26.05-2.37-.94-2.47-1.29,1.28-.38.49-.69-3.23-.43-2.18-.82,1.76-.6.57-.95-2.61-.69-2.43-1.13,0-.78.48-1-2.09,0-2-.65-1.19-.11-.85-.52.48-1,.77-1.31-2.81-.33-2.69-1,0-.92.79-1.25-3.17-.88-2.78-2.16,1.15-1,.94-1.66-.83,0-1-.43-1.34-.07-1.06-.69-1.82.39-1.42-.35-.85,0-.73-.87.87-1.5.6-2.43-2.26,0-2.12-.6-1.58.16-1.69-.74-1.25,0-.88-1.13,1-1.85.41-2.53-2.52.13-2.36-.38-1.23.29-1.44-.42-1.62,0-1.61-1.23,1.91-2.43,1.34-2.8-2.22.89-2.24.05S83.14,184,83,182.9s-2.19.73-2.31.07-1.65,1-1.86.25-1.21.36-1.62-.76.26-1.47.09-2-1.45,1.13-1.57.46-2.14,1.38-2.11.46-2.31,1.32-2.42.7-2.12,2.26-2.43,1.48-3.47,3.18-4.58,4.37a33.92,33.92,0,0,1-3.94,3.24s.72.27.87,2.32c0,0-.89,3.52-.43,4.54a6.17,6.17,0,0,1,.79,2.71,7.65,7.65,0,0,0,.24,2.33c.15.5,1.2.65.91,3.06s.57-.17.83.45-.2,1.14.3,1.77.32-1.26.8-.16,0,1.71.28,2.24.47-.76.73.09-.27,1.17,0,1.39.72-.21.82.14.08,1.06.38,1.29.19-2.23.9-3,.22.47.64.35.81-.94,1.06-.09,0,1.7.37,1.75.61-.8.85-.25-.28.86.17,1.34.62-.8.78-.23-.11,1.43.22,1.49.18-1.22.57-.41.35,1.45.87,1.37.36-2.2,1.13-2.19.71.56,1.16.5-.15-1.27.36-.88.21.71.64,1.13-.07-.76.55-.24S77.83,215.39,78.49,215.23Z"/><path class="cls-6" d="M133.65,63.86c1.23-.88,2.42,1.06,2.5-.3.13-2.25,1.15-3.83.91-4.75s.35.94,1.56.31,2.16-1.49,1.95-2.9.28,1.51,1.24,0,1.59-1.95,1.51-3.16.28,1.25,1.41.5.82-1.75,1.31-2.64,1,1.27,1.65.86.12-1.46,1.44-3-.43.71,1.11,0,1.21-1.71,1.71-3.12-.17,1.91.67,1A6.42,6.42,0,0,0,154.09,44c.37-1.08.2.84.95.34s1.74-2.27,2.08-2.57-.81,2.45-.6,2.76,1.12-.75.85.06-1.76,2.79-.78,2.23,1.61-1,1.11.17-1.15,2.47-.69,2.62.6.5,1.08.27-1.36,1.63-.78,2-.69,1-.14,1,1.08.27,1.52.25-1.57,2.4-1,2.73.69.63,1.48.19-1.37,3-.12,3.55,1.5-.25,1.9.35-.58.62-.35,1.1-.82,1.08-.15,1.27-1.48,1.17-.65,1.33-.56.65.21,1.13,1.73.29,2.27,1.11-1.45,1.76-.9,2-1.15,1.12-.53,1.79-.79,1,.31,1.41,2.08.42,2.23,1.32-1.74,1.87-1.24,2.08-1,.77-.6,1.39-1.07,1.25-.09,2,3.12.08,3,.77-2.13,1.14-1.48,1.71-2.13.06-1.38.91-2,1.23-1.54,1.75-1.82.66-1.4,1.29-1.07.7-.46,1.74,1.31.76,1.64,1.26-1.81.39-1.38.91-2.46.77-1.72,1.34-2.53.95-2.11,1.44-3.13.17-2.73.92-4.71.63-6.36.73a33.57,33.57,0,0,0-5.07,1s.26-.74-1.24-2.18c0,0-3.31-1.59-3.8-2.61a6.21,6.21,0,0,0-1.59-2.37,7.64,7.64,0,0,1-1.65-1.7c-.3-.43.27-1.35-1.79-2.69s.5-.33.19-.93-1-.59-1.19-1.38,1.19.56.65-.52-1.35-1.09-1.56-1.67.9.13.4-.62-1.08-.55-1.06-.92.62-.42.42-.73-.77-.75-.75-1.13,1.85,1.3,2.89,1.24-.23-.48.15-.73,1.25,0,.75-.77-1.29-1.13-1.12-1.42,1,0,.75-.5-.85-.33-.94-1,1,0,.69-.45-1.18-.84-1-1.13,1.06.65.69-.19-.89-1.21-.5-1.56,1.94,1.15,2.44.55,0-.92.36-1.23.89.94.91.29-.41-.62-.45-1.23.54.54.54-.27S133.09,64.27,133.65,63.86Z"/><path class="cls-6" d="M90.32,106.36c1.08-1.06,2.56.68,2.42-.69-.21-2.24.56-4,.17-4.82s.5.87,1.6.07,1.9-1.81,1.48-3.17.51,1.45,1.22-.21,1.27-2.18,1-3.36.48,1.19,1.47.28.54-1.86.89-2.81,1.21,1.1,1.77.59-.11-1.45,1-3.18-.32.77,1.1-.12.94-1.87,1.22-3.35.13,1.92.81.89a6.27,6.27,0,0,0,1-2.86c.2-1.12.32.8,1,.19s1.37-2.51,1.66-2.86-.43,2.54-.17,2.82,1-.91.85-.07-1.31,3-.42,2.32,1.43-1.21,1.11,0-.76,2.62-.28,2.7.67.4,1.11.1-1.09,1.81-.47,2.06-.53,1.09,0,1,1.11.1,1.54,0-1.18,2.61-.56,2.85.78.51,1.49,0-.89,3.21.43,3.53,1.44-.48,1.93.06-.48.7-.18,1.14-.64,1.19,0,1.27-1.29,1.38-.44,1.42-.46.72.37,1.08,1.76,0,2.41.75-1.15,2-.57,2.15-1,1.29-.25,1.85-.63,1.09.52,1.35,2.13.1,2.41,1-1.43,2.12-.91,2.25-.89.91-.38,1.47-.86,1.39.22,2,3.1-.39,3.13.3-1.93,1.46-1.21,1.91-2.09.39-1.22,1.12-1.77,1.51-1.26,2-1.69.93-1.18,1.49-1,.86-.19,1.8,1.41.54,1.81,1-1.73.67-1.22,1.12-2.32,1.13-1.5,1.59-2.35,1.32-1.87,1.74-3.06.64-2.55,1.32-4.56,1.35-6.17,1.7a33.52,33.52,0,0,0-4.87,1.72s.14-.77-1.55-2c0,0-3.52-1.07-4.17-2a6,6,0,0,0-1.93-2.1,7.56,7.56,0,0,1-1.89-1.43c-.35-.39.06-1.38-2.18-2.38s.45-.41,0-1-1.1-.42-1.38-1.18,1.26.38.56-.61-1.5-.87-1.8-1.41.91,0,.3-.68-1.15-.37-1.19-.75.56-.5.3-.78-.87-.63-.91-1,2,1,3,.78-.3-.44,0-.74,1.24-.21.63-.88-1.45-.92-1.33-1.23,1-.11.67-.61-.89-.2-1.08-.84,1-.12.61-.56-1.3-.64-1.18-1,1.15.48.66-.29-1.07-1.06-.73-1.47,2.08.85,2.49.17-.12-.91.16-1.27,1,.8,1,.15-.5-.55-.64-1.14.62.45.5-.35S89.83,106.85,90.32,106.36Z"/><path class="cls-6" d="M43.91,141.06c.87-1.47,3,0,2.45-1.45-.88-2.39-.53-4.49-1.2-5.32s.78.81,1.76-.38,1.56-2.53.71-3.89,1,1.44,1.27-.59.76-2.74.13-4,.87,1.17,1.7-.11.05-2.19.16-3.34,1.64.86,2.1.15-.54-1.56.13-3.75-.13.92,1.17-.46.49-2.31.37-4,.69,2.07,1.14.74a7.24,7.24,0,0,0,.33-3.43c-.11-1.28.57.78,1.13-.07s.78-3.14,1-3.6.27,2.9.62,3.13.83-1.29.92-.32-.56,3.68.2,2.65,1.22-1.73,1.22-.32-.07,3.09.47,3,.85.25,1.24-.2-.67,2.29.08,2.37-.26,1.35.3,1.1,1.25-.2,1.69-.42-.54,3.18.21,3.27,1,.34,1.62-.47,0,3.76,1.48,3.74,1.44-.94,2.12-.5-.32.9.13,1.3-.35,1.48.42,1.38-1,1.87-.07,1.67-.29.92.73,1.07,1.92-.47,2.85.13-.7,2.48,0,2.52-.68,1.68.27,2.09-.38,1.37,1,1.33,2.35-.51,2.9.35-1,2.72-.34,2.72-.71,1.25,0,1.71-.54,1.78.83,2.16,3.28-1.32,3.5-.57-1.69,2.14-.76,2.44-2.18,1-1,1.56S79.3,148.68,80,149s-1.58,1.51-.86,2-.79,1.21.31,2,1.69.18,2.26.55-1.7,1.23-1,1.57-2.2,1.91-1.18,2.17-2.19,2.12-1.54,2.44-3.16,1.59-2.41,2.18-4.6,2.79-6.26,3.64a38.51,38.51,0,0,0-4.82,3.27s-.06-.87-2.26-1.69c0,0-4.15-.15-5.12-1a7.11,7.11,0,0,0-2.72-1.74,8.62,8.62,0,0,1-2.48-1c-.5-.32-.33-1.52-3.06-2s.37-.57-.23-1.06-1.32-.14-1.85-.89,1.49.05.44-.83-1.89-.51-2.37-1,1-.28.13-.83-1.37-.07-1.52-.47.47-.71.11-.94-1.14-.44-1.28-.83,2.5.5,3.55,0-.45-.39-.18-.82,1.29-.58.43-1.14-1.84-.58-1.8-1,1.08-.42.56-.86-1,0-1.43-.61,1.08-.42.51-.79-1.6-.33-1.56-.7,1.39.19.63-.51-1.48-.85-1.22-1.39,2.52.32,2.77-.53-.39-1-.19-1.44,1.35.57,1.08-.11-.71-.46-1-1.07.81.32.44-.52S43.51,141.73,43.91,141.06Z"/><path class="cls-6" d="M182,80.87c.45-1.14-.95-1.59-.06-2,1.47-.64,2.41-1.79,3-1.82s-.66,0-.37-1.11.76-2,1.71-2.17-1,.15-.11-1,1.12-1.67,1.93-1.89-.86.08-.48-1,1.07-1,1.61-1.62-1-.47-.74-1,.95-.43,1.82-1.8-.42.5-.14-.83,1-1.33,1.88-2-1.24.58-.73-.27A5.69,5.69,0,0,1,193,60.64c.67-.54-.57,0-.32-.64a18.26,18.26,0,0,1,1.47-2.19c.17-.33-1.52,1.2-1.75,1.11s.37-1-.13-.63-1.66,2-1.39,1.12.48-1.45-.23-.8-1.51,1.47-1.65,1.15-.4-.34-.29-.75-.93,1.41-1.21,1.05-.59.76-.65.35-.29-.76-.32-1.09-1.42,1.76-1.7,1.39-.48-.37-.27-1.07-1.86,1.76-2.33.94,0-1.2-.43-1.36-.35.59-.69.53-.63.87-.82.41-.61,1.4-.81.81-.37.58-.76.11-.38-1.24-1-1.45-1,1.51-1.25,1.16-.62,1.14-1.12.83-.57.83-1,.1-.49-1.48-1.1-1.37-1.05,1.76-1.24,1.43-.4,1-.86.79-.71,1.1-1.33.55-.39-2.35-.83-2.12-.53,1.89-1,1.53.18,1.63-.46,1.26-.6,1.8-1,1.59-.25,1.53-.71,1.37-.35,1-1.1.76-.63-.81-1-.94-.07,1.47-.46,1.26-.25,2-.7,1.63-.37,2.14-.73,1.94.21,2.41-.32,2.28.07,3.73.17,5a30.94,30.94,0,0,1-.11,4.08s.46-.37,1.57.42c0,0,1.39,2.13,2.11,2.26a3.22,3.22,0,0,1,1.73.64,3.86,3.86,0,0,0,1.29.85c.32.12.86-.53,1.95.72s.17-.46.6-.37.49.63,1,.57-.49-.77.28-.62.85.77,1.26.79-.18-.65.37-.45.47.69.71.58.21-.57.44-.49.58.41.82.3-1-1.09-1.11-1.9.34.06.46-.28-.11-1,.43-.75.88.7,1,.51-.13-.77.25-.69.31.57.76.47-.13-.76.23-.63.67.7.85.5-.54-.65.05-.56.89.39,1.08,0-1-1.19-.61-1.71.6-.24.77-.57-.71-.45-.29-.62.46.16.86,0-.41-.28.12-.47S181.82,81.39,182,80.87Z"/><path class="cls-7" d="M39.63,200.16c9.77-7.23,95-87.86,98.21-95.65s22.5-21.79,30.21-26.35"/><path class="cls-8" d="M117.12,128.29c5.75-3.63,14-7.15,17.81-7.13"/><path class="cls-8" d="M97.12,146.05s6.08-7.06,5.64-15.1"/><path class="cls-8" d="M75.53,167.47s9.49-5.74,16.52-5.19"/><path class="cls-8" d="M60.55,181.5c3.05-6.52,4-11.72,2.86-18.1"/><path class="cls-8" d="M47.26,193.64c5.88-2.64,8.48-4.28,15.09-1.89"/><path class="cls-8" d="M138.58,103.06c.7-5,2.41-13.28,4.54-16.35"/><g class="cls-9"><polygon class="cls-10" points="111.49 7.35 6.75 67.82 6.75 67.82 111.49 128.28 216.22 67.82 216.22 67.82 111.49 7.35"/></g></g></svg>