<svg id="Layer_1" data-name="Layer 1" xmlns="http://www.w3.org/2000/svg" xmlns:xlink="http://www.w3.org/1999/xlink" viewBox="0 0 218.5 255"><defs><style>.cls-1{fill:none;}.cls-2{clip-path:url(#clip-path);}.cls-3{fill:#019949;}.cls-4{clip-path:url(#clip-path-2);}</style><clipPath id="clip-path"><polygon class="cls-1" points="214.02 188 214.02 67.06 109.28 6.6 4.55 67.06 4.55 188 109.28 248.46 214.02 188"/></clipPath><clipPath id="clip-path-2"><polygon class="cls-1" points="478.69 188.09 478.69 67.16 373.96 6.69 269.23 67.16 269.23 188.09 373.96 248.56 478.69 188.09"/></clipPath></defs><title>Sonja-Duempelmann</title><g class="cls-2"><image width="552" height="552" transform="translate(-25.72 2) scale(0.46)" xlink:href="Sonja_Duempelmann.jpg"/></g><path class="cls-3" d="M109.29,6.6,214,67.06V188L109.29,248.46,4.55,188V67.06L109.29,6.6m0-5.78-2.5,1.45L2.05,62.73l-2.5,1.45v126.7l2.5,1.45,104.74,60.46,2.5,1.45,2.5-1.45,104.73-60.46,2.5-1.45V64.18l-2.5-1.45L111.79,2.27,109.29.82Z"/><g class="cls-4"><image width="3714" height="2441" transform="translate(184.78 -8) scale(0.11)" xlink:href="I:\2019\Trees on Structure Project\2019-05-20 Upper NW\Round 1 Edits\! Styphnolobium Japonicum (Japanese Pagoda)\DSC04746.jpg"/></g></svg>