<svg id="Layer_1" data-name="Layer 1" xmlns="http://www.w3.org/2000/svg" xmlns:xlink="http://www.w3.org/1999/xlink" viewBox="0 0 219.5 254.5"><defs><style>.cls-1{fill:none;}.cls-2{fill:#019949;}.cls-3{clip-path:url(#clip-path);}.cls-4{clip-path:url(#clip-path-2);}</style><clipPath id="clip-path"><polygon class="cls-1" points="214.01 187.55 214.01 66.61 109.28 6.15 4.55 66.61 4.55 187.55 109.28 248.01 214.01 187.55"/></clipPath><clipPath id="clip-path-2"><polygon class="cls-1" points="469.83 186.55 469.83 65.61 365.1 5.15 260.36 65.61 260.36 186.55 365.1 247.01 469.83 186.55"/></clipPath></defs><title>speaker-3</title><polygon class="cls-1" points="214.01 187.55 214.01 66.61 109.28 6.15 4.55 66.61 4.55 187.55 109.28 248.01 214.01 187.55"/><path class="cls-2" d="M109.28,6.15,214,66.61V187.55L109.28,248,4.55,187.55V66.61L109.28,6.15m0-5.78-2.5,1.45L2.05,62.28l-2.5,1.45v126.7l2.5,1.45,104.73,60.46,2.5,1.45,2.5-1.45,104.73-60.46,2.5-1.45V63.73l-2.5-1.45L111.78,1.82,109.28.37Z"/><g class="cls-3"><image width="3609" height="2104" transform="translate(-52.5 -15.24) scale(0.13)" xlink:href="I:\2019\Trees on Structure Project\2019-05-20 Upper NW\Round 1 Edits\! Styphnolobium Japonicum (Japanese Pagoda)\DSC04751.jpg"/></g><g class="cls-4"><image width="3094" height="2064" transform="translate(116.62 -8.5) scale(0.13)" xlink:href="I:\2019\Trees on Structure Project\2019-05-20 Upper NW\Round 1 Edits\! Syringa Reticulata (Japanese Lilac)\DSC04700.jpg"/></g></svg>