<svg id="Layer_1" data-name="Layer 1" xmlns="http://www.w3.org/2000/svg" xmlns:xlink="http://www.w3.org/1999/xlink" viewBox="0 0 222.89 255"><defs><style>.cls-1{fill:none;}.cls-2{clip-path:url(#clip-path);}.cls-3{clip-path:url(#clip-path-2);}.cls-4{fill:#019949;}</style><clipPath id="clip-path"><polygon class="cls-1" points="-34.78 187.05 -34.78 66.11 -139.51 5.65 -244.24 66.11 -244.24 187.05 -139.51 247.51 -34.78 187.05"/></clipPath><clipPath id="clip-path-2"><polygon class="cls-1" points="215.73 186.81 215.73 65.88 111 5.41 6.27 65.88 6.27 186.81 111 247.28 215.73 186.81"/></clipPath></defs><title>speaker-5</title><g class="cls-2"><image width="3094" height="2064" transform="translate(-387.99 -8) scale(0.13)" xlink:href="I:\2019\Trees on Structure Project\2019-05-20 Upper NW\Round 1 Edits\! Syringa Reticulata (Japanese Lilac)\DSC04700.jpg"/></g><g class="cls-3"><image width="2117" height="2582" transform="translate(-4.65 -31.02) scale(0.11)" xlink:href="I:\2019\Trees on Structure Project\2019-05-20 Upper NW\Round 1 Edits\Amelanchier Canadensis (Serviceberry)\DSC04737.jpg"/></g><path class="cls-4" d="M111,5.88,215.72,66.35V187.28L111,247.75,6.26,187.28V66.35L111,5.88m0-5.77-2.5,1.44L3.76,62l-2.5,1.44V190.17l2.5,1.44,104.73,60.47,2.5,1.44,2.5-1.44,104.73-60.47,2.5-1.44V63.46L218.22,62,113.49,1.55,111,.11Z"/></svg>