<svg id="Layer_1" data-name="Layer 1" xmlns="http://www.w3.org/2000/svg" xmlns:xlink="http://www.w3.org/1999/xlink" viewBox="0 0 220 256"><defs><style>.cls-1{fill:none;}.cls-2{clip-path:url(#clip-path);}.cls-3{clip-path:url(#clip-path-2);}.cls-4{fill:#019949;}</style><clipPath id="clip-path"><polygon class="cls-1" points="-40.49 189.05 -40.49 68.11 -145.22 7.65 -249.95 68.11 -249.95 189.05 -145.22 249.51 -40.49 189.05"/></clipPath><clipPath id="clip-path-2"><polygon class="cls-1" points="215.33 188.05 215.33 67.11 110.6 6.65 5.86 67.11 5.86 188.05 110.6 248.51 215.33 188.05"/></clipPath></defs><title>speaker-4</title><g class="cls-2"><image width="3609" height="2104" transform="translate(-307 -13.74) scale(0.13)" xlink:href="I:\2019\Trees on Structure Project\2019-05-20 Upper NW\Round 1 Edits\! Styphnolobium Japonicum (Japanese Pagoda)\DSC04751.jpg"/></g><g class="cls-3"><image width="3094" height="2064" transform="translate(-137.88 -7) scale(0.13)" xlink:href="I:\2019\Trees on Structure Project\2019-05-20 Upper NW\Round 1 Edits\! Syringa Reticulata (Japanese Lilac)\DSC04700.jpg"/></g><path class="cls-4" d="M110.6,6.65,215.33,67.11V188.05L110.6,248.51,5.86,188.05V67.11L110.6,6.65m0-5.78-2.5,1.45L3.36,62.78.86,64.23v126.7l2.5,1.45L108.1,252.84l2.5,1.45,2.5-1.45,104.73-60.46,2.5-1.45V64.23l-2.5-1.45L113.1,2.32,110.6.87Z"/></svg>