<svg id="Layer_1" data-name="Layer 1" xmlns="http://www.w3.org/2000/svg" xmlns:xlink="http://www.w3.org/1999/xlink" viewBox="0 0 221.71 254.99"><defs><style>.cls-1{fill:none;}.cls-2{clip-path:url(#clip-path);}.cls-3{clip-path:url(#clip-path-2);}.cls-4{fill:#019949;}</style><clipPath id="clip-path"><polygon class="cls-1" points="-48.48 188 -48.48 67.06 -153.22 6.6 -257.95 67.06 -257.95 188 -153.22 248.46 -48.48 188"/></clipPath><clipPath id="clip-path-2"><polygon class="cls-1" points="216.19 188.09 216.19 67.16 111.46 6.69 6.73 67.16 6.73 188.09 111.46 248.56 216.19 188.09"/></clipPath></defs><title>speaker-2</title><g class="cls-2"><image width="3526" height="2352" transform="translate(-330 -15) scale(0.13)" xlink:href="I:\2019\Trees on Structure Project\2019-05-20 Upper NW\Round 1 Edits\! Cornus Kousa (Japanese Dogwood)\DSC04677.jpg"/></g><g class="cls-3"><image width="3714" height="2441" transform="translate(-77.72 -8) scale(0.11)" xlink:href="I:\2019\Trees on Structure Project\2019-05-20 Upper NW\Round 1 Edits\! Styphnolobium Japonicum (Japanese Pagoda)\DSC04746.jpg"/></g><path class="cls-4" d="M110.46,6.69,215.19,67.16V188.09L110.46,248.56,5.73,188.09V67.16L110.46,6.69m0-5.77L108,2.36,3.23,62.83.73,64.27V191l2.5,1.44L108,252.89l2.5,1.44,2.5-1.44,104.73-60.47,2.5-1.44V64.27l-2.5-1.44L113,2.36,110.46.92Z"/></svg>