<svg xmlns="http://www.w3.org/2000/svg" viewBox="0 0 223 257"><defs><style>.cls-1{fill:#ebed7a;}.cls-2{fill:#dee122;}.cls-3,.cls-6{fill:none;}.cls-4{opacity:0.18;}.cls-5{fill:#686811;}.cls-6{stroke:#2f459b;stroke-linecap:round;stroke-miterlimit:10;stroke-width:4px;}.cls-7{fill:#2f459b;}.cls-8{opacity:0.24;}.cls-9{fill:#e6e6e6;}</style></defs><title>Sycamore</title><g id="Layer_10" data-name="Layer 10"><polygon class="cls-1" points="4.25 190.19 4.25 66.37 111.49 4.46 218.72 66.37 218.72 190.19 111.49 252.1 4.25 190.19"/><path class="cls-2" d="M111.49,7.35,216.22,67.82V188.75L111.49,249.22,6.75,188.75V67.82L111.49,7.35m0-5.77L109,3,4.25,63.49l-2.5,1.44V191.64l2.5,1.44L109,253.55l2.5,1.44,2.5-1.44,104.73-60.47,2.5-1.44V64.93l-2.5-1.44L114,3l-2.5-1.44Z"/><polygon class="cls-3" points="216.22 188.75 216.22 67.82 111.49 7.35 6.75 67.82 6.75 188.75 111.49 249.22 216.22 188.75"/><g class="cls-4"><polygon class="cls-5" points="111.49 128.28 111.49 249.22 216.22 188.75 216.22 188.75 216.22 67.82 111.49 128.28"/></g><path class="cls-6" d="M51.46,209.9s11.67-34,20.82-49.33S103,115.27,103,115.27"/><path class="cls-7" d="M91.1,131.83c1.62,2.35,8.37.71,11.73,5.88s-.3,8.31.26,10.66c.47,2,2.26.62,2.22,2.68s-1.12,6.06-.82,7.31,1.9-.59,3.23,0,1.77,1.26,3.81,2,22.52,7,23.76,6.67.68-3.52,3.29-5.27,9.32-2.68,11.16-2.4-1-3.77-.42-5.1,5.16-3.21,6.14-3-.19-1.08,1.55-2.88,8.87-4.56,11.43-5.43-.5-.41.32-1.4,8.88-4,9.14-5.08-4.23-1.43-6.35-5.6-.8-6.66-.79-8-5.52-2.17-4.86-6.28c0,0-.65-3.54,3.56-5.8s8.66-4.31,9.2-5.36-3.85-1.78-3.55-5,2.7-9.08,5.84-11.15c1-.63-4.06-1.53-5.14-3.85S175,79,175,79s-2.9,1.68-3-2.32,1.17-7.53,2.21-8.17-1.33-4.43.56-8.11,4.73-4.49,4.56-6.3-3-.54-6.39.28-10.4,2.28-14.44,1.34-8.09-1.3-7.88-3.46-5.37,3.46-7.59,1.62-5.11-4-4.2-7.9-6.22,4.58-8.1,6.35-6.5,7-8.35,6.74-2.13-.94-2.91-2-2.59,3.52-4.64,1.57-1.5-4.91-2.14-6-3.06-.12-3.29-1.06-1.85-4.7-2.82-4.93-.53,1.65-2.25.8-3-.85-3.25-3.11.68-3.52,1.24-5.3-4.08,3.61-6.22,7.08-2.38,7.69-3.52,8.16-3.57.79-4.59,2-1.72,3.57-2.69,3.94-3.93-.18-4.47.87-.57,5.6-2.63,7.48-4.35,1-4.87,2c-.78,1.44,2,7.24.19,9.91s-7.2,6.27-8.6,5.94-2.72-.32-3.16,1.56,1.18,15,2.43,18.59,7.36,12,11.37,13.1,11.85,1.59,12.22,3.15S89.49,129.48,91.1,131.83Z"/><g class="cls-8"><polygon class="cls-9" points="111.49 7.35 6.75 67.82 6.75 67.82 111.49 128.28 216.22 67.82 216.22 67.82 111.49 7.35"/></g></g></svg>