<svg xmlns="http://www.w3.org/2000/svg" viewBox="0 0 2056.15 193.64"><defs><style>.cls-1{fill:#60b8d3;}.cls-2{fill:#9cd3e4;}.cls-3{fill:#c4e5ef;}</style></defs><title>water</title><g id="Water"><path id="Dark" class="cls-1" d="M2056.15,200.64H1.32L2.58,12.93c168,0,248,40,415.91,40s168-40,335.92-40,168,40,335.92,40,168-40,335.91-40,168,40,335.92,40,128-40,295.92-40Z"/><path id="Medium" class="cls-2" d="M2055.15,42.37V193.64H0V5.93c146.42,0,146.42,36,292.84,36s146.43-36,292.85-36,146.42,36,292.84,36,146.42-36,292.84-36,146.43,36,292.85,36,146.42-36,292.85-36,146.42,36,292.85,36Z"/><path id="Light" class="cls-3" d="M2056.15,193.64H1.32L0,45.93c168,0,168-40,335.92-40s168,40,335.91,40,168-40,335.92-40,168,40,335.91,40,168-40,335.92-40,210,40,377.92,40Z"/></g></svg>